<?xml version="1.0" encoding="UTF-8" standalone="no"?>
<svg
   xmlns:dc="http://purl.org/dc/elements/1.1/"
   xmlns:cc="http://creativecommons.org/ns#"
   xmlns:rdf="http://www.w3.org/1999/02/22-rdf-syntax-ns#"
   xmlns:svg="http://www.w3.org/2000/svg"
   xmlns="http://www.w3.org/2000/svg"
   xmlns:xlink="http://www.w3.org/1999/xlink"
   xmlns:sodipodi="http://sodipodi.sourceforge.net/DTD/sodipodi-0.dtd"
   xmlns:inkscape="http://www.inkscape.org/namespaces/inkscape"
   sodipodi:docname="splash.svg"
   inkscape:version="1.0.2 (e86c870879, 2021-01-15)"
   version="1.1"
   id="svg3320"
   height="480"
   width="640">
  <defs
     id="defs3322">
    <linearGradient
       id="linearGradient5012">
      <stop
         style="stop-color:#fdf188;stop-opacity:1;"
         offset="0"
         id="stop5014" />
      <stop
         style="stop-color:#d3bc00;stop-opacity:1;"
         offset="1"
         id="stop5016" />
    </linearGradient>
    <linearGradient
       id="linearGradient8543">
      <stop
         style="stop-color:#fffef5;stop-opacity:0.94117647;"
         offset="0"
         id="stop8545" />
      <stop
         style="stop-color:#fce94f;stop-opacity:0;"
         offset="1"
         id="stop8547" />
    </linearGradient>
    <linearGradient
       id="linearGradient11202">
      <stop
         style="stop-color:#c4a000;stop-opacity:1;"
         offset="0"
         id="stop11204" />
      <stop
         style="stop-color:#c4a000;stop-opacity:0;"
         offset="1"
         id="stop11206" />
    </linearGradient>
    <linearGradient
       id="linearGradient18284">
      <stop
         style="stop-color:#000000;stop-opacity:1;"
         offset="0"
         id="stop18286" />
      <stop
         id="stop20913"
         offset="0.5"
         style="stop-color:#000000;stop-opacity:1;" />
      <stop
         id="stop19165"
         offset="1"
         style="stop-color:#000000;stop-opacity:0;" />
    </linearGradient>
    <inkscape:perspective
       sodipodi:type="inkscape:persp3d"
       inkscape:vp_x="0 : 24 : 1"
       inkscape:vp_y="0 : 1000 : 0"
       inkscape:vp_z="48 : 24 : 1"
       inkscape:persp3d-origin="24 : 16 : 1"
       id="perspective47" />
  </defs>
  <sodipodi:namedview
     inkscape:document-rotation="0"
     inkscape:window-maximized="1"
     inkscape:window-y="0"
     inkscape:window-x="2560"
     inkscape:window-height="2134"
     inkscape:window-width="3840"
     showgrid="false"
     inkscape:current-layer="layer1"
     inkscape:document-units="px"
     inkscape:cy="373.57912"
     inkscape:cx="152.99615"
     inkscape:zoom="0.775"
     inkscape:pageshadow="2"
     inkscape:pageopacity="0.0"
     borderopacity="1.0"
     bordercolor="#666666"
     pagecolor="#ffffff"
     id="base" />
  <metadata
     id="metadata3325">
    <rdf:RDF>
      <cc:Work
         rdf:about="">
        <dc:format>image/svg+xml</dc:format>
        <dc:type
           rdf:resource="http://purl.org/dc/dcmitype/StillImage" />
        <dc:title />
      </cc:Work>
    </rdf:RDF>
  </metadata>
  <g
     transform="translate(0,-572.3622)"
     id="layer1"
     inkscape:groupmode="layer"
     inkscape:label="Layer 1">
    <rect
       y="572.36218"
       x="0"
       height="480"
       width="640"
       id="rect3328"
       style="fill:#000000;fill-opacity:1;stroke:none" />
    <text
       xml:space="preserve"
       style="font-style:normal;font-variant:normal;font-weight:bold;font-stretch:normal;line-height:0;font-family:'DejaVu Sans';-inkscape-font-specification:'DejaVu Sans Bold';text-align:start;letter-spacing:0px;word-spacing:0px;writing-mode:lr-tb;text-anchor:start;fill:#ffffff;fill-opacity:1;stroke:none"
       x="190.68135"
       y="619.20685"
       id="text3002"
       transform="scale(1.0000015)"><tspan
         id="tspan3045"
         style="font-style:normal;font-weight:bold;font-size:20px;line-height:1;-inkscape-font-specification:'DejaVu Sans Bold'"
         sodipodi:role="line"
         x="190.68135"
         y="619.20685">Malcolm</tspan><tspan
         id="tspan3041"
         style="font-style:normal;font-weight:bold;font-size:20px;line-height:1;-inkscape-font-specification:'DejaVu Sans Bold'"
         sodipodi:role="line"
         x="190.68135"
         y="639.20685">@PROJECT@ @VERSION@ (@DISTRIBUTION@)</tspan><tspan
         id="tspan3037"
         style="font-style:normal;font-weight:bold;font-size:20px;line-height:1.2;-inkscape-font-specification:'DejaVu Sans Bold'"
         sodipodi:role="line"
         x="190.68135"
         y="661.20685"> </tspan><tspan
         id="tspan3039"
         style="font-style:normal;font-weight:bold;font-size:13.3333px;line-height:1.2;-inkscape-font-specification:'DejaVu Sans Bold'"
         sodipodi:role="line"
         x="190.68135"
         y="679.47504">Built: @YEAR@-@MONTH@-@DAY@ @HOUR@:@MINUTE@:@SECOND@ @TIMEZONE@</tspan><tspan
         id="tspan3098"
         style="font-style:normal;font-weight:bold;font-size:13.3333px;line-height:1.2;-inkscape-font-specification:'DejaVu Sans Bold'"
         sodipodi:role="line"
         x="190.68135"
         y="695.47504"> </tspan><tspan
         id="tspan3102"
         style="font-style:normal;font-weight:normal;font-size:13.3333px;line-height:1.2;-inkscape-font-specification:'DejaVu Sans'"
         sodipodi:role="line"
         x="190.68135"
         y="711.47498">linux: @LINUX_VERSIONS@</tspan><tspan
         id="tspan3076"
         style="font-style:normal;font-weight:normal;font-size:13.3333px;line-height:1.2;-inkscape-font-specification:'DejaVu Sans'"
         sodipodi:role="line"
         x="190.68135"
         y="727.47491">live-build: @LIVE_BUILD_VERSION@</tspan><tspan
         id="tspan3068"
         style="font-style:normal;font-weight:normal;font-size:13.3333px;line-height:1.2;-inkscape-font-specification:'DejaVu Sans'"
         sodipodi:role="line"
         x="190.68135"
         y="743.47491">live-boot: @LIVE_BOOT_VERSION@</tspan><tspan
         id="tspan3070"
         style="font-style:normal;font-weight:normal;font-size:13.3333px;line-height:1.2;-inkscape-font-specification:'DejaVu Sans'"
         sodipodi:role="line"
         x="190.68135"
         y="759.47485">live-config: @LIVE_CONFIG_VERSION@</tspan><tspan
         id="tspan3012"
         style="font-style:normal;font-weight:normal;font-size:13.3333px;line-height:1.2;-inkscape-font-specification:'DejaVu Sans'"
         sodipodi:role="line"
         x="190.68135"
         y="775.47479">live-tools: @LIVE_TOOLS_VERSION@</tspan><tspan
         id="tspan3066"
         style="font-style:normal;font-weight:normal;font-size:13.3333px;line-height:1.2;-inkscape-font-specification:'DejaVu Sans'"
         sodipodi:role="line"
         x="190.68135"
         y="791.47479"> </tspan></text>
    <text
       transform="translate(0,572.3622)"
       id="text3114"
       y="336.7742"
       x="200"
       style="font-style:normal;font-weight:normal;line-height:0%;font-family:sans-serif;letter-spacing:0px;word-spacing:0px;fill:#000000;fill-opacity:1;stroke:none"
       xml:space="preserve"><tspan
         style="font-size:40px;line-height:1.25;font-family:sans-serif"
         y="336.7742"
         x="200"
         id="tspan3116"
         sodipodi:role="line"> </tspan></text>
    <g
       id="g298"
       transform="matrix(0.2353426,0,0,0.2353426,210.74201,520.9313)">
      <g
         stroke="#888888"
         stroke-width="0.76px"
         fill="none"
         id="g12"
         transform="matrix(1.3157895,0,0,1.3157895,-817.95332,289.7391)">
        <path
           d="M -59.34,433.6 559.26,76.4"
           id="path6" />
        <path
           d="M 559.3,433.6 -59.3,76.4"
           id="path8" />
        <path
           d="M 250,-102.2 V 612.2"
           id="path10" />
      </g>
      <use
         xlink:href="#a"
         transform="matrix(-0.5,-0.866,0.866,-0.5,-1274.9493,514.41899)"
         id="use14"
         x="0"
         y="0"
         width="100%"
         height="100%" />
      <use
         xlink:href="#a"
         transform="matrix(-0.5,0.866,-0.866,-0.5,-192.06853,1361.3773)"
         id="use16"
         x="0"
         y="0"
         width="100%"
         height="100%" />
      <g
         id="a"
         transform="matrix(1.3157895,0,0,1.3157895,-817.95332,289.7391)">
        <path
           stroke="#888888"
           stroke-width="0.76px"
           d="M 329,140 H 250"
           fill="none"
           id="path18" />
        <path
           stroke="#000000"
           fill="#eedd77"
           d="m 250,313.2 c 0,-5 -0.7,-10.2 -2,-15 -1.3,-4.8 -3.3,-9.7 -5.8,-14 -2.5,-4.3 -5.6,-8.5 -9.2,-12 -3.5,-3.5 -7.7,-6.7 -12,-9.2 -4.3,-2.5 -9.2,-4.5 -14,-5.8 -4.8,-1.3 -10,-2 -15,-2 -2.9,0 -6,0.2 -8.9,0.7 -1.1,-2.8 -2.4,-5.5 -3.9,-8.1 -2.5,-4.3 -5.6,-8.4 -9.2,-12 -3.5,-3.5 -7.7,-6.7 -12,-9.2 -4.3,-2.5 -9.2,-4.5 -14,-5.8 -4.8,-1.3 -10,-2 -15,-2 -5,0 -10.2,0.7 -15,2 -4.8,1.3 -9.7,3.3 -14,5.8 -4.33,2.5 -8.47,5.7 -12.01,9.2 -3.54,3.6 -6.72,7.7 -9.22,12 -2.5,4.4 -4.5,9.2 -5.79,14 -1.3,4.9 -1.98,10 -1.98,15 0,5 0.68,10.2 1.98,15 1.29,4.9 3.29,9.7 5.79,14 1.47,2.6 3.18,5.1 5.06,7.4 -1.88,2.3 -3.59,4.8 -5.06,7.4 -2.5,4.3 -4.5,9.1 -5.79,14 -1.3,4.8 -1.98,10 -1.98,15 0,5 0.68,10.2 1.98,15 6.33,23.6 25.48,46.2 45.82,61.8 -7.5,-5.8 -14.6,-12 -21.16,-18.6 C 84.5,394.7 72.69,379.3 63.4,363.2 59.08,355.7 55.64,347.4 53.41,339.1 51.17,330.8 50,321.8 50,313.2 c 0,-8.6 1.17,-17.5 3.41,-25.9 2.23,-8.3 5.67,-16.6 9.99,-24.1 4.31,-7.5 9.79,-14.6 15.89,-20.7 6.1,-6.1 13.24,-11.6 20.71,-15.9 7.5,-4.3 15.8,-7.8 24.1,-10 8.4,-2.2 17.3,-3.4 25.9,-3.4 8.6,0 17.5,1.2 25.9,3.4 8.3,2.2 16.6,5.7 24.1,10 7.5,4.3 14.6,9.8 20.7,15.9 6.1,6.1 11.6,13.2 15.9,20.7 4.3,7.5 7.8,15.8 10,24.1 2.2,8.4 3.4,17.3 3.4,25.9 z"
           fill-rule="evenodd"
           id="path20" />
        <g
           transform="matrix(2,0,0,2,-350,-260)"
           id="g24">
          <path
             stroke="#666666"
             stroke-width="0.5"
             d="m 300,286.6 c 0,-16.6 -12.8,-30.5 -27.5,-39 -14.7,-8.5 -33.1,-12.6 -47.5,-4.3 -3.6,2.1 -6.6,4.8 -9.2,7.9 -2.5,3.1 -4.6,6.7 -6.2,10.5 -1.6,3.8 -2.7,7.9 -3.5,12.1 -0.7,4.2 -1.1,8.6 -1.1,12.8 0,4.3 0.4,8.6 1.1,12.8 0.8,4.2 1.9,8.3 3.5,12.1 3.7,9 9.2,17.4 14.2,22.4 3.3,3.3 6.9,6.4 10.6,9.3"
             fill="none"
             id="path22" />
        </g>
        <path
           stroke="#000000"
           fill="#eedd77"
           d="m 436.6,363.2 c -9.3,16.1 -21.1,31.5 -34.2,44.6 -13.2,13.2 -28.6,25 -44.7,34.3 -16.1,9.3 -34,16.7 -51.9,21.5 -18,4.8 -37.2,7.3 -55.8,7.3 -18.6,0 -37.8,-2.5 -55.8,-7.3 -17.9,-4.8 -35.8,-12.2 -51.9,-21.5 -8.1,-4.7 -16,-9.9 -23.5,-15.7 -20.34,-15.6 -39.49,-38.2 -45.82,-61.8 -1.3,-4.8 -1.98,-10 -1.98,-15 0,-5 0.68,-10.2 1.98,-15 1.29,-4.9 3.29,-9.7 5.79,-14 1.47,-2.6 3.18,-5.1 5.06,-7.4 -1.88,-2.3 -3.59,-4.8 -5.06,-7.4 -2.5,-4.3 -4.5,-9.1 -5.79,-14 -1.3,-4.8 -1.98,-10 -1.98,-15 0,-5 0.68,-10.1 1.98,-15 1.29,-4.8 3.29,-9.6 5.79,-14 2.5,-4.3 5.68,-8.4 9.22,-12 3.54,-3.5 7.68,-6.7 12.01,-9.2 4.3,-2.5 9.2,-4.5 14,-5.8 4.8,-1.3 10,-2 15,-2 5,0 10.2,0.7 15,2 4.8,1.3 9.7,3.3 14,5.8 4.3,2.5 8.5,5.7 12,9.2 3.6,3.6 6.7,7.7 9.2,12 1.5,2.6 2.8,5.3 3.9,8.1 2.9,-0.5 6,-0.7 8.9,-0.7 5,0 10.2,0.7 15,2 4.8,1.3 9.7,3.3 14,5.8 4.3,2.5 8.5,5.7 12,9.2 3.6,3.5 6.7,7.7 9.2,12 2.5,4.3 4.5,9.2 5.8,14 1.3,4.8 2,10 2,15 0,8.6 1.2,17.6 3.4,25.9 2.2,8.3 5.7,16.6 10,24.1 4.3,7.5 9.8,14.6 15.9,20.7 6.1,6.1 13.2,11.6 20.7,15.9 7.5,4.3 15.8,7.8 24.1,10 8.4,2.2 17.3,3.4 25.9,3.4 8.6,0 17.5,-1.2 25.9,-3.4 8.3,-2.2 16.6,-5.7 24.1,-10 7.5,-4.3 14.6,-9.8 20.7,-15.9 6.1,-6.1 11.6,-13.2 15.9,-20.7 z m -102.9,68.9 c -5,-0.7 -10,-1.7 -14.8,-3 -10,-2.7 -19.9,-6.8 -28.9,-12 -9,-5.1 -17.5,-11.7 -24.9,-19 -7.3,-7.4 -13.8,-15.9 -19,-24.9 -5.2,-9 -9.3,-18.9 -12,-28.9 -2.7,-10 -4.1,-20.7 -4.1,-31.1 0,-3.3 -0.4,-6.7 -1.3,-9.8 -0.8,-3.2 -2.2,-6.4 -3.8,-9.2 -1.6,-2.8 -3.7,-5.5 -6,-7.9 -2.3,-2.3 -5.1,-4.4 -7.9,-6 -2.8,-1.6 -6,-3 -9.2,-3.8 -3.1,-0.8 -6.5,-1.3 -9.8,-1.3 -3.3,0 -6.7,0.5 -9.8,1.3 -3.2,0.8 -6.4,2.2 -9.2,3.8 -2.5,1.4 -4.9,3.2 -7,5.2 0.7,-2.8 1,-5.8 1,-8.7 0,-3.2 -0.4,-6.6 -1.3,-9.8 -0.8,-3.2 -2.2,-6.3 -3.8,-9.2 -1.6,-2.8 -3.7,-5.5 -6,-7.8 -2.3,-2.4 -5.1,-4.4 -7.9,-6.1 -2.8,-1.6 -6,-2.9 -9.2,-3.8 -3.1,-0.8 -6.5,-1.3 -9.8,-1.3 -3.3,0 -6.7,0.5 -9.8,1.3 -3.2,0.9 -6.4,2.2 -9.2,3.8 -2.8,1.7 -5.6,3.7 -7.9,6.1 -2.29,2.3 -4.37,5 -6.01,7.8 -1.64,2.9 -2.95,6 -3.79,9.2 -0.85,3.2 -1.3,6.6 -1.3,9.8 0,3.3 0.45,6.7 1.3,9.9 0.84,3.1 2.15,6.3 3.79,9.1 1.64,2.9 3.72,5.6 6.01,7.9 2.3,2.3 5.1,4.4 7.9,6 2.5,1.5 5.2,2.7 8,3.5 -2.8,0.8 -5.5,2 -8,3.5 -2.8,1.6 -5.6,3.7 -7.9,6 -2.29,2.3 -4.37,5 -6.01,7.9 -1.64,2.8 -2.95,6 -3.79,9.1 -0.85,3.2 -1.3,6.6 -1.3,9.9 0,3.3 0.45,6.6 1.3,9.8 4.54,17 20.9,37.5 38.7,51.1 6.8,5.3 14,10 21.3,14.3 14.6,8.4 30.8,15.1 47.1,19.5 16.3,4.3 33.7,6.6 50.6,6.6 16.9,0 34.3,-2.3 50.6,-6.6 11.2,-3 22.5,-7.2 33.1,-12.2 z"
           fill-rule="evenodd"
           id="path26" />
        <path
           d="m 333.7,432.1 c 45.1,-6.6 78.1,-28.5 102.9,-68.9"
           stroke="#000000"
           stroke-width="0.38"
           fill="none"
           id="path28" />
        <path
           stroke="#666666"
           d="M 116.2,313.2 H 60"
           fill="none"
           id="path30" />
      </g>
      <path
         stroke="#666666"
         stroke-width="1"
         d="M -358.08489,700.66016 H -619.927 l 130.92106,-226.71053 z"
         fill="none"
         id="path33" />
    </g>
  </g>
</svg>
