<?xml version="1.0" encoding="UTF-8" standalone="no"?>
<svg
   xmlns:dc="http://purl.org/dc/elements/1.1/"
   xmlns:cc="http://creativecommons.org/ns#"
   xmlns:rdf="http://www.w3.org/1999/02/22-rdf-syntax-ns#"
   xmlns:svg="http://www.w3.org/2000/svg"
   xmlns="http://www.w3.org/2000/svg"
   xmlns:xlink="http://www.w3.org/1999/xlink"
   xmlns:sodipodi="http://sodipodi.sourceforge.net/DTD/sodipodi-0.dtd"
   xmlns:inkscape="http://www.inkscape.org/namespaces/inkscape"
   height="600"
   width="600"
   viewBox="22 27 456 456"
   version="1.1"
   id="svg35"
   sodipodi:docname="Triskel_type_Tonkedeg..svg"
   inkscape:version="0.92.4 (5da689c313, 2019-01-14)">
  <metadata
     id="metadata41">
    <rdf:RDF>
      <cc:Work
         rdf:about="">
        <dc:format>image/svg+xml</dc:format>
        <dc:type
           rdf:resource="http://purl.org/dc/dcmitype/StillImage" />
      </cc:Work>
    </rdf:RDF>
  </metadata>
  <defs
     id="defs39" />
  <sodipodi:namedview
     pagecolor="#ffffff"
     bordercolor="#666666"
     borderopacity="1"
     objecttolerance="10"
     gridtolerance="10"
     guidetolerance="10"
     inkscape:pageopacity="0"
     inkscape:pageshadow="2"
     inkscape:window-width="1912"
     inkscape:window-height="1021"
     id="namedview37"
     showgrid="false"
     inkscape:zoom="1.5733333"
     inkscape:cx="497.02395"
     inkscape:cy="354.55275"
     inkscape:window-x="8"
     inkscape:window-y="32"
     inkscape:window-maximized="1"
     inkscape:current-layer="svg35" />
  <g
     stroke="#888"
     stroke-width=".76px"
     fill="none"
     id="g12">
    <path
       d="m-59.34 433.6 618.6-357.2"
       id="path6" />
    <path
       d="m559.3 433.6-618.6-357.2"
       id="path8" />
    <path
       d="m250-102.2v714.4"
       id="path10" />
  </g>
  <use
     xlink:href="#a"
     transform="matrix(-.5 -.8660 .8660 -.5 154.2 599)"
     id="use14" />
  <use
     xlink:href="#a"
     transform="matrix(-.5 .8660 -.8660 -.5 595.8 166)"
     id="use16" />
  <g
     id="a">
    <path
       stroke="#888"
       stroke-width=".76px"
       d="m329 140h-79"
       fill="none"
       id="path18" />
    <path
       stroke="#000"
       fill="#ed7"
       d="m250 313.2c0-5-0.7-10.2-2-15s-3.3-9.7-5.8-14-5.6-8.5-9.2-12c-3.5-3.5-7.7-6.7-12-9.2s-9.2-4.5-14-5.8-10-2-15-2c-2.9 0-6 0.2-8.9 0.7-1.1-2.8-2.4-5.5-3.9-8.1-2.5-4.3-5.6-8.4-9.2-12-3.5-3.5-7.7-6.7-12-9.2s-9.2-4.5-14-5.8-10-2-15-2-10.2 0.7-15 2-9.7 3.3-14 5.8c-4.33 2.5-8.47 5.7-12.01 9.2-3.54 3.6-6.72 7.7-9.22 12-2.5 4.4-4.5 9.2-5.79 14-1.3 4.9-1.98 10-1.98 15s0.68 10.2 1.98 15c1.29 4.9 3.29 9.7 5.79 14 1.47 2.6 3.18 5.1 5.06 7.4-1.88 2.3-3.59 4.8-5.06 7.4-2.5 4.3-4.5 9.1-5.79 14-1.3 4.8-1.98 10-1.98 15s0.68 10.2 1.98 15c6.33 23.6 25.48 46.2 45.82 61.8-7.5-5.8-14.6-12-21.16-18.6-13.14-13.1-24.95-28.5-34.24-44.6-4.32-7.5-7.76-15.8-9.99-24.1-2.24-8.3-3.41-17.3-3.41-25.9s1.17-17.5 3.41-25.9c2.23-8.3 5.67-16.6 9.99-24.1 4.31-7.5 9.79-14.6 15.89-20.7s13.24-11.6 20.71-15.9c7.5-4.3 15.8-7.8 24.1-10 8.4-2.2 17.3-3.4 25.9-3.4s17.5 1.2 25.9 3.4c8.3 2.2 16.6 5.7 24.1 10s14.6 9.8 20.7 15.9 11.6 13.2 15.9 20.7 7.8 15.8 10 24.1c2.2 8.4 3.4 17.3 3.4 25.9z"
       fill-rule="evenodd"
       id="path20" />
    <g
       transform="matrix(2 0 0 2 -350 -260)"
       id="g24">
      <path
         stroke="#666"
         stroke-width=".5"
         d="m300 286.6c0-16.6-12.8-30.5-27.5-39s-33.1-12.6-47.5-4.3c-3.6 2.1-6.6 4.8-9.2 7.9-2.5 3.1-4.6 6.7-6.2 10.5s-2.7 7.9-3.5 12.1c-0.7 4.2-1.1 8.6-1.1 12.8 0 4.3 0.4 8.6 1.1 12.8 0.8 4.2 1.9 8.3 3.5 12.1 3.7 9 9.2 17.4 14.2 22.4 3.3 3.3 6.9 6.4 10.6 9.3"
         fill="none"
         id="path22" />
    </g>
    <path
       stroke="#000"
       fill="#ed7"
       d="m436.6 363.2c-9.3 16.1-21.1 31.5-34.2 44.6-13.2 13.2-28.6 25-44.7 34.3s-34 16.7-51.9 21.5c-18 4.8-37.2 7.3-55.8 7.3s-37.8-2.5-55.8-7.3c-17.9-4.8-35.8-12.2-51.9-21.5-8.1-4.7-16-9.9-23.5-15.7-20.34-15.6-39.49-38.2-45.82-61.8-1.3-4.8-1.98-10-1.98-15s0.68-10.2 1.98-15c1.29-4.9 3.29-9.7 5.79-14 1.47-2.6 3.18-5.1 5.06-7.4-1.88-2.3-3.59-4.8-5.06-7.4-2.5-4.3-4.5-9.1-5.79-14-1.3-4.8-1.98-10-1.98-15s0.68-10.1 1.98-15c1.29-4.8 3.29-9.6 5.79-14 2.5-4.3 5.68-8.4 9.22-12 3.54-3.5 7.68-6.7 12.01-9.2 4.3-2.5 9.2-4.5 14-5.8s10-2 15-2 10.2 0.7 15 2 9.7 3.3 14 5.8 8.5 5.7 12 9.2c3.6 3.6 6.7 7.7 9.2 12 1.5 2.6 2.8 5.3 3.9 8.1 2.9-0.5 6-0.7 8.9-0.7 5 0 10.2 0.7 15 2s9.7 3.3 14 5.8 8.5 5.7 12 9.2c3.6 3.5 6.7 7.7 9.2 12s4.5 9.2 5.8 14 2 10 2 15c0 8.6 1.2 17.6 3.4 25.9s5.7 16.6 10 24.1 9.8 14.6 15.9 20.7 13.2 11.6 20.7 15.9 15.8 7.8 24.1 10c8.4 2.2 17.3 3.4 25.9 3.4s17.5-1.2 25.9-3.4c8.3-2.2 16.6-5.7 24.1-10s14.6-9.8 20.7-15.9 11.6-13.2 15.9-20.7zm-102.9 68.9c-5-0.7-10-1.7-14.8-3-10-2.7-19.9-6.8-28.9-12-9-5.1-17.5-11.7-24.9-19-7.3-7.4-13.8-15.9-19-24.9s-9.3-18.9-12-28.9-4.1-20.7-4.1-31.1c0-3.3-0.4-6.7-1.3-9.8-0.8-3.2-2.2-6.4-3.8-9.2s-3.7-5.5-6-7.9c-2.3-2.3-5.1-4.4-7.9-6s-6-3-9.2-3.8c-3.1-0.8-6.5-1.3-9.8-1.3s-6.7 0.5-9.8 1.3c-3.2 0.8-6.4 2.2-9.2 3.8-2.5 1.4-4.9 3.2-7 5.2 0.7-2.8 1-5.8 1-8.7 0-3.2-0.4-6.6-1.3-9.8-0.8-3.2-2.2-6.3-3.8-9.2-1.6-2.8-3.7-5.5-6-7.8-2.3-2.4-5.1-4.4-7.9-6.1-2.8-1.6-6-2.9-9.2-3.8-3.1-0.8-6.5-1.3-9.8-1.3s-6.7 0.5-9.8 1.3c-3.2 0.9-6.4 2.2-9.2 3.8-2.8 1.7-5.6 3.7-7.9 6.1-2.29 2.3-4.37 5-6.01 7.8-1.64 2.9-2.95 6-3.79 9.2-0.85 3.2-1.3 6.6-1.3 9.8 0 3.3 0.45 6.7 1.3 9.9 0.84 3.1 2.15 6.3 3.79 9.1 1.64 2.9 3.72 5.6 6.01 7.9 2.3 2.3 5.1 4.4 7.9 6 2.5 1.5 5.2 2.7 8 3.5-2.8 0.8-5.5 2-8 3.5-2.8 1.6-5.6 3.7-7.9 6-2.29 2.3-4.37 5-6.01 7.9-1.64 2.8-2.95 6-3.79 9.1-0.85 3.2-1.3 6.6-1.3 9.9s0.45 6.6 1.3 9.8c4.54 17 20.9 37.5 38.7 51.1 6.8 5.3 14 10 21.3 14.3 14.6 8.4 30.8 15.1 47.1 19.5 16.3 4.3 33.7 6.6 50.6 6.6s34.3-2.3 50.6-6.6c11.2-3 22.5-7.2 33.1-12.2z"
       fill-rule="evenodd"
       id="path26" />
    <path
       d="m333.7 432.1c45.1-6.6 78.1-28.5 102.9-68.9"
       stroke="#000"
       stroke-width=".38"
       fill="none"
       id="path28" />
    <path
       stroke="#666"
       d="m116.2 313.2h-56.2"
       fill="none"
       id="path30" />
  </g>
  <path
     stroke="#666"
     stroke-width=".76"
     d="m349.5 312.3h-199l99.5-172.3z"
     fill="none"
     id="path33" />
</svg>
