<?xml version="1.0" encoding="UTF-8"?>
<!DOCTYPE svg PUBLIC "-//W3C//DTD SVG 1.1//EN" "http://www.w3.org/Graphics/SVG/1.1/DTD/svg11.dtd">
<svg version="1.2" width="19.83mm" height="19.83mm" viewBox="0 0 1983 1983" preserveAspectRatio="xMidYMid" fill-rule="evenodd" stroke-width="28.222" stroke-linejoin="round" xmlns="http://www.w3.org/2000/svg" xmlns:ooo="http://xml.openoffice.org/svg/export" xmlns:xlink="http://www.w3.org/1999/xlink" xmlns:presentation="http://sun.com/xmlns/staroffice/presentation" xmlns:smil="http://www.w3.org/2001/SMIL20/" xmlns:anim="urn:oasis:names:tc:opendocument:xmlns:animation:1.0" xml:space="preserve">
 <defs class="ClipPathGroup">
  <clipPath id="presentation_clip_path" clipPathUnits="userSpaceOnUse">
   <rect x="0" y="0" width="1983" height="1983"/>
  </clipPath>
  <clipPath id="presentation_clip_path_shrink" clipPathUnits="userSpaceOnUse">
   <rect x="1" y="1" width="1980" height="1980"/>
  </clipPath>
 </defs>
 <defs class="TextShapeIndex">
  <g ooo:slide="id1" ooo:id-list="id3 id4 id5 id6 id7 id8 id9 id10 id11 id12 id13 id14 id15 id16 id17 id18 id19 id20 id21 id22 id23 id24 id25 id26 id27 id28 id29 id30 id31 id32 id33"/>
 </defs>
 <defs class="EmbeddedBulletChars">
  <g id="bullet-char-template-57356" transform="scale(0.00048828125,-0.00048828125)">
   <path d="M 580,1141 L 1163,571 580,0 -4,571 580,1141 Z"/>
  </g>
  <g id="bullet-char-template-57354" transform="scale(0.00048828125,-0.00048828125)">
   <path d="M 8,1128 L 1137,1128 1137,0 8,0 8,1128 Z"/>
  </g>
  <g id="bullet-char-template-10146" transform="scale(0.00048828125,-0.00048828125)">
   <path d="M 174,0 L 602,739 174,1481 1456,739 174,0 Z M 1358,739 L 309,1346 659,739 1358,739 Z"/>
  </g>
  <g id="bullet-char-template-10132" transform="scale(0.00048828125,-0.00048828125)">
   <path d="M 2015,739 L 1276,0 717,0 1260,543 174,543 174,936 1260,936 717,1481 1274,1481 2015,739 Z"/>
  </g>
  <g id="bullet-char-template-10007" transform="scale(0.00048828125,-0.00048828125)">
   <path d="M 0,-2 C -7,14 -16,27 -25,37 L 356,567 C 262,823 215,952 215,954 215,979 228,992 255,992 264,992 276,990 289,987 310,991 331,999 354,1012 L 381,999 492,748 772,1049 836,1024 860,1049 C 881,1039 901,1025 922,1006 886,937 835,863 770,784 769,783 710,716 594,584 L 774,223 C 774,196 753,168 711,139 L 727,119 C 717,90 699,76 672,76 641,76 570,178 457,381 L 164,-76 C 142,-110 111,-127 72,-127 30,-127 9,-110 8,-76 1,-67 -2,-52 -2,-32 -2,-23 -1,-13 0,-2 Z"/>
  </g>
  <g id="bullet-char-template-10004" transform="scale(0.00048828125,-0.00048828125)">
   <path d="M 285,-33 C 182,-33 111,30 74,156 52,228 41,333 41,471 41,549 55,616 82,672 116,743 169,778 240,778 293,778 328,747 346,684 L 369,508 C 377,444 397,411 428,410 L 1163,1116 C 1174,1127 1196,1133 1229,1133 1271,1133 1292,1118 1292,1087 L 1292,965 C 1292,929 1282,901 1262,881 L 442,47 C 390,-6 338,-33 285,-33 Z"/>
  </g>
  <g id="bullet-char-template-9679" transform="scale(0.00048828125,-0.00048828125)">
   <path d="M 813,0 C 632,0 489,54 383,161 276,268 223,411 223,592 223,773 276,916 383,1023 489,1130 632,1184 813,1184 992,1184 1136,1130 1245,1023 1353,916 1407,772 1407,592 1407,412 1353,268 1245,161 1136,54 992,0 813,0 Z"/>
  </g>
  <g id="bullet-char-template-8226" transform="scale(0.00048828125,-0.00048828125)">
   <path d="M 346,457 C 273,457 209,483 155,535 101,586 74,649 74,723 74,796 101,859 155,911 209,963 273,989 346,989 419,989 480,963 531,910 582,859 608,796 608,723 608,648 583,586 532,535 482,483 420,457 346,457 Z"/>
  </g>
  <g id="bullet-char-template-8211" transform="scale(0.00048828125,-0.00048828125)">
   <path d="M -4,459 L 1135,459 1135,606 -4,606 -4,459 Z"/>
  </g>
  <g id="bullet-char-template-61548" transform="scale(0.00048828125,-0.00048828125)">
   <path d="M 173,740 C 173,903 231,1043 346,1159 462,1274 601,1332 765,1332 928,1332 1067,1274 1183,1159 1299,1043 1357,903 1357,740 1357,577 1299,437 1183,322 1067,206 928,148 765,148 601,148 462,206 346,322 231,437 173,577 173,740 Z"/>
  </g>
 </defs>
 <g>
  <g id="id2" class="Master_Slide">
   <g id="bg-id2" class="Background"/>
   <g id="bo-id2" class="BackgroundObjects"/>
  </g>
 </g>
 <g class="SlideGroup">
  <g>
   <g id="container-id1">
    <g id="id1" class="Slide" clip-path="url(#presentation_clip_path)">
     <g class="Page">
      <g class="Group">
       <g class="com.sun.star.drawing.OpenBezierShape">
        <g id="id3">
         <rect class="BoundingBox" stroke="none" fill="none" x="-39" y="394" width="2061" height="1195"/>
         <path fill="none" stroke="rgb(0,0,0)" stroke-width="7" stroke-linejoin="miter" d="M -37,1584 L 2019,398"/>
        </g>
       </g>
       <g class="com.sun.star.drawing.OpenBezierShape">
        <g id="id4">
         <rect class="BoundingBox" stroke="none" fill="none" x="-39" y="394" width="2061" height="1195"/>
         <path fill="none" stroke="rgb(0,0,0)" stroke-width="7" stroke-linejoin="miter" d="M 2019,1584 L -37,398"/>
        </g>
       </g>
       <g class="com.sun.star.drawing.OpenBezierShape">
        <g id="id5">
         <rect class="BoundingBox" stroke="none" fill="none" x="988" y="-37" width="9" height="2058"/>
         <path fill="none" stroke="rgb(0,0,0)" stroke-width="7" stroke-linejoin="miter" d="M 992,-37 L 992,2019"/>
        </g>
       </g>
       <g class="com.sun.star.drawing.OpenBezierShape">
        <g id="id6">
         <rect class="BoundingBox" stroke="none" fill="none" x="360" y="939" width="186" height="315"/>
         <path fill="none" stroke="rgb(0,0,0)" stroke-width="7" stroke-linejoin="miter" d="M 364,942 L 542,1250"/>
        </g>
       </g>
       <g class="com.sun.star.drawing.ClosedBezierShape">
        <g id="id7">
         <rect class="BoundingBox" stroke="none" fill="none" x="988" y="856" width="973" height="850"/>
         <path fill="rgb(238,221,119)" stroke="none" d="M 1218,860 C 1198,872 1180,886 1164,902 1148,918 1133,936 1122,956 1111,975 1102,996 1096,1018 1090,1040 1087,1064 1087,1086 1087,1109 1090,1133 1096,1154 1102,1176 1111,1198 1122,1217 1129,1229 1137,1240 1145,1250 1137,1260 1129,1272 1122,1283 1111,1303 1102,1324 1096,1346 1090,1368 1087,1392 1087,1414 1087,1436 1090,1461 1096,1482 1102,1504 1111,1526 1122,1545 1133,1565 1148,1583 1164,1599 1180,1615 1199,1629 1218,1641 1238,1652 1259,1661 1281,1667 1303,1672 1326,1676 1349,1676 1372,1675 1395,1672 1416,1667 1439,1661 1461,1653 1480,1641 1500,1630 1518,1615 1534,1599 1550,1583 1564,1564 1575,1545 1582,1533 1588,1521 1593,1508 1606,1511 1620,1512 1633,1511 1656,1512 1679,1509 1701,1502 1723,1497 1745,1488 1764,1476 1784,1465 1802,1451 1818,1435 1896,1357 1941,1231 1956,1116 1950,1159 1942,1201 1931,1241 1910,1322 1876,1403 1834,1475 1815,1509 1790,1541 1763,1569 1735,1596 1703,1622 1669,1641 1635,1661 1598,1675 1560,1686 1523,1696 1483,1701 1444,1701 1405,1701 1365,1696 1327,1686 1290,1676 1252,1660 1218,1641 1184,1621 1152,1596 1125,1569 1097,1541 1073,1509 1053,1475 1034,1442 1018,1404 1008,1367 998,1329 993,1289 992,1250 992,1211 998,1171 1008,1133 1018,1096 1034,1058 1053,1024 1073,991 1097,959 1124,932 1152,904 1184,880 1218,860 Z"/>
         <path fill="none" stroke="rgb(0,0,0)" stroke-width="7" stroke-linejoin="miter" d="M 1218,860 C 1198,872 1180,886 1164,902 1148,918 1133,936 1122,956 1111,975 1102,996 1096,1018 1090,1040 1087,1064 1087,1086 1087,1109 1090,1133 1096,1154 1102,1176 1111,1198 1122,1217 1129,1229 1137,1240 1145,1250 1137,1260 1129,1272 1122,1283 1111,1303 1102,1324 1096,1346 1090,1368 1087,1392 1087,1414 1087,1436 1090,1461 1096,1482 1102,1504 1111,1526 1122,1545 1133,1565 1148,1583 1164,1599 1180,1615 1199,1629 1218,1641 1238,1652 1259,1661 1281,1667 1303,1672 1326,1676 1349,1676 1372,1675 1395,1672 1416,1667 1439,1661 1461,1653 1480,1641 1500,1630 1518,1615 1534,1599 1550,1583 1564,1564 1575,1545 1582,1533 1588,1521 1593,1508 1606,1511 1620,1512 1633,1511 1656,1512 1679,1509 1701,1502 1723,1497 1745,1488 1764,1476 1784,1465 1802,1451 1818,1435 1896,1357 1941,1231 1956,1116 1950,1159 1942,1201 1931,1241 1910,1322 1876,1403 1834,1475 1815,1509 1790,1541 1763,1569 1735,1596 1703,1622 1669,1641 1635,1661 1598,1675 1560,1686 1523,1696 1483,1701 1444,1701 1405,1701 1365,1696 1327,1686 1290,1676 1252,1660 1218,1641 1184,1621 1152,1596 1125,1569 1097,1541 1073,1509 1053,1475 1034,1442 1018,1404 1008,1367 998,1329 993,1289 992,1250 992,1211 998,1171 1008,1133 1018,1096 1034,1058 1053,1024 1073,991 1097,959 1124,932 1152,904 1184,880 1218,860 Z"/>
        </g>
       </g>
       <g class="com.sun.star.drawing.ClosedBezierShape">
        <g id="id8">
         <rect class="BoundingBox" stroke="none" fill="none" x="988" y="856" width="973" height="850"/>
         <path fill="none" stroke="rgb(0,0,0)" stroke-width="7" stroke-linejoin="miter" d="M 1218,860 C 1198,872 1180,886 1164,902 1148,918 1133,936 1122,956 1111,975 1102,996 1096,1018 1090,1040 1087,1064 1087,1086 1087,1109 1090,1133 1096,1154 1102,1176 1111,1198 1122,1217 1129,1229 1137,1240 1145,1250 1137,1260 1129,1272 1122,1283 1111,1303 1102,1324 1096,1346 1090,1368 1087,1392 1087,1414 1087,1436 1090,1461 1096,1482 1102,1504 1111,1526 1122,1545 1133,1565 1148,1583 1164,1599 1180,1615 1199,1629 1218,1641 1238,1652 1259,1661 1281,1667 1303,1672 1326,1676 1349,1676 1372,1675 1395,1672 1416,1667 1439,1661 1461,1653 1480,1641 1500,1630 1518,1615 1534,1599 1550,1583 1564,1564 1575,1545 1582,1533 1588,1521 1593,1508 1606,1511 1620,1512 1633,1511 1656,1512 1679,1509 1701,1502 1723,1497 1745,1488 1764,1476 1784,1465 1802,1451 1818,1435 1896,1357 1941,1231 1956,1116 1950,1159 1942,1201 1931,1241 1910,1322 1876,1403 1834,1475 1815,1509 1790,1541 1763,1569 1735,1596 1703,1622 1669,1641 1635,1661 1598,1675 1560,1686 1523,1696 1483,1701 1444,1701 1405,1701 1365,1696 1327,1686 1290,1676 1252,1660 1218,1641 1184,1621 1152,1596 1125,1569 1097,1541 1073,1509 1053,1475 1034,1442 1018,1404 1008,1367 998,1329 993,1289 992,1250 992,1211 998,1171 1008,1133 1018,1096 1034,1058 1053,1024 1073,991 1097,959 1124,932 1152,904 1184,880 1218,860 Z"/>
        </g>
       </g>
       <g class="com.sun.star.drawing.OpenBezierShape">
        <g id="id9">
         <rect class="BoundingBox" stroke="none" fill="none" x="1033" y="856" width="928" height="830"/>
         <path fill="none" stroke="rgb(0,0,0)" stroke-width="7" stroke-linejoin="miter" d="M 1218,860 C 1088,935 1037,1097 1037,1250 1037,1403 1088,1565 1218,1641 1251,1659 1285,1670 1321,1677 1357,1682 1394,1683 1431,1678 1468,1674 1505,1663 1542,1651 1578,1637 1614,1620 1647,1601 1680,1582 1712,1560 1742,1535 1771,1510 1798,1483 1820,1453 1874,1384 1915,1303 1931,1241 1942,1201 1950,1158 1956,1116"/>
        </g>
       </g>
       <g class="com.sun.star.drawing.ClosedBezierShape">
        <g id="id10">
         <rect class="BoundingBox" stroke="none" fill="none" x="988" y="15" width="981" height="1666"/>
         <path fill="rgb(238,221,119)" stroke="none" d="M 992,19 C 1076,19 1163,30 1244,52 1325,73 1407,107 1479,149 1552,191 1621,244 1680,303 1739,363 1792,432 1834,505 1876,577 1910,658 1931,739 1953,820 1964,906 1964,990 1964,1031 1962,1074 1956,1116 1941,1231 1896,1357 1818,1435 1802,1451 1784,1465 1764,1476 1745,1488 1723,1497 1701,1502 1679,1509 1656,1512 1633,1511 1620,1512 1606,1511 1593,1508 1588,1521 1582,1533 1575,1545 1564,1564 1550,1583 1534,1599 1518,1615 1500,1630 1480,1641 1461,1653 1439,1661 1416,1667 1395,1672 1372,1675 1349,1676 1326,1676 1303,1672 1281,1667 1259,1661 1238,1652 1218,1641 1199,1629 1180,1615 1164,1599 1148,1583 1133,1565 1122,1545 1111,1526 1102,1504 1096,1482 1090,1461 1087,1436 1087,1414 1087,1392 1090,1368 1096,1346 1102,1324 1111,1303 1122,1283 1129,1272 1137,1260 1145,1250 1137,1240 1129,1229 1122,1217 1111,1198 1102,1175 1096,1154 1090,1132 1087,1109 1087,1086 1087,1064 1090,1040 1096,1018 1102,996 1111,975 1122,956 1133,936 1148,918 1164,902 1180,886 1198,871 1218,860 1252,840 1285,816 1312,789 1340,761 1363,729 1383,695 1403,661 1418,623 1428,586 1438,548 1445,509 1444,470 1444,431 1438,390 1428,353 1418,315 1402,278 1383,244 1364,210 1339,178 1311,151 1284,123 1252,99 1218,79 1184,59 1147,44 1109,34 1072,24 1031,18 992,19 Z M 1494,265 C 1502,286 1510,308 1515,330 1527,375 1534,423 1534,470 1534,516 1527,564 1516,610 1503,655 1485,699 1461,740 1438,780 1408,819 1375,852 1342,885 1304,914 1263,938 1250,945 1238,955 1228,966 1217,976 1208,988 1200,1000 1193,1013 1187,1027 1183,1041 1179,1056 1177,1072 1177,1086 1177,1101 1179,1116 1183,1130 1187,1144 1193,1160 1200,1172 1208,1185 1217,1197 1228,1207 1238,1218 1251,1227 1263,1234 1274,1241 1287,1246 1299,1250 1287,1253 1274,1260 1263,1266 1252,1274 1238,1282 1228,1293 1217,1303 1208,1316 1200,1328 1193,1341 1187,1355 1183,1369 1179,1384 1178,1399 1177,1414 1177,1429 1180,1444 1183,1459 1187,1472 1193,1487 1200,1500 1208,1513 1217,1525 1227,1535 1238,1546 1250,1555 1263,1562 1276,1570 1290,1576 1305,1580 1319,1583 1334,1585 1349,1585 1364,1585 1379,1583 1393,1579 1408,1576 1422,1570 1434,1562 1447,1555 1460,1546 1470,1535 1480,1525 1490,1512 1497,1500 1505,1487 1511,1473 1514,1458 1518,1444 1520,1429 1520,1414 1520,1401 1519,1388 1516,1375 1525,1384 1536,1392 1547,1398 1560,1406 1575,1412 1589,1416 1603,1419 1618,1421 1633,1421 1648,1421 1663,1419 1677,1416 1692,1412 1706,1406 1719,1398 1732,1391 1744,1382 1754,1371 1810,1315 1854,1205 1866,1105 1872,1066 1874,1027 1874,990 1874,914 1864,836 1844,762 1824,689 1794,616 1756,550 1718,484 1670,421 1616,367 1579,330 1537,295 1494,265 Z"/>
         <path fill="none" stroke="rgb(0,0,0)" stroke-width="7" stroke-linejoin="miter" d="M 992,19 C 1076,19 1163,30 1244,52 1325,73 1407,107 1479,149 1552,191 1621,244 1680,303 1739,363 1792,432 1834,505 1876,577 1910,658 1931,739 1953,820 1964,906 1964,990 1964,1031 1962,1074 1956,1116 1941,1231 1896,1357 1818,1435 1802,1451 1784,1465 1764,1476 1745,1488 1723,1497 1701,1502 1679,1509 1656,1512 1633,1511 1620,1512 1606,1511 1593,1508 1588,1521 1582,1533 1575,1545 1564,1564 1550,1583 1534,1599 1518,1615 1500,1630 1480,1641 1461,1653 1439,1661 1416,1667 1395,1672 1372,1675 1349,1676 1326,1676 1303,1672 1281,1667 1259,1661 1238,1652 1218,1641 1199,1629 1180,1615 1164,1599 1148,1583 1133,1565 1122,1545 1111,1526 1102,1504 1096,1482 1090,1461 1087,1436 1087,1414 1087,1392 1090,1368 1096,1346 1102,1324 1111,1303 1122,1283 1129,1272 1137,1260 1145,1250 1137,1240 1129,1229 1122,1217 1111,1198 1102,1175 1096,1154 1090,1132 1087,1109 1087,1086 1087,1064 1090,1040 1096,1018 1102,996 1111,975 1122,956 1133,936 1148,918 1164,902 1180,886 1198,871 1218,860 1252,840 1285,816 1312,789 1340,761 1363,729 1383,695 1403,661 1418,623 1428,586 1438,548 1445,509 1444,470 1444,431 1438,390 1428,353 1418,315 1402,278 1383,244 1364,210 1339,178 1311,151 1284,123 1252,99 1218,79 1184,59 1147,44 1109,34 1072,24 1031,18 992,19 Z"/>
         <path fill="none" stroke="rgb(0,0,0)" stroke-width="7" stroke-linejoin="miter" d="M 1494,265 C 1502,286 1510,308 1515,330 1527,375 1534,423 1534,470 1534,516 1527,564 1516,610 1503,655 1485,699 1461,740 1438,780 1408,819 1375,852 1342,885 1304,914 1263,938 1250,945 1238,955 1228,966 1217,976 1208,988 1200,1000 1193,1013 1187,1027 1183,1041 1179,1056 1177,1072 1177,1086 1177,1101 1179,1116 1183,1130 1187,1144 1193,1160 1200,1172 1208,1185 1217,1197 1228,1207 1238,1218 1251,1227 1263,1234 1274,1241 1287,1246 1299,1250 1287,1253 1274,1260 1263,1266 1252,1274 1238,1282 1228,1293 1217,1303 1208,1316 1200,1328 1193,1341 1187,1355 1183,1369 1179,1384 1178,1399 1177,1414 1177,1429 1180,1444 1183,1459 1187,1472 1193,1487 1200,1500 1208,1513 1217,1525 1227,1535 1238,1546 1250,1555 1263,1562 1276,1570 1290,1576 1305,1580 1319,1583 1334,1585 1349,1585 1364,1585 1379,1583 1393,1579 1408,1576 1422,1570 1434,1562 1447,1555 1460,1546 1470,1535 1480,1525 1490,1512 1497,1500 1505,1487 1511,1473 1514,1458 1518,1444 1520,1429 1520,1414 1520,1401 1519,1388 1516,1375 1525,1384 1536,1392 1547,1398 1560,1406 1575,1412 1589,1416 1603,1419 1618,1421 1633,1421 1648,1421 1663,1419 1677,1416 1692,1412 1706,1406 1719,1398 1732,1391 1744,1382 1754,1371 1810,1315 1854,1205 1866,1105 1872,1066 1874,1027 1874,990 1874,914 1864,836 1844,762 1824,689 1794,616 1756,550 1718,484 1670,421 1616,367 1579,330 1537,295 1494,265 Z"/>
        </g>
       </g>
       <g class="com.sun.star.drawing.ClosedBezierShape">
        <g id="id11">
         <rect class="BoundingBox" stroke="none" fill="none" x="992" y="15" width="977" height="1666"/>
         <path fill="none" stroke="rgb(0,0,0)" stroke-width="7" stroke-linejoin="miter" d="M 992,19 C 1076,19 1163,30 1244,52 1325,73 1407,107 1479,149 1552,191 1621,244 1680,303 1739,363 1792,432 1834,505 1876,577 1910,658 1931,739 1953,820 1964,906 1964,990 1964,1031 1962,1074 1956,1116 1941,1231 1896,1357 1818,1435 1802,1451 1784,1465 1764,1476 1745,1488 1723,1497 1701,1502 1679,1509 1656,1512 1633,1511 1620,1512 1606,1511 1593,1508 1588,1521 1582,1533 1575,1545 1564,1564 1550,1583 1534,1599 1518,1615 1500,1630 1480,1641 1461,1653 1439,1661 1416,1667 1395,1672 1372,1675 1349,1676 1326,1676 1303,1672 1281,1667 1259,1661 1238,1652 1218,1641 1199,1629 1180,1615 1164,1599 1148,1583 1133,1565 1122,1545 1111,1526 1102,1504 1096,1482 1090,1461 1087,1436 1087,1414 1087,1392 1090,1368 1096,1346 1102,1324 1111,1303 1122,1283 1129,1272 1137,1260 1145,1250 1137,1240 1129,1229 1122,1217 1111,1198 1102,1175 1096,1154 1090,1132 1087,1109 1087,1086 1087,1064 1090,1040 1096,1018 1102,996 1111,975 1122,956 1133,936 1148,918 1164,902 1180,886 1198,871 1218,860 1252,840 1285,816 1312,789 1340,761 1363,729 1383,695 1403,661 1418,623 1428,586 1438,548 1445,509 1444,470 1444,431 1438,390 1428,353 1418,315 1402,278 1383,244 1364,210 1339,178 1311,151 1284,123 1252,99 1218,79 1184,59 1147,44 1109,34 1072,24 1031,18 992,19 Z"/>
        </g>
       </g>
       <g class="com.sun.star.drawing.ClosedBezierShape">
        <g id="id12">
         <rect class="BoundingBox" stroke="none" fill="none" x="1173" y="255" width="706" height="1335"/>
         <path fill="none" stroke="rgb(0,0,0)" stroke-width="7" stroke-linejoin="miter" d="M 1494,265 C 1502,286 1510,308 1515,330 1527,375 1534,423 1534,470 1534,516 1527,564 1516,610 1503,655 1485,699 1461,740 1438,780 1408,819 1375,852 1342,885 1304,914 1263,938 1250,945 1238,955 1228,966 1217,976 1208,988 1200,1000 1193,1013 1187,1027 1183,1041 1179,1056 1177,1072 1177,1086 1177,1101 1179,1116 1183,1130 1187,1144 1193,1160 1200,1172 1208,1185 1217,1197 1228,1207 1238,1218 1251,1227 1263,1234 1274,1241 1287,1246 1299,1250 1287,1253 1274,1260 1263,1266 1252,1274 1238,1282 1228,1293 1217,1303 1208,1316 1200,1328 1193,1341 1187,1355 1183,1369 1179,1384 1178,1399 1177,1414 1177,1429 1180,1444 1183,1459 1187,1472 1193,1487 1200,1500 1208,1513 1217,1525 1227,1535 1238,1546 1250,1555 1263,1562 1276,1570 1290,1576 1305,1580 1319,1583 1334,1585 1349,1585 1364,1585 1379,1583 1393,1579 1408,1576 1422,1570 1434,1562 1447,1555 1460,1546 1470,1535 1480,1525 1490,1512 1497,1500 1505,1487 1511,1473 1514,1458 1518,1444 1520,1429 1520,1414 1520,1401 1519,1388 1516,1375 1525,1384 1536,1392 1547,1398 1560,1406 1575,1412 1589,1416 1603,1419 1618,1421 1633,1421 1648,1421 1663,1419 1677,1416 1692,1412 1706,1406 1719,1398 1732,1391 1744,1382 1754,1371 1810,1315 1854,1205 1866,1105 1872,1066 1874,1027 1874,990 1874,914 1864,836 1844,762 1824,689 1794,616 1756,550 1718,484 1670,421 1616,367 1579,330 1537,295 1494,265 Z"/>
        </g>
       </g>
       <g class="com.sun.star.drawing.OpenBezierShape">
        <g id="id13">
         <rect class="BoundingBox" stroke="none" fill="none" x="992" y="15" width="506" height="254"/>
         <path fill="none" stroke="rgb(0,0,0)" stroke-width="7" stroke-linejoin="miter" d="M 1494,265 C 1366,104 1206,24 992,19"/>
        </g>
       </g>
       <g class="com.sun.star.drawing.OpenBezierShape">
        <g id="id14">
         <rect class="BoundingBox" stroke="none" fill="none" x="1517" y="1380" width="135" height="224"/>
         <path fill="none" stroke="rgb(0,0,0)" stroke-width="7" stroke-linejoin="miter" d="M 1520,1382 L 1647,1601"/>
        </g>
       </g>
       <g class="com.sun.star.drawing.OpenBezierShape">
        <g id="id15">
         <rect class="BoundingBox" stroke="none" fill="none" x="1258" y="1248" width="187" height="313"/>
         <path fill="none" stroke="rgb(0,0,0)" stroke-width="7" stroke-linejoin="miter" d="M 1261,1558 L 1440,1250"/>
        </g>
       </g>
       <g class="com.sun.star.drawing.ClosedBezierShape">
        <g id="id16">
         <rect class="BoundingBox" stroke="none" fill="none" x="614" y="15" width="831" height="911"/>
         <path fill="rgb(238,221,119)" stroke="none" d="M 764,860 C 784,872 805,880 827,886 849,891 872,895 895,895 917,895 941,892 963,886 984,881 1006,871 1025,860 1045,849 1063,834 1079,819 1095,803 1109,783 1120,764 1127,752 1133,741 1138,728 1151,730 1165,731 1178,731 1201,731 1224,727 1246,722 1267,716 1290,707 1309,696 1329,685 1347,670 1363,655 1379,639 1394,619 1405,600 1417,580 1426,558 1431,537 1437,515 1440,492 1440,470 1440,447 1436,424 1431,402 1425,380 1416,358 1405,339 1393,319 1379,301 1363,285 1347,269 1329,254 1309,243 1290,232 1268,223 1246,217 1224,211 1201,208 1178,208 1165,208 1151,209 1138,211 1133,199 1127,186 1120,175 1109,155 1095,137 1079,120 1063,105 1045,90 1025,79 1006,68 984,59 962,53 856,24 725,48 618,92 657,76 698,62 738,52 819,30 906,18 990,19 1028,19 1068,24 1105,34 1143,44 1181,60 1214,79 1248,98 1280,123 1308,151 1335,178 1360,210 1379,244 1399,278 1414,315 1424,353 1434,390 1440,431 1440,470 1440,509 1434,549 1424,586 1414,624 1399,661 1379,695 1360,728 1335,761 1308,789 1280,816 1248,840 1214,860 1180,879 1143,895 1105,905 1068,915 1028,921 990,921 951,921 910,915 873,905 835,895 798,880 764,860 Z"/>
         <path fill="none" stroke="rgb(0,0,0)" stroke-width="7" stroke-linejoin="miter" d="M 764,860 C 784,872 805,880 827,886 849,891 872,895 895,895 917,895 941,892 963,886 984,881 1006,871 1025,860 1045,849 1063,834 1079,819 1095,803 1109,783 1120,764 1127,752 1133,741 1138,728 1151,730 1165,731 1178,731 1201,731 1224,727 1246,722 1267,716 1290,707 1309,696 1329,685 1347,670 1363,655 1379,639 1394,619 1405,600 1417,580 1426,558 1431,537 1437,515 1440,492 1440,470 1440,447 1436,424 1431,402 1425,380 1416,358 1405,339 1393,319 1379,301 1363,285 1347,269 1329,254 1309,243 1290,232 1268,223 1246,217 1224,211 1201,208 1178,208 1165,208 1151,209 1138,211 1133,199 1127,186 1120,175 1109,155 1095,137 1079,120 1063,105 1045,90 1025,79 1006,68 984,59 962,53 856,24 725,48 618,92 657,76 698,62 738,52 819,30 906,18 990,19 1028,19 1068,24 1105,34 1143,44 1181,60 1214,79 1248,98 1280,123 1308,151 1335,178 1360,210 1379,244 1399,278 1414,315 1424,353 1434,390 1440,431 1440,470 1440,509 1434,549 1424,586 1414,624 1399,661 1379,695 1360,728 1335,761 1308,789 1280,816 1248,840 1214,860 1180,879 1143,895 1105,905 1068,915 1028,921 990,921 951,921 910,915 873,905 835,895 798,880 764,860 Z"/>
        </g>
       </g>
       <g class="com.sun.star.drawing.ClosedBezierShape">
        <g id="id17">
         <rect class="BoundingBox" stroke="none" fill="none" x="616" y="15" width="829" height="911"/>
         <path fill="none" stroke="rgb(0,0,0)" stroke-width="7" stroke-linejoin="miter" d="M 764,860 C 784,872 805,880 827,886 849,891 872,895 895,895 917,895 941,892 963,886 984,881 1006,871 1025,860 1045,849 1063,834 1079,819 1095,803 1109,783 1120,764 1127,752 1133,741 1138,728 1151,730 1165,731 1178,731 1201,731 1224,727 1246,722 1267,716 1290,707 1309,696 1329,685 1347,670 1363,655 1379,639 1394,619 1405,600 1417,580 1426,558 1431,537 1437,515 1440,492 1440,470 1440,447 1436,424 1431,402 1425,380 1416,358 1405,339 1393,319 1379,301 1363,285 1347,269 1329,254 1309,243 1290,232 1268,223 1246,217 1224,211 1201,208 1178,208 1165,208 1151,209 1138,211 1133,199 1127,186 1120,175 1109,155 1095,137 1079,120 1063,105 1045,90 1025,79 1006,68 984,59 962,53 856,24 725,48 618,92 657,76 698,62 738,52 819,30 906,18 990,19 1028,19 1068,24 1105,34 1143,44 1181,60 1214,79 1248,98 1280,123 1308,151 1335,178 1360,210 1379,244 1399,278 1414,315 1424,353 1434,390 1440,431 1440,470 1440,509 1434,549 1424,586 1414,624 1399,661 1379,695 1360,728 1335,761 1308,789 1280,816 1248,840 1214,860 1180,879 1143,895 1105,905 1068,915 1028,921 990,921 951,921 910,915 873,905 835,895 798,880 764,860 Z"/>
        </g>
       </g>
       <g class="com.sun.star.drawing.OpenBezierShape">
        <g id="id18">
         <rect class="BoundingBox" stroke="none" fill="none" x="616" y="32" width="829" height="873"/>
         <path fill="none" stroke="rgb(0,0,0)" stroke-width="7" stroke-linejoin="miter" d="M 764,860 C 894,935 1060,897 1192,821 1325,744 1440,620 1440,470 1439,432 1432,396 1419,362 1406,329 1388,295 1365,266 1343,236 1316,210 1287,184 1257,160 1225,136 1192,118 1159,99 1123,82 1087,69 1050,56 1013,46 977,42 890,30 800,36 738,52 698,63 657,77 618,92"/>
        </g>
       </g>
       <g class="com.sun.star.drawing.ClosedBezierShape">
        <g id="id19">
         <rect class="BoundingBox" stroke="none" fill="none" x="14" y="36" width="1431" height="1444"/>
         <path fill="rgb(238,221,119)" stroke="none" d="M 148,1475 C 106,1403 72,1322 51,1241 29,1160 18,1073 18,990 18,906 29,820 51,739 72,658 106,577 148,505 190,432 243,363 302,303 361,244 431,191 503,149 540,128 578,109 618,92 725,48 856,24 962,53 984,59 1006,68 1025,79 1045,90 1063,105 1079,120 1095,137 1109,155 1120,175 1127,186 1133,199 1138,211 1151,209 1165,208 1178,208 1201,208 1224,211 1246,217 1268,223 1290,232 1309,243 1329,254 1347,269 1363,285 1379,301 1393,319 1405,339 1416,358 1425,380 1431,402 1436,424 1440,447 1440,470 1440,492 1437,515 1431,537 1426,558 1417,580 1405,600 1394,619 1379,639 1363,655 1347,670 1329,685 1309,696 1290,707 1267,716 1246,722 1224,727 1201,731 1178,731 1165,731 1151,730 1138,728 1133,741 1127,752 1120,764 1109,783 1095,803 1079,819 1063,834 1045,849 1025,860 1006,871 984,881 963,886 941,892 917,895 895,895 872,895 849,891 827,886 805,880 784,871 764,860 730,840 692,825 655,815 617,805 577,800 538,800 499,800 459,805 422,815 384,825 347,840 313,860 279,879 247,904 220,932 192,960 167,991 148,1024 128,1058 113,1095 103,1133 93,1171 87,1211 87,1250 87,1289 93,1330 103,1367 113,1405 128,1442 148,1475 Z M 111,919 C 125,901 140,884 156,868 189,835 227,806 268,782 308,758 353,740 398,728 444,716 491,710 538,710 584,710 632,716 678,728 723,740 768,758 809,782 822,789 836,796 850,799 865,803 880,805 895,805 909,805 925,803 939,799 953,796 967,789 980,782 992,775 1005,765 1015,755 1025,744 1035,732 1042,719 1050,706 1055,692 1059,678 1063,664 1065,648 1065,634 1065,621 1064,607 1061,595 1070,604 1081,612 1092,618 1105,625 1119,631 1134,635 1148,639 1163,641 1178,641 1193,641 1208,639 1222,635 1237,632 1251,625 1264,618 1276,611 1289,601 1299,591 1309,580 1320,568 1327,555 1335,542 1340,528 1344,514 1347,500 1349,484 1349,470 1349,455 1348,439 1343,425 1340,411 1334,397 1327,384 1319,371 1310,359 1299,348 1289,338 1276,328 1264,321 1251,314 1237,308 1222,304 1208,300 1193,298 1178,298 1163,298 1148,300 1134,304 1120,308 1105,314 1092,321 1081,328 1070,335 1061,345 1064,332 1065,319 1065,305 1065,291 1063,275 1059,261 1056,247 1050,233 1042,220 1035,207 1025,195 1015,184 1005,174 992,164 980,157 967,150 954,144 939,140 863,119 746,137 652,176 616,191 582,208 548,227 483,265 420,313 366,367 312,421 264,484 226,550 188,616 158,689 138,762 124,813 115,866 111,919 Z"/>
         <path fill="none" stroke="rgb(0,0,0)" stroke-width="7" stroke-linejoin="miter" d="M 148,1475 C 106,1403 72,1322 51,1241 29,1160 18,1073 18,990 18,906 29,820 51,739 72,658 106,577 148,505 190,432 243,363 302,303 361,244 431,191 503,149 540,128 578,109 618,92 725,48 856,24 962,53 984,59 1006,68 1025,79 1045,90 1063,105 1079,120 1095,137 1109,155 1120,175 1127,186 1133,199 1138,211 1151,209 1165,208 1178,208 1201,208 1224,211 1246,217 1268,223 1290,232 1309,243 1329,254 1347,269 1363,285 1379,301 1393,319 1405,339 1416,358 1425,380 1431,402 1436,424 1440,447 1440,470 1440,492 1437,515 1431,537 1426,558 1417,580 1405,600 1394,619 1379,639 1363,655 1347,670 1329,685 1309,696 1290,707 1267,716 1246,722 1224,727 1201,731 1178,731 1165,731 1151,730 1138,728 1133,741 1127,752 1120,764 1109,783 1095,803 1079,819 1063,834 1045,849 1025,860 1006,871 984,881 963,886 941,892 917,895 895,895 872,895 849,891 827,886 805,880 784,871 764,860 730,840 692,825 655,815 617,805 577,800 538,800 499,800 459,805 422,815 384,825 347,840 313,860 279,879 247,904 220,932 192,960 167,991 148,1024 128,1058 113,1095 103,1133 93,1171 87,1211 87,1250 87,1289 93,1330 103,1367 113,1405 128,1442 148,1475 Z"/>
         <path fill="none" stroke="rgb(0,0,0)" stroke-width="7" stroke-linejoin="miter" d="M 111,919 C 125,901 140,884 156,868 189,835 227,806 268,782 308,758 353,740 398,728 444,716 491,710 538,710 584,710 632,716 678,728 723,740 768,758 809,782 822,789 836,796 850,799 865,803 880,805 895,805 909,805 925,803 939,799 953,796 967,789 980,782 992,775 1005,765 1015,755 1025,744 1035,732 1042,719 1050,706 1055,692 1059,678 1063,664 1065,648 1065,634 1065,621 1064,607 1061,595 1070,604 1081,612 1092,618 1105,625 1119,631 1134,635 1148,639 1163,641 1178,641 1193,641 1208,639 1222,635 1237,632 1251,625 1264,618 1276,611 1289,601 1299,591 1309,580 1320,568 1327,555 1335,542 1340,528 1344,514 1347,500 1349,484 1349,470 1349,455 1348,439 1343,425 1340,411 1334,397 1327,384 1319,371 1310,359 1299,348 1289,338 1276,328 1264,321 1251,314 1237,308 1222,304 1208,300 1193,298 1178,298 1163,298 1148,300 1134,304 1120,308 1105,314 1092,321 1081,328 1070,335 1061,345 1064,332 1065,319 1065,305 1065,291 1063,275 1059,261 1056,247 1050,233 1042,220 1035,207 1025,195 1015,184 1005,174 992,164 980,157 967,150 954,144 939,140 863,119 746,137 652,176 616,191 582,208 548,227 483,265 420,313 366,367 312,421 264,484 226,550 188,616 158,689 138,762 124,813 115,866 111,919 Z"/>
        </g>
       </g>
       <g class="com.sun.star.drawing.ClosedBezierShape">
        <g id="id20">
         <rect class="BoundingBox" stroke="none" fill="none" x="14" y="36" width="1431" height="1443"/>
         <path fill="none" stroke="rgb(0,0,0)" stroke-width="7" stroke-linejoin="miter" d="M 148,1475 C 106,1403 72,1322 51,1241 29,1160 18,1073 18,990 18,906 29,820 51,739 72,658 106,577 148,505 190,432 243,363 302,303 361,244 431,191 503,149 540,128 578,109 618,92 725,48 856,24 962,53 984,59 1006,68 1025,79 1045,90 1063,105 1079,120 1095,137 1109,155 1120,175 1127,186 1133,199 1138,211 1151,209 1165,208 1178,208 1201,208 1224,211 1246,217 1268,223 1290,232 1309,243 1329,254 1347,269 1363,285 1379,301 1393,319 1405,339 1416,358 1425,380 1431,402 1436,424 1440,447 1440,470 1440,492 1437,515 1431,537 1426,558 1417,580 1405,600 1394,619 1379,639 1363,655 1347,670 1329,685 1309,696 1290,707 1267,716 1246,722 1224,727 1201,731 1178,731 1165,731 1151,730 1138,728 1133,741 1127,752 1120,764 1109,783 1095,803 1079,819 1063,834 1045,849 1025,860 1006,871 984,881 963,886 941,892 917,895 895,895 872,895 849,891 827,886 805,880 784,871 764,860 730,840 692,825 655,815 617,805 577,800 538,800 499,800 459,805 422,815 384,825 347,840 313,860 279,879 247,904 220,932 192,960 167,991 148,1024 128,1058 113,1095 103,1133 93,1171 87,1211 87,1250 87,1289 93,1330 103,1367 113,1405 128,1442 148,1475 Z"/>
        </g>
       </g>
       <g class="com.sun.star.drawing.ClosedBezierShape">
        <g id="id21">
         <rect class="BoundingBox" stroke="none" fill="none" x="106" y="127" width="1248" height="804"/>
         <path fill="none" stroke="rgb(0,0,0)" stroke-width="7" stroke-linejoin="miter" d="M 111,919 C 125,901 140,884 156,868 189,835 227,806 268,782 308,758 353,740 398,728 444,716 491,710 538,710 584,710 632,716 678,728 723,740 768,758 809,782 822,789 836,796 850,799 865,803 880,805 895,805 909,805 925,803 939,799 953,796 967,789 980,782 992,775 1005,765 1015,755 1025,744 1035,732 1042,719 1050,706 1055,692 1059,678 1063,664 1065,648 1065,634 1065,621 1064,607 1061,595 1070,604 1081,612 1092,618 1105,625 1119,631 1134,635 1148,639 1163,641 1178,641 1193,641 1208,639 1222,635 1237,632 1251,625 1264,618 1276,611 1289,601 1299,591 1309,580 1320,568 1327,555 1335,542 1340,528 1344,514 1347,500 1349,484 1349,470 1349,455 1348,439 1343,425 1340,411 1334,397 1327,384 1319,371 1310,359 1299,348 1289,338 1276,328 1264,321 1251,314 1237,308 1222,304 1208,300 1193,298 1178,298 1163,298 1148,300 1134,304 1120,308 1105,314 1092,321 1081,328 1070,335 1061,345 1064,332 1065,319 1065,305 1065,291 1063,275 1059,261 1056,247 1050,233 1042,220 1035,207 1025,195 1015,184 1005,174 992,164 980,157 967,150 954,144 939,140 863,119 746,137 652,176 616,191 582,208 548,227 483,265 420,313 366,367 312,421 264,484 226,550 188,616 158,689 138,762 124,813 115,866 111,919 Z"/>
        </g>
       </g>
       <g class="com.sun.star.drawing.OpenBezierShape">
        <g id="id22">
         <rect class="BoundingBox" stroke="none" fill="none" x="57" y="917" width="95" height="561"/>
         <path fill="none" stroke="rgb(0,0,0)" stroke-width="7" stroke-linejoin="miter" d="M 111,919 C 35,1109 46,1287 148,1475"/>
        </g>
       </g>
       <g class="com.sun.star.drawing.OpenBezierShape">
        <g id="id23">
         <rect class="BoundingBox" stroke="none" fill="none" x="1062" y="116" width="135" height="225"/>
         <path fill="none" stroke="rgb(0,0,0)" stroke-width="7" stroke-linejoin="miter" d="M 1065,338 L 1192,118"/>
        </g>
       </g>
       <g class="com.sun.star.drawing.OpenBezierShape">
        <g id="id24">
         <rect class="BoundingBox" stroke="none" fill="none" x="991" y="469" width="358" height="9"/>
         <path fill="none" stroke="rgb(0,0,0)" stroke-width="7" stroke-linejoin="miter" d="M 1347,473 L 992,473"/>
        </g>
       </g>
       <g class="com.sun.star.drawing.ClosedBezierShape">
        <g id="id25">
         <rect class="BoundingBox" stroke="none" fill="none" x="85" y="799" width="911" height="970"/>
         <path fill="rgb(238,221,119)" stroke="none" d="M 992,1253 C 992,1230 987,1207 982,1185 976,1164 967,1142 956,1122 944,1103 931,1084 915,1068 899,1052 880,1039 861,1027 841,1016 819,1006 798,1000 776,995 752,992 730,992 717,992 703,992 690,995 685,983 679,971 672,959 661,940 647,921 631,905 615,889 595,874 576,863 556,851 534,843 513,837 491,831 468,828 446,828 423,828 400,831 378,837 356,843 334,852 315,863 295,875 277,889 261,905 245,921 230,940 219,959 208,979 199,1000 193,1021 187,1043 184,1067 184,1089 184,1112 187,1135 193,1157 199,1179 208,1200 219,1220 226,1231 233,1243 242,1253 233,1263 226,1275 219,1286 208,1306 199,1327 193,1350 187,1371 184,1395 184,1417 184,1440 187,1463 193,1485 222,1591 308,1693 400,1764 366,1738 334,1710 304,1680 245,1621 192,1551 150,1479 130,1445 115,1407 105,1370 95,1332 89,1292 89,1253 89,1214 95,1174 105,1136 115,1099 130,1061 150,1027 169,994 193,962 221,935 248,907 281,883 315,863 349,844 386,828 424,818 461,808 501,803 540,803 578,803 619,808 657,818 695,828 732,843 766,863 800,882 831,907 859,935 886,962 912,994 931,1027 950,1061 966,1099 976,1136 986,1174 992,1214 992,1253 Z"/>
         <path fill="none" stroke="rgb(0,0,0)" stroke-width="7" stroke-linejoin="miter" d="M 992,1253 C 992,1230 987,1207 982,1185 976,1164 967,1142 956,1122 944,1103 931,1084 915,1068 899,1052 880,1039 861,1027 841,1016 819,1006 798,1000 776,995 752,992 730,992 717,992 703,992 690,995 685,983 679,971 672,959 661,940 647,921 631,905 615,889 595,874 576,863 556,851 534,843 513,837 491,831 468,828 446,828 423,828 400,831 378,837 356,843 334,852 315,863 295,875 277,889 261,905 245,921 230,940 219,959 208,979 199,1000 193,1021 187,1043 184,1067 184,1089 184,1112 187,1135 193,1157 199,1179 208,1200 219,1220 226,1231 233,1243 242,1253 233,1263 226,1275 219,1286 208,1306 199,1327 193,1350 187,1371 184,1395 184,1417 184,1440 187,1463 193,1485 222,1591 308,1693 400,1764 366,1738 334,1710 304,1680 245,1621 192,1551 150,1479 130,1445 115,1407 105,1370 95,1332 89,1292 89,1253 89,1214 95,1174 105,1136 115,1099 130,1061 150,1027 169,994 193,962 221,935 248,907 281,883 315,863 349,844 386,828 424,818 461,808 501,803 540,803 578,803 619,808 657,818 695,828 732,843 766,863 800,882 831,907 859,935 886,962 912,994 931,1027 950,1061 966,1099 976,1136 986,1174 992,1214 992,1253 Z"/>
        </g>
       </g>
       <g class="com.sun.star.drawing.ClosedBezierShape">
        <g id="id26">
         <rect class="BoundingBox" stroke="none" fill="none" x="85" y="799" width="911" height="969"/>
         <path fill="none" stroke="rgb(0,0,0)" stroke-width="7" stroke-linejoin="miter" d="M 992,1253 C 992,1230 987,1207 982,1185 976,1164 967,1142 956,1122 944,1103 931,1084 915,1068 899,1052 880,1039 861,1027 841,1016 819,1006 798,1000 776,995 752,992 730,992 717,992 703,992 690,995 685,983 679,971 672,959 661,940 647,921 631,905 615,889 595,874 576,863 556,851 534,843 513,837 491,831 468,828 446,828 423,828 400,831 378,837 356,843 334,852 315,863 295,875 277,889 261,905 245,921 230,940 219,959 208,979 199,1000 193,1021 187,1043 184,1067 184,1089 184,1112 187,1135 193,1157 199,1179 208,1200 219,1220 226,1231 233,1243 242,1253 233,1263 226,1275 219,1286 208,1306 199,1327 193,1350 187,1371 184,1395 184,1417 184,1440 187,1463 193,1485 222,1591 308,1693 400,1764 366,1738 334,1710 304,1680 245,1621 192,1551 150,1479 130,1445 115,1407 105,1370 95,1332 89,1292 89,1253 89,1214 95,1174 105,1136 115,1099 130,1061 150,1027 169,994 193,962 221,935 248,907 281,883 315,863 349,844 386,828 424,818 461,808 501,803 540,803 578,803 619,808 657,818 695,828 732,843 766,863 800,882 831,907 859,935 886,962 912,994 931,1027 950,1061 966,1099 976,1136 986,1174 992,1214 992,1253 Z"/>
        </g>
       </g>
       <g class="com.sun.star.drawing.OpenBezierShape">
        <g id="id27">
         <rect class="BoundingBox" stroke="none" fill="none" x="130" y="818" width="866" height="950"/>
         <path fill="none" stroke="rgb(0,0,0)" stroke-width="7" stroke-linejoin="miter" d="M 992,1253 C 992,1103 875,979 743,902 610,825 445,789 315,863 282,882 255,907 232,935 209,963 190,994 176,1028 161,1063 152,1100 144,1138 138,1175 134,1215 134,1253 134,1292 138,1331 144,1369 152,1406 161,1443 176,1478 209,1559 259,1635 304,1680 334,1710 366,1738 400,1764"/>
        </g>
       </g>
       <g class="com.sun.star.drawing.ClosedBezierShape">
        <g id="id28">
         <rect class="BoundingBox" stroke="none" fill="none" x="180" y="824" width="1657" height="1145"/>
         <path fill="rgb(238,221,119)" stroke="none" d="M 1832,1479 C 1790,1551 1737,1621 1678,1680 1618,1739 1549,1794 1476,1835 1404,1877 1323,1910 1242,1931 1161,1953 1075,1964 992,1964 908,1964 821,1953 740,1931 659,1910 578,1876 506,1835 469,1813 433,1790 400,1764 308,1693 222,1591 193,1485 187,1463 184,1440 184,1417 184,1395 187,1371 193,1350 199,1327 208,1306 219,1286 226,1275 233,1263 242,1253 233,1243 226,1231 219,1220 208,1200 199,1179 193,1157 187,1135 184,1112 184,1089 184,1067 187,1043 193,1021 199,1000 208,979 219,959 230,940 245,921 261,905 277,889 295,875 315,863 334,852 356,843 378,837 400,831 423,828 446,828 468,828 491,831 513,837 534,843 556,851 576,863 595,874 615,889 631,905 647,921 661,940 672,959 679,971 685,983 690,995 703,992 717,992 730,992 752,992 776,995 798,1000 819,1006 841,1016 861,1027 880,1039 899,1052 915,1068 931,1084 944,1103 956,1122 967,1142 976,1164 982,1185 987,1207 992,1230 992,1253 992,1292 996,1333 1006,1370 1016,1408 1032,1446 1051,1479 1070,1513 1096,1545 1123,1572 1151,1600 1182,1625 1216,1644 1250,1664 1287,1679 1325,1689 1363,1699 1404,1704 1442,1704 1481,1704 1521,1699 1558,1689 1596,1679 1633,1664 1667,1644 1701,1625 1734,1600 1761,1572 1789,1545 1813,1512 1832,1479 Z M 1368,1789 C 1346,1786 1323,1782 1301,1776 1256,1764 1212,1745 1171,1722 1130,1699 1092,1669 1059,1636 1026,1603 997,1565 974,1524 950,1484 932,1438 920,1393 908,1348 901,1300 901,1253 901,1238 899,1223 895,1209 892,1194 885,1180 878,1167 871,1155 862,1143 851,1132 841,1121 828,1113 816,1105 803,1098 789,1091 774,1087 760,1084 745,1082 730,1082 715,1082 700,1084 686,1087 671,1091 657,1097 644,1105 633,1111 622,1119 613,1128 616,1115 617,1102 617,1089 617,1074 615,1059 611,1045 608,1030 601,1016 594,1003 587,992 577,979 567,969 557,958 544,949 531,941 519,934 504,928 490,924 476,921 461,918 446,918 431,918 415,921 401,924 387,928 373,934 360,941 347,949 335,958 324,969 314,979 305,992 297,1003 290,1016 284,1030 280,1045 276,1059 274,1074 274,1089 274,1104 276,1119 280,1133 284,1147 290,1162 297,1175 305,1188 314,1200 324,1210 335,1221 347,1230 360,1237 371,1244 383,1249 396,1253 383,1257 371,1262 360,1269 347,1276 335,1286 324,1296 314,1306 305,1318 297,1332 290,1344 284,1359 280,1373 276,1387 274,1402 274,1417 274,1432 276,1447 280,1461 301,1538 374,1631 455,1692 485,1716 518,1737 551,1756 617,1794 690,1825 763,1844 837,1864 915,1874 992,1874 1068,1874 1145,1864 1219,1844 1269,1831 1320,1812 1368,1789 Z"/>
         <path fill="none" stroke="rgb(0,0,0)" stroke-width="7" stroke-linejoin="miter" d="M 1832,1479 C 1790,1551 1737,1621 1678,1680 1618,1739 1549,1794 1476,1835 1404,1877 1323,1910 1242,1931 1161,1953 1075,1964 992,1964 908,1964 821,1953 740,1931 659,1910 578,1876 506,1835 469,1813 433,1790 400,1764 308,1693 222,1591 193,1485 187,1463 184,1440 184,1417 184,1395 187,1371 193,1350 199,1327 208,1306 219,1286 226,1275 233,1263 242,1253 233,1243 226,1231 219,1220 208,1200 199,1179 193,1157 187,1135 184,1112 184,1089 184,1067 187,1043 193,1021 199,1000 208,979 219,959 230,940 245,921 261,905 277,889 295,875 315,863 334,852 356,843 378,837 400,831 423,828 446,828 468,828 491,831 513,837 534,843 556,851 576,863 595,874 615,889 631,905 647,921 661,940 672,959 679,971 685,983 690,995 703,992 717,992 730,992 752,992 776,995 798,1000 819,1006 841,1016 861,1027 880,1039 899,1052 915,1068 931,1084 944,1103 956,1122 967,1142 976,1164 982,1185 987,1207 992,1230 992,1253 992,1292 996,1333 1006,1370 1016,1408 1032,1446 1051,1479 1070,1513 1096,1545 1123,1572 1151,1600 1182,1625 1216,1644 1250,1664 1287,1679 1325,1689 1363,1699 1404,1704 1442,1704 1481,1704 1521,1699 1558,1689 1596,1679 1633,1664 1667,1644 1701,1625 1734,1600 1761,1572 1789,1545 1813,1512 1832,1479 Z"/>
         <path fill="none" stroke="rgb(0,0,0)" stroke-width="7" stroke-linejoin="miter" d="M 1368,1789 C 1346,1786 1323,1782 1301,1776 1256,1764 1212,1745 1171,1722 1130,1699 1092,1669 1059,1636 1026,1603 997,1565 974,1524 950,1484 932,1438 920,1393 908,1348 901,1300 901,1253 901,1238 899,1223 895,1209 892,1194 885,1180 878,1167 871,1155 862,1143 851,1132 841,1121 828,1113 816,1105 803,1098 789,1091 774,1087 760,1084 745,1082 730,1082 715,1082 700,1084 686,1087 671,1091 657,1097 644,1105 633,1111 622,1119 613,1128 616,1115 617,1102 617,1089 617,1074 615,1059 611,1045 608,1030 601,1016 594,1003 587,992 577,979 567,969 557,958 544,949 531,941 519,934 504,928 490,924 476,921 461,918 446,918 431,918 415,921 401,924 387,928 373,934 360,941 347,949 335,958 324,969 314,979 305,992 297,1003 290,1016 284,1030 280,1045 276,1059 274,1074 274,1089 274,1104 276,1119 280,1133 284,1147 290,1162 297,1175 305,1188 314,1200 324,1210 335,1221 347,1230 360,1237 371,1244 383,1249 396,1253 383,1257 371,1262 360,1269 347,1276 335,1286 324,1296 314,1306 305,1318 297,1332 290,1344 284,1359 280,1373 276,1387 274,1402 274,1417 274,1432 276,1447 280,1461 301,1538 374,1631 455,1692 485,1716 518,1737 551,1756 617,1794 690,1825 763,1844 837,1864 915,1874 992,1874 1068,1874 1145,1864 1219,1844 1269,1831 1320,1812 1368,1789 Z"/>
        </g>
       </g>
       <g class="com.sun.star.drawing.ClosedBezierShape">
        <g id="id29">
         <rect class="BoundingBox" stroke="none" fill="none" x="180" y="824" width="1657" height="1145"/>
         <path fill="none" stroke="rgb(0,0,0)" stroke-width="7" stroke-linejoin="miter" d="M 1832,1479 C 1790,1551 1737,1621 1678,1680 1618,1739 1549,1794 1476,1835 1404,1877 1323,1910 1242,1931 1161,1953 1075,1964 992,1964 908,1964 821,1953 740,1931 659,1910 578,1876 506,1835 469,1813 433,1790 400,1764 308,1693 222,1591 193,1485 187,1463 184,1440 184,1417 184,1395 187,1371 193,1350 199,1327 208,1306 219,1286 226,1275 233,1263 242,1253 233,1243 226,1231 219,1220 208,1200 199,1179 193,1157 187,1135 184,1112 184,1089 184,1067 187,1043 193,1021 199,1000 208,979 219,959 230,940 245,921 261,905 277,889 295,875 315,863 334,852 356,843 378,837 400,831 423,828 446,828 468,828 491,831 513,837 534,843 556,851 576,863 595,874 615,889 631,905 647,921 661,940 672,959 679,971 685,983 690,995 703,992 717,992 730,992 752,992 776,995 798,1000 819,1006 841,1016 861,1027 880,1039 899,1052 915,1068 931,1084 944,1103 956,1122 967,1142 976,1164 982,1185 987,1207 992,1230 992,1253 992,1292 996,1333 1006,1370 1016,1408 1032,1446 1051,1479 1070,1513 1096,1545 1123,1572 1151,1600 1182,1625 1216,1644 1250,1664 1287,1679 1325,1689 1363,1699 1404,1704 1442,1704 1481,1704 1521,1699 1558,1689 1596,1679 1633,1664 1667,1644 1701,1625 1734,1600 1761,1572 1789,1545 1813,1512 1832,1479 Z"/>
        </g>
       </g>
       <g class="com.sun.star.drawing.ClosedBezierShape">
        <g id="id30">
         <rect class="BoundingBox" stroke="none" fill="none" x="270" y="914" width="1112" height="965"/>
         <path fill="none" stroke="rgb(0,0,0)" stroke-width="7" stroke-linejoin="miter" d="M 1368,1789 C 1346,1786 1323,1782 1301,1776 1256,1764 1212,1745 1171,1722 1130,1699 1092,1669 1059,1636 1026,1603 997,1565 974,1524 950,1484 932,1438 920,1393 908,1348 901,1300 901,1253 901,1238 899,1223 895,1209 892,1194 885,1180 878,1167 871,1155 862,1143 851,1132 841,1121 828,1113 816,1105 803,1098 789,1091 774,1087 760,1084 745,1082 730,1082 715,1082 700,1084 686,1087 671,1091 657,1097 644,1105 633,1111 622,1119 613,1128 616,1115 617,1102 617,1089 617,1074 615,1059 611,1045 608,1030 601,1016 594,1003 587,991 577,979 567,969 557,958 544,949 531,941 519,934 504,928 490,924 476,921 461,918 446,918 431,918 415,921 401,924 387,928 373,934 360,941 347,949 335,958 324,969 314,979 305,991 297,1003 290,1016 284,1030 280,1045 276,1059 274,1074 274,1089 274,1104 276,1119 280,1133 284,1147 290,1162 297,1175 305,1188 314,1200 324,1210 335,1221 347,1230 360,1237 371,1244 383,1249 396,1253 383,1257 371,1262 360,1269 347,1276 335,1286 324,1296 314,1306 305,1318 297,1332 290,1344 284,1359 280,1373 276,1387 274,1402 274,1417 274,1432 276,1447 280,1461 301,1538 374,1631 455,1692 485,1716 518,1737 551,1756 617,1794 690,1825 763,1844 837,1864 915,1874 992,1874 1068,1874 1145,1864 1219,1844 1269,1831 1320,1812 1368,1789 Z"/>
        </g>
       </g>
       <g class="com.sun.star.drawing.OpenBezierShape">
        <g id="id31">
         <rect class="BoundingBox" stroke="none" fill="none" x="1367" y="1477" width="470" height="317"/>
         <path fill="none" stroke="rgb(0,0,0)" stroke-width="7" stroke-linejoin="miter" d="M 1368,1789 C 1572,1760 1720,1661 1832,1479"/>
        </g>
       </g>
       <g class="com.sun.star.drawing.OpenBezierShape">
        <g id="id32">
         <rect class="BoundingBox" stroke="none" fill="none" x="133" y="1249" width="256" height="9"/>
         <path fill="none" stroke="rgb(0,0,0)" stroke-width="7" stroke-linejoin="miter" d="M 388,1253 L 134,1253"/>
        </g>
       </g>
       <g class="com.sun.star.drawing.ClosedBezierShape">
        <g id="id33">
         <rect class="BoundingBox" stroke="none" fill="none" x="536" y="465" width="911" height="789"/>
         <path fill="none" stroke="rgb(0,0,0)" stroke-width="7" stroke-linejoin="miter" d="M 1439,1249 L 543,1249 992,473 1439,1249 Z"/>
        </g>
       </g>
      </g>
     </g>
    </g>
   </g>
  </g>
 </g>
</svg>