<?xml version="1.0" encoding="UTF-8"?>
<!DOCTYPE svg PUBLIC "-//W3C//DTD SVG 1.1//EN" "http://www.w3.org/Graphics/SVG/1.1/DTD/svg11.dtd">
<svg version="1.2" width="40.9mm" height="7.88mm" viewBox="0 0 4090 788" preserveAspectRatio="xMidYMid" fill-rule="evenodd" stroke-width="28.222" stroke-linejoin="round" xmlns="http://www.w3.org/2000/svg" xmlns:ooo="http://xml.openoffice.org/svg/export" xmlns:xlink="http://www.w3.org/1999/xlink" xmlns:presentation="http://sun.com/xmlns/staroffice/presentation" xmlns:smil="http://www.w3.org/2001/SMIL20/" xmlns:anim="urn:oasis:names:tc:opendocument:xmlns:animation:1.0" xml:space="preserve">
 <defs class="ClipPathGroup">
  <clipPath id="presentation_clip_path" clipPathUnits="userSpaceOnUse">
   <rect x="0" y="0" width="4090" height="788"/>
  </clipPath>
  <clipPath id="presentation_clip_path_shrink" clipPathUnits="userSpaceOnUse">
   <rect x="4" y="0" width="4082" height="787"/>
  </clipPath>
 </defs>
 <defs class="TextShapeIndex">
  <g ooo:slide="id1" ooo:id-list="id3 id4 id5 id6 id7 id8 id9 id10 id11 id12 id13 id14 id15 id16 id17 id18 id19 id20 id21 id22 id23 id24 id25 id26 id27 id28 id29 id30 id31 id32 id33 id34 id35 id36 id37 id38 id39"/>
 </defs>
 <defs class="EmbeddedBulletChars">
  <g id="bullet-char-template-57356" transform="scale(0.00048828125,-0.00048828125)">
   <path d="M 580,1141 L 1163,571 580,0 -4,571 580,1141 Z"/>
  </g>
  <g id="bullet-char-template-57354" transform="scale(0.00048828125,-0.00048828125)">
   <path d="M 8,1128 L 1137,1128 1137,0 8,0 8,1128 Z"/>
  </g>
  <g id="bullet-char-template-10146" transform="scale(0.00048828125,-0.00048828125)">
   <path d="M 174,0 L 602,739 174,1481 1456,739 174,0 Z M 1358,739 L 309,1346 659,739 1358,739 Z"/>
  </g>
  <g id="bullet-char-template-10132" transform="scale(0.00048828125,-0.00048828125)">
   <path d="M 2015,739 L 1276,0 717,0 1260,543 174,543 174,936 1260,936 717,1481 1274,1481 2015,739 Z"/>
  </g>
  <g id="bullet-char-template-10007" transform="scale(0.00048828125,-0.00048828125)">
   <path d="M 0,-2 C -7,14 -16,27 -25,37 L 356,567 C 262,823 215,952 215,954 215,979 228,992 255,992 264,992 276,990 289,987 310,991 331,999 354,1012 L 381,999 492,748 772,1049 836,1024 860,1049 C 881,1039 901,1025 922,1006 886,937 835,863 770,784 769,783 710,716 594,584 L 774,223 C 774,196 753,168 711,139 L 727,119 C 717,90 699,76 672,76 641,76 570,178 457,381 L 164,-76 C 142,-110 111,-127 72,-127 30,-127 9,-110 8,-76 1,-67 -2,-52 -2,-32 -2,-23 -1,-13 0,-2 Z"/>
  </g>
  <g id="bullet-char-template-10004" transform="scale(0.00048828125,-0.00048828125)">
   <path d="M 285,-33 C 182,-33 111,30 74,156 52,228 41,333 41,471 41,549 55,616 82,672 116,743 169,778 240,778 293,778 328,747 346,684 L 369,508 C 377,444 397,411 428,410 L 1163,1116 C 1174,1127 1196,1133 1229,1133 1271,1133 1292,1118 1292,1087 L 1292,965 C 1292,929 1282,901 1262,881 L 442,47 C 390,-6 338,-33 285,-33 Z"/>
  </g>
  <g id="bullet-char-template-9679" transform="scale(0.00048828125,-0.00048828125)">
   <path d="M 813,0 C 632,0 489,54 383,161 276,268 223,411 223,592 223,773 276,916 383,1023 489,1130 632,1184 813,1184 992,1184 1136,1130 1245,1023 1353,916 1407,772 1407,592 1407,412 1353,268 1245,161 1136,54 992,0 813,0 Z"/>
  </g>
  <g id="bullet-char-template-8226" transform="scale(0.00048828125,-0.00048828125)">
   <path d="M 346,457 C 273,457 209,483 155,535 101,586 74,649 74,723 74,796 101,859 155,911 209,963 273,989 346,989 419,989 480,963 531,910 582,859 608,796 608,723 608,648 583,586 532,535 482,483 420,457 346,457 Z"/>
  </g>
  <g id="bullet-char-template-8211" transform="scale(0.00048828125,-0.00048828125)">
   <path d="M -4,459 L 1135,459 1135,606 -4,606 -4,459 Z"/>
  </g>
  <g id="bullet-char-template-61548" transform="scale(0.00048828125,-0.00048828125)">
   <path d="M 173,740 C 173,903 231,1043 346,1159 462,1274 601,1332 765,1332 928,1332 1067,1274 1183,1159 1299,1043 1357,903 1357,740 1357,577 1299,437 1183,322 1067,206 928,148 765,148 601,148 462,206 346,322 231,437 173,577 173,740 Z"/>
  </g>
 </defs>
 <g>
  <g id="id2" class="Master_Slide">
   <g id="bg-id2" class="Background"/>
   <g id="bo-id2" class="BackgroundObjects"/>
  </g>
 </g>
 <g class="SlideGroup">
  <g>
   <g id="container-id1">
    <g id="id1" class="Slide" clip-path="url(#presentation_clip_path)">
     <g class="Page">
      <g class="Group">
       <g class="com.sun.star.drawing.ClosedBezierShape">
        <g id="id3">
         <rect class="BoundingBox" stroke="none" fill="none" x="37" y="53" width="745" height="715"/>
         <path fill="rgb(255,255,255)" stroke="none" d="M 55,749 C 97,749 139,749 181,749 181,580 181,410 181,241 240,410 299,580 358,749 392,749 426,749 460,749 519,580 578,410 637,241 637,410 637,580 637,749 679,749 721,749 763,749 763,523 763,297 763,71 705,71 648,71 591,71 530,242 470,414 410,585 349,414 288,242 227,71 170,71 112,71 55,71 55,297 55,523 55,749 Z"/>
         <path fill="none" stroke="rgb(0,0,0)" stroke-width="35" stroke-linejoin="round" d="M 55,749 L 181,749 181,241 C 240,410 299,580 358,749 L 460,749 C 519,580 578,410 637,241 L 637,749 763,749 763,71 591,71 C 530,242 470,414 410,585 349,414 288,242 227,71 L 55,71 55,749 Z"/>
        </g>
       </g>
       <g class="com.sun.star.drawing.ClosedBezierShape">
        <g id="id4">
         <rect class="BoundingBox" stroke="none" fill="none" x="829" y="211" width="573" height="569"/>
         <path fill="rgb(255,255,255)" stroke="none" d="M 847,497 C 847,650 954,761 1103,761 1174,761 1223,738 1272,683 L 1272,749 1383,749 1383,241 1272,241 1272,309 C 1229,253 1179,229 1106,229 955,229 847,342 847,497 Z M 970,500 C 970,407 1031,341 1118,341 1206,341 1268,406 1268,499 1268,583 1213,649 1120,649 1031,649 970,589 970,500 Z"/>
         <path fill="none" stroke="rgb(0,0,0)" stroke-width="35" stroke-linejoin="round" d="M 847,497 C 847,650 954,761 1103,761 1174,761 1223,738 1272,683 L 1272,749 1383,749 1383,241 1272,241 1272,309 C 1229,253 1179,229 1106,229 955,229 847,342 847,497 Z"/>
         <path fill="none" stroke="rgb(0,0,0)" stroke-width="35" stroke-linejoin="round" d="M 970,500 C 970,407 1031,341 1118,341 1206,341 1268,406 1268,499 1268,583 1213,649 1120,649 1031,649 970,589 970,500 Z"/>
        </g>
       </g>
       <g class="com.sun.star.drawing.ClosedBezierShape">
        <g id="id5">
         <rect class="BoundingBox" stroke="none" fill="none" x="1456" y="53" width="159" height="715"/>
         <path fill="rgb(255,255,255)" stroke="none" d="M 1474,749 C 1515,749 1555,749 1596,749 1596,523 1596,297 1596,71 1555,71 1515,71 1474,71 1474,297 1474,523 1474,749 Z"/>
         <path fill="none" stroke="rgb(0,0,0)" stroke-width="35" stroke-linejoin="round" d="M 1474,749 L 1596,749 1596,71 1474,71 1474,749 Z"/>
        </g>
       </g>
       <g class="com.sun.star.drawing.ClosedBezierShape">
        <g id="id6">
         <rect class="BoundingBox" stroke="none" fill="none" x="1654" y="211" width="561" height="569"/>
         <path fill="rgb(255,255,255)" stroke="none" d="M 1672,495 C 1672,643 1793,761 1943,761 2062,761 2153,696 2196,582 L 2058,582 C 2028,629 1993,649 1943,649 1858,649 1795,583 1795,494 1795,405 1855,341 1940,341 1995,341 2033,364 2058,411 L 2196,411 C 2156,294 2055,229 1940,229 1789,229 1672,345 1672,495 Z"/>
         <path fill="none" stroke="rgb(0,0,0)" stroke-width="35" stroke-linejoin="round" d="M 1672,495 C 1672,643 1793,761 1943,761 2062,761 2153,696 2196,582 L 2058,582 C 2028,629 1993,649 1943,649 1858,649 1795,583 1795,494 1795,405 1855,341 1940,341 1995,341 2033,364 2058,411 L 2196,411 C 2156,294 2055,229 1940,229 1789,229 1672,345 1672,495 Z"/>
        </g>
       </g>
       <g class="com.sun.star.drawing.ClosedBezierShape">
        <g id="id7">
         <rect class="BoundingBox" stroke="none" fill="none" x="3039" y="53" width="159" height="715"/>
         <path fill="rgb(255,255,255)" stroke="none" d="M 3057,749 C 3098,749 3138,749 3179,749 3179,523 3179,297 3179,71 3138,71 3098,71 3057,71 3057,297 3057,523 3057,749 Z"/>
         <path fill="none" stroke="rgb(0,0,0)" stroke-width="35" stroke-linejoin="round" d="M 3057,749 L 3179,749 3179,71 3057,71 3057,749 Z"/>
        </g>
       </g>
       <g class="com.sun.star.drawing.ClosedBezierShape">
        <g id="id8">
         <rect class="BoundingBox" stroke="none" fill="none" x="3259" y="211" width="799" height="557"/>
         <path fill="rgb(255,255,255)" stroke="none" d="M 3277,749 L 3399,749 3399,499 C 3399,378 3427,341 3498,341 3562,341 3597,370 3597,470 L 3597,749 3719,749 3719,499 C 3719,378 3754,341 3822,341 3879,341 3917,368 3917,470 L 3917,749 4039,749 4039,456 C 4039,303 3968,229 3834,229 3762,229 3712,253 3670,308 3636,253 3591,229 3521,229 3461,229 3425,246 3389,289 L 3389,241 3277,241 3277,749 Z"/>
         <path fill="none" stroke="rgb(0,0,0)" stroke-width="35" stroke-linejoin="round" d="M 3277,749 L 3399,749 3399,499 C 3399,378 3427,341 3498,341 3562,341 3597,370 3597,470 L 3597,749 3719,749 3719,499 C 3719,378 3754,341 3822,341 3879,341 3917,368 3917,470 L 3917,749 4039,749 4039,456 C 4039,303 3968,229 3834,229 3762,229 3712,253 3670,308 3636,253 3591,229 3521,229 3461,229 3425,246 3389,289 L 3389,241 3277,241 3277,749 Z"/>
        </g>
       </g>
      </g>
      <g class="Group">
       <g class="com.sun.star.drawing.OpenBezierShape">
        <g id="id9">
         <rect class="BoundingBox" stroke="none" fill="none" x="2220" y="163" width="792" height="461"/>
         <path fill="none" stroke="rgb(0,0,0)" stroke-width="4" stroke-linejoin="miter" d="M 2222,621 L 3009,166"/>
        </g>
       </g>
       <g class="com.sun.star.drawing.OpenBezierShape">
        <g id="id10">
         <rect class="BoundingBox" stroke="none" fill="none" x="2220" y="164" width="792" height="460"/>
         <path fill="none" stroke="rgb(0,0,0)" stroke-width="4" stroke-linejoin="miter" d="M 3009,621 L 2222,166"/>
        </g>
       </g>
       <g class="com.sun.star.drawing.OpenBezierShape">
        <g id="id11">
         <rect class="BoundingBox" stroke="none" fill="none" x="2613" y="0" width="6" height="789"/>
         <path fill="none" stroke="rgb(0,0,0)" stroke-width="4" stroke-linejoin="miter" d="M 2616,0 L 2616,787"/>
        </g>
       </g>
       <g class="com.sun.star.drawing.OpenBezierShape">
        <g id="id12">
         <rect class="BoundingBox" stroke="none" fill="none" x="2374" y="373" width="73" height="122"/>
         <path fill="none" stroke="rgb(0,0,0)" stroke-width="4" stroke-linejoin="miter" d="M 2376,375 L 2444,492"/>
        </g>
       </g>
       <g class="com.sun.star.drawing.ClosedBezierShape">
        <g id="id13">
         <rect class="BoundingBox" stroke="none" fill="none" x="2616" y="343" width="371" height="324"/>
         <path fill="rgb(238,221,119)" stroke="none" d="M 2702,344 C 2695,348 2687,354 2681,360 2675,366 2670,372 2665,380 2661,387 2658,395 2655,404 2653,412 2652,421 2652,429 2652,438 2653,447 2655,455 2658,464 2661,473 2665,480 2668,485 2671,488 2674,492 2671,496 2668,501 2665,505 2661,513 2658,521 2655,529 2653,538 2652,547 2652,555 2652,564 2653,573 2655,581 2658,589 2661,598 2665,605 2670,613 2675,620 2681,626 2687,632 2695,638 2702,642 2710,646 2718,650 2726,652 2735,654 2744,655 2752,655 2761,655 2770,654 2778,652 2787,650 2795,646 2802,642 2810,638 2817,632 2823,626 2829,620 2835,613 2839,605 2842,601 2844,596 2846,591 2851,592 2856,593 2861,593 2870,593 2879,591 2887,589 2895,587 2904,583 2911,579 2919,575 2926,569 2932,563 2962,533 2979,485 2985,441 2983,457 2980,473 2975,489 2967,520 2954,551 2938,579 2931,592 2921,604 2911,615 2900,625 2888,635 2875,642 2862,649 2848,655 2833,659 2819,663 2804,665 2789,665 2774,665 2759,663 2744,659 2730,655 2715,649 2702,642 2689,635 2677,625 2666,615 2656,604 2647,592 2639,579 2632,566 2626,552 2622,537 2618,523 2616,507 2616,492 2616,477 2618,463 2622,448 2626,434 2632,419 2639,406 2647,393 2656,382 2666,371 2677,361 2689,351 2702,344 Z"/>
        </g>
       </g>
       <g class="com.sun.star.drawing.ClosedBezierShape">
        <g id="id14">
         <rect class="BoundingBox" stroke="none" fill="none" x="2614" y="341" width="375" height="328"/>
         <path fill="none" stroke="rgb(0,0,0)" stroke-width="4" stroke-linejoin="miter" d="M 2702,344 C 2695,348 2687,354 2681,360 2675,366 2670,372 2665,380 2661,387 2658,395 2655,404 2653,412 2652,421 2652,429 2652,438 2653,447 2655,455 2658,464 2661,473 2665,480 2668,485 2671,488 2674,492 2671,496 2668,501 2665,505 2661,513 2658,521 2655,529 2653,538 2652,547 2652,555 2652,564 2653,573 2655,581 2658,589 2661,598 2665,605 2670,613 2675,620 2681,626 2687,632 2695,638 2702,642 2710,646 2718,650 2726,652 2735,654 2744,655 2752,655 2761,655 2770,654 2778,652 2787,650 2795,646 2802,642 2810,638 2817,632 2823,626 2829,620 2835,613 2839,605 2842,601 2844,596 2846,591 2851,592 2856,593 2861,593 2870,593 2879,591 2887,589 2895,587 2904,583 2911,579 2919,575 2926,569 2932,563 2962,533 2979,485 2985,441 2983,457 2980,473 2975,489 2967,520 2954,551 2938,579 2931,592 2921,604 2911,615 2900,625 2888,635 2875,642 2862,649 2848,655 2833,659 2819,663 2804,665 2789,665 2774,665 2759,663 2744,659 2730,655 2715,649 2702,642 2689,635 2677,625 2666,615 2656,604 2647,592 2639,579 2632,566 2626,552 2622,537 2618,523 2616,507 2616,492 2616,477 2618,463 2622,448 2626,434 2632,419 2639,406 2647,393 2656,382 2666,371 2677,361 2689,351 2702,344 Z"/>
        </g>
       </g>
       <g class="com.sun.star.drawing.OpenBezierShape">
        <g id="id15">
         <rect class="BoundingBox" stroke="none" fill="none" x="2631" y="341" width="358" height="320"/>
         <path fill="none" stroke="rgb(0,0,0)" stroke-width="4" stroke-linejoin="miter" d="M 2702,344 C 2652,372 2633,434 2633,492 2633,551 2652,613 2702,642 2715,649 2728,653 2742,656 2755,658 2770,658 2784,656 2798,655 2812,651 2826,646 2840,641 2854,634 2866,627 2879,620 2891,611 2903,602 2914,592 2924,582 2933,570 2953,544 2968,513 2975,489 2979,473 2983,457 2985,441"/>
        </g>
       </g>
       <g class="com.sun.star.drawing.ClosedBezierShape">
        <g id="id16">
         <rect class="BoundingBox" stroke="none" fill="none" x="2616" y="20" width="374" height="637"/>
         <path fill="rgb(238,221,119)" stroke="none" d="M 2616,21 C 2648,21 2681,26 2712,34 2743,42 2774,55 2802,71 2830,87 2856,108 2879,130 2902,153 2922,179 2938,207 2954,234 2967,266 2975,297 2984,328 2988,361 2988,394 2988,409 2987,425 2985,441 2979,485 2962,533 2932,563 2926,569 2919,575 2911,579 2904,583 2895,587 2887,589 2879,591 2870,593 2861,593 2856,593 2851,592 2846,591 2844,596 2842,601 2839,605 2835,613 2829,620 2823,626 2817,632 2810,638 2802,642 2795,646 2787,650 2778,652 2770,654 2761,655 2752,655 2744,655 2735,654 2726,652 2718,650 2710,646 2702,642 2695,638 2687,632 2681,626 2675,620 2670,613 2665,605 2661,598 2658,589 2655,581 2653,573 2652,564 2652,555 2652,547 2653,538 2655,529 2658,521 2661,513 2665,505 2668,501 2671,496 2674,492 2671,488 2668,485 2665,480 2661,473 2658,464 2655,455 2653,447 2652,438 2652,429 2652,421 2653,412 2655,404 2658,395 2661,387 2665,380 2670,372 2675,366 2681,360 2687,354 2695,348 2702,344 2715,336 2728,326 2738,316 2749,305 2758,292 2765,280 2773,267 2780,253 2783,239 2787,224 2790,209 2789,194 2789,179 2787,164 2783,149 2779,135 2773,121 2765,108 2758,95 2748,83 2738,72 2727,61 2715,51 2702,44 2689,36 2675,31 2660,27 2646,23 2631,21 2616,21 Z M 2808,116 C 2811,124 2814,132 2816,140 2821,158 2823,176 2823,194 2823,212 2821,230 2816,248 2811,265 2804,282 2795,298 2786,313 2775,328 2762,341 2750,353 2736,365 2719,374 2715,376 2710,380 2706,384 2702,388 2698,392 2695,397 2693,403 2690,407 2689,412 2687,418 2687,425 2687,430 2687,436 2687,441 2689,447 2690,452 2693,457 2695,462 2698,467 2702,472 2706,476 2710,480 2715,484 2719,486 2724,489 2728,491 2733,492 2728,494 2724,496 2719,498 2715,501 2710,505 2706,509 2702,513 2698,518 2695,522 2693,527 2690,533 2689,538 2687,544 2687,550 2687,555 2687,561 2687,567 2689,572 2690,578 2693,583 2695,588 2698,593 2702,598 2706,602 2710,606 2715,609 2719,612 2724,615 2730,617 2735,619 2741,620 2747,621 2752,621 2758,621 2764,620 2769,619 2775,617 2780,615 2785,612 2790,609 2795,606 2799,602 2803,598 2806,593 2809,588 2812,583 2814,578 2816,572 2817,567 2818,561 2818,555 2818,550 2817,545 2816,540 2820,544 2824,547 2828,549 2833,552 2839,554 2844,556 2850,557 2855,558 2861,558 2867,558 2873,557 2878,556 2884,554 2889,552 2894,549 2899,546 2903,543 2908,539 2929,517 2946,475 2951,437 2953,422 2953,407 2954,393 2954,364 2950,334 2942,306 2934,278 2923,250 2908,225 2894,199 2875,175 2855,155 2840,141 2824,127 2808,116 Z"/>
        </g>
       </g>
       <g class="com.sun.star.drawing.ClosedBezierShape">
        <g id="id17">
         <rect class="BoundingBox" stroke="none" fill="none" x="2616" y="18" width="376" height="641"/>
         <path fill="none" stroke="rgb(0,0,0)" stroke-width="4" stroke-linejoin="miter" d="M 2616,21 C 2648,21 2681,26 2712,34 2743,42 2774,55 2802,71 2830,87 2856,108 2879,130 2902,153 2922,179 2938,207 2954,234 2967,266 2975,297 2984,328 2988,361 2988,394 2988,409 2987,425 2985,441 2979,485 2962,533 2932,563 2926,569 2919,575 2911,579 2904,583 2895,587 2887,589 2879,591 2870,593 2861,593 2856,593 2851,592 2846,591 2844,596 2842,601 2839,605 2835,613 2829,620 2823,626 2817,632 2810,638 2802,642 2795,646 2787,650 2778,652 2770,654 2761,655 2752,655 2744,655 2735,654 2726,652 2718,650 2710,646 2702,642 2695,638 2687,632 2681,626 2675,620 2670,613 2665,605 2661,598 2658,589 2655,581 2653,573 2652,564 2652,555 2652,547 2653,538 2655,529 2658,521 2661,513 2665,505 2668,501 2671,496 2674,492 2671,488 2668,485 2665,480 2661,473 2658,464 2655,455 2653,447 2652,438 2652,429 2652,421 2653,412 2655,404 2658,395 2661,387 2665,380 2670,372 2675,366 2681,360 2687,354 2695,348 2702,344 2715,336 2728,326 2738,316 2749,305 2758,292 2765,280 2773,267 2780,253 2783,239 2787,224 2790,209 2789,194 2789,179 2787,164 2783,149 2779,135 2773,121 2765,108 2758,95 2748,83 2738,72 2727,61 2715,51 2702,44 2689,36 2675,31 2660,27 2646,23 2631,21 2616,21 Z"/>
        </g>
       </g>
       <g class="com.sun.star.drawing.ClosedBezierShape">
        <g id="id18">
         <rect class="BoundingBox" stroke="none" fill="none" x="2685" y="110" width="273" height="515"/>
         <path fill="none" stroke="rgb(0,0,0)" stroke-width="4" stroke-linejoin="miter" d="M 2808,116 C 2811,124 2814,132 2816,140 2821,158 2823,176 2823,194 2823,212 2821,230 2816,248 2811,265 2804,282 2795,298 2786,313 2775,328 2762,341 2750,353 2736,365 2719,374 2715,376 2710,380 2706,384 2702,388 2698,392 2695,397 2693,403 2690,407 2689,412 2687,418 2687,425 2687,430 2687,436 2687,441 2689,447 2690,452 2693,457 2695,462 2698,467 2702,472 2706,476 2710,480 2715,484 2719,486 2724,489 2728,491 2733,492 2728,494 2724,496 2719,498 2715,501 2710,505 2706,509 2702,513 2698,518 2695,522 2693,527 2690,533 2689,538 2687,544 2687,550 2687,555 2687,561 2687,567 2689,572 2690,578 2693,583 2695,588 2698,593 2702,598 2706,602 2710,606 2715,609 2719,612 2724,615 2730,617 2735,619 2741,620 2747,621 2752,621 2758,621 2764,620 2769,619 2775,617 2780,615 2785,612 2790,609 2795,606 2799,602 2803,598 2806,593 2809,588 2812,583 2814,578 2816,572 2817,567 2818,561 2818,555 2818,550 2817,545 2816,540 2820,544 2824,547 2828,549 2833,552 2839,554 2844,556 2850,557 2855,558 2861,558 2867,558 2873,557 2878,556 2884,554 2889,552 2894,549 2899,546 2903,543 2908,539 2929,517 2946,475 2951,437 2953,422 2953,407 2954,393 2954,364 2950,334 2942,306 2934,278 2923,250 2908,225 2894,199 2875,175 2855,155 2840,141 2824,127 2808,116 Z"/>
        </g>
       </g>
       <g class="com.sun.star.drawing.OpenBezierShape">
        <g id="id19">
         <rect class="BoundingBox" stroke="none" fill="none" x="2616" y="18" width="195" height="101"/>
         <path fill="none" stroke="rgb(0,0,0)" stroke-width="4" stroke-linejoin="miter" d="M 2808,116 C 2759,54 2698,23 2616,21"/>
        </g>
       </g>
       <g class="com.sun.star.drawing.OpenBezierShape">
        <g id="id20">
         <rect class="BoundingBox" stroke="none" fill="none" x="2816" y="542" width="53" height="88"/>
         <path fill="none" stroke="rgb(0,0,0)" stroke-width="4" stroke-linejoin="miter" d="M 2818,543 L 2866,627"/>
        </g>
       </g>
       <g class="com.sun.star.drawing.OpenBezierShape">
        <g id="id21">
         <rect class="BoundingBox" stroke="none" fill="none" x="2717" y="491" width="74" height="123"/>
         <path fill="none" stroke="rgb(0,0,0)" stroke-width="4" stroke-linejoin="miter" d="M 2719,611 L 2787,492"/>
        </g>
       </g>
       <g class="com.sun.star.drawing.ClosedBezierShape">
        <g id="id22">
         <rect class="BoundingBox" stroke="none" fill="none" x="2472" y="20" width="317" height="348"/>
         <path fill="rgb(238,221,119)" stroke="none" d="M 2529,344 C 2536,348 2545,351 2553,354 2561,356 2570,357 2579,357 2588,357 2597,356 2605,354 2613,351 2621,348 2628,344 2635,339 2643,334 2649,328 2655,322 2661,315 2665,307 2668,303 2670,298 2671,293 2677,294 2682,294 2687,294 2695,294 2704,293 2713,291 2721,289 2730,285 2737,281 2745,277 2752,271 2758,265 2764,259 2770,251 2774,244 2779,236 2782,228 2784,220 2787,212 2787,203 2787,194 2787,185 2786,176 2784,168 2781,160 2778,151 2774,144 2769,136 2764,129 2758,123 2752,117 2744,111 2737,107 2730,102 2721,99 2713,97 2704,95 2695,94 2687,94 2682,94 2676,94 2671,95 2670,90 2667,86 2665,81 2660,74 2655,66 2649,60 2643,54 2636,48 2628,44 2621,39 2613,37 2605,34 2564,23 2514,33 2473,50 2488,43 2503,38 2519,34 2550,26 2583,21 2615,21 2629,21 2645,23 2659,27 2673,31 2688,36 2701,44 2714,51 2726,61 2736,72 2747,82 2756,95 2764,108 2771,121 2777,134 2781,149 2785,163 2787,179 2787,194 2787,209 2785,224 2781,239 2777,253 2772,267 2764,280 2757,292 2747,306 2736,316 2726,327 2714,336 2701,344 2688,351 2673,357 2659,361 2645,365 2629,367 2615,367 2600,367 2585,365 2571,361 2556,357 2542,351 2529,344 Z"/>
        </g>
       </g>
       <g class="com.sun.star.drawing.ClosedBezierShape">
        <g id="id23">
         <rect class="BoundingBox" stroke="none" fill="none" x="2471" y="18" width="320" height="352"/>
         <path fill="none" stroke="rgb(0,0,0)" stroke-width="4" stroke-linejoin="miter" d="M 2529,344 C 2536,348 2545,351 2553,354 2561,356 2570,357 2579,357 2588,357 2597,356 2605,354 2613,351 2621,348 2628,344 2635,339 2643,334 2649,328 2655,322 2661,315 2665,307 2668,303 2670,298 2671,293 2677,294 2682,294 2687,294 2695,294 2704,293 2713,291 2721,289 2730,285 2737,281 2745,277 2752,271 2758,265 2764,259 2770,251 2774,244 2779,236 2782,228 2784,220 2787,212 2787,203 2787,194 2787,185 2786,176 2784,168 2781,160 2778,151 2774,144 2769,136 2764,129 2758,123 2752,117 2744,111 2737,107 2730,102 2721,99 2713,97 2704,95 2695,94 2687,94 2682,94 2676,94 2671,95 2670,90 2667,86 2665,81 2660,74 2655,66 2649,60 2643,54 2636,48 2628,44 2621,39 2613,37 2605,34 2564,23 2514,33 2473,50 2488,43 2503,38 2519,34 2550,26 2583,21 2615,21 2629,21 2645,23 2659,27 2673,31 2688,36 2701,44 2714,51 2726,61 2736,72 2747,82 2756,95 2764,108 2771,121 2777,134 2781,149 2785,163 2787,179 2787,194 2787,209 2785,224 2781,239 2777,253 2772,267 2764,280 2757,292 2747,306 2736,316 2726,327 2714,336 2701,344 2688,351 2673,357 2659,361 2645,365 2629,367 2615,367 2600,367 2585,365 2571,361 2556,357 2542,351 2529,344 Z"/>
        </g>
       </g>
       <g class="com.sun.star.drawing.OpenBezierShape">
        <g id="id24">
         <rect class="BoundingBox" stroke="none" fill="none" x="2471" y="25" width="320" height="337"/>
         <path fill="none" stroke="rgb(0,0,0)" stroke-width="4" stroke-linejoin="miter" d="M 2529,344 C 2579,372 2641,358 2692,329 2743,299 2787,252 2787,194 2787,180 2784,166 2779,153 2774,140 2768,127 2759,116 2751,104 2740,94 2728,85 2717,75 2706,67 2692,59 2680,52 2666,46 2652,41 2638,36 2624,32 2611,30 2577,26 2543,28 2519,34 2503,38 2488,43 2473,50"/>
        </g>
       </g>
       <g class="com.sun.star.drawing.ClosedBezierShape">
        <g id="id25">
         <rect class="BoundingBox" stroke="none" fill="none" x="2242" y="29" width="547" height="552"/>
         <path fill="rgb(238,221,119)" stroke="none" d="M 2293,579 C 2277,551 2264,520 2256,489 2247,458 2243,426 2243,394 2243,361 2247,328 2256,297 2264,266 2277,234 2293,207 2309,179 2329,153 2352,130 2375,108 2401,87 2429,71 2443,63 2458,56 2473,50 2514,33 2564,23 2605,34 2613,37 2621,39 2628,44 2636,48 2643,54 2649,60 2655,66 2660,74 2665,81 2667,86 2670,90 2671,95 2676,94 2682,94 2687,94 2695,94 2704,95 2713,97 2721,99 2730,102 2737,107 2744,111 2752,117 2758,123 2764,129 2769,136 2774,144 2778,151 2781,160 2784,168 2786,176 2787,185 2787,194 2787,203 2787,212 2784,220 2782,228 2779,236 2774,244 2770,251 2764,259 2758,265 2752,271 2745,277 2737,281 2730,285 2721,289 2713,291 2704,293 2695,294 2687,294 2682,294 2677,294 2671,293 2670,298 2668,303 2665,307 2661,315 2655,322 2649,328 2643,334 2635,339 2628,344 2621,348 2613,351 2605,354 2597,356 2588,357 2579,357 2570,357 2561,356 2553,354 2545,351 2536,348 2529,344 2516,336 2501,329 2487,326 2473,322 2456,321 2442,321 2427,321 2412,322 2398,326 2383,329 2369,336 2356,344 2343,351 2331,361 2320,371 2310,382 2300,393 2293,406 2285,419 2279,433 2276,448 2272,462 2270,477 2270,492 2270,507 2272,523 2276,537 2279,551 2285,566 2293,579 Z M 2279,366 C 2284,359 2290,353 2296,347 2309,334 2323,323 2339,314 2354,305 2371,298 2389,293 2406,288 2424,286 2442,286 2460,286 2479,288 2496,293 2513,298 2531,305 2546,314 2551,317 2557,319 2562,320 2567,322 2573,323 2579,323 2585,323 2590,322 2596,320 2601,319 2607,317 2612,314 2616,311 2620,307 2624,303 2628,299 2632,295 2635,290 2638,285 2640,279 2641,274 2643,268 2644,262 2644,257 2644,252 2643,247 2642,242 2645,245 2650,248 2654,251 2659,254 2664,256 2670,257 2675,259 2681,260 2687,260 2692,260 2698,259 2704,257 2709,256 2715,254 2720,251 2725,248 2729,244 2733,240 2737,237 2741,232 2744,227 2747,222 2749,216 2750,211 2752,206 2752,200 2753,194 2752,188 2752,183 2750,177 2749,172 2747,166 2744,161 2741,156 2737,152 2733,148 2729,144 2725,140 2720,137 2716,134 2709,132 2704,131 2698,129 2692,128 2687,128 2681,128 2675,129 2670,131 2664,132 2659,134 2654,137 2650,140 2646,143 2642,146 2643,141 2644,136 2644,131 2644,126 2643,120 2641,114 2640,109 2638,103 2635,98 2632,93 2628,89 2624,85 2620,81 2616,77 2612,74 2607,71 2601,69 2596,68 2567,60 2522,67 2486,82 2472,87 2459,94 2446,101 2421,116 2397,134 2376,155 2356,175 2337,199 2323,225 2308,250 2297,278 2289,306 2284,326 2280,346 2279,366 Z"/>
        </g>
       </g>
       <g class="com.sun.star.drawing.ClosedBezierShape">
        <g id="id26">
         <rect class="BoundingBox" stroke="none" fill="none" x="2240" y="27" width="551" height="555"/>
         <path fill="none" stroke="rgb(0,0,0)" stroke-width="4" stroke-linejoin="miter" d="M 2293,579 C 2277,551 2264,520 2256,489 2247,458 2243,426 2243,394 2243,361 2247,328 2256,297 2264,266 2277,234 2293,207 2309,179 2329,153 2352,130 2375,108 2401,87 2429,71 2443,63 2458,56 2473,50 2514,33 2564,23 2605,34 2613,37 2621,39 2628,44 2636,48 2643,54 2649,60 2655,66 2660,74 2665,81 2667,86 2670,90 2671,95 2676,94 2682,94 2687,94 2695,94 2704,95 2713,97 2721,99 2730,102 2737,107 2744,111 2752,117 2758,123 2764,129 2769,136 2774,144 2778,151 2781,160 2784,168 2786,176 2787,185 2787,194 2787,203 2787,212 2784,220 2782,228 2779,236 2774,244 2770,251 2764,259 2758,265 2752,271 2745,277 2737,281 2730,285 2721,289 2713,291 2704,293 2695,294 2687,294 2682,294 2677,294 2671,293 2670,298 2668,303 2665,307 2661,315 2655,322 2649,328 2643,334 2635,339 2628,344 2621,348 2613,351 2605,354 2597,356 2588,357 2579,357 2570,357 2561,356 2553,354 2545,351 2536,348 2529,344 2516,336 2501,329 2487,326 2473,322 2456,321 2442,321 2427,321 2412,322 2398,326 2383,329 2369,336 2356,344 2343,351 2331,361 2320,371 2310,382 2300,393 2293,406 2285,419 2279,433 2276,448 2272,462 2270,477 2270,492 2270,507 2272,523 2276,537 2279,551 2285,566 2293,579 Z"/>
        </g>
       </g>
       <g class="com.sun.star.drawing.ClosedBezierShape">
        <g id="id27">
         <rect class="BoundingBox" stroke="none" fill="none" x="2276" y="62" width="481" height="312"/>
         <path fill="none" stroke="rgb(0,0,0)" stroke-width="4" stroke-linejoin="miter" d="M 2279,366 C 2284,359 2290,353 2296,347 2309,334 2323,323 2339,314 2354,305 2371,298 2389,293 2406,288 2424,286 2442,286 2460,286 2479,288 2496,293 2513,298 2531,305 2546,314 2551,317 2557,319 2562,320 2567,322 2573,323 2579,323 2585,323 2590,322 2596,320 2601,319 2607,317 2612,314 2616,311 2620,307 2624,303 2628,299 2632,295 2635,290 2638,285 2640,279 2641,274 2643,268 2644,262 2644,257 2644,252 2643,247 2642,242 2645,245 2650,248 2654,251 2659,254 2664,256 2670,257 2675,259 2681,260 2687,260 2692,260 2698,259 2704,257 2709,256 2715,254 2720,251 2725,248 2729,244 2733,240 2737,237 2741,232 2744,227 2747,222 2749,216 2750,211 2752,206 2752,200 2753,194 2752,188 2752,183 2750,177 2749,172 2747,166 2744,161 2741,156 2737,152 2733,148 2729,144 2725,140 2720,137 2716,134 2709,132 2704,131 2698,129 2692,128 2687,128 2681,128 2675,129 2670,131 2664,132 2659,134 2654,137 L 2642,146 C 2643,141 2644,136 2644,131 2644,126 2643,120 2641,114 2640,109 2638,103 2635,98 2632,93 2628,89 2624,85 2620,81 2616,77 2612,74 2607,71 2601,69 2596,68 2567,60 2522,67 2486,82 2472,87 2459,94 2446,101 2421,116 2397,134 2376,155 2356,175 2337,199 2323,225 2308,250 2297,278 2289,306 2284,326 2280,346 2279,366 Z"/>
        </g>
       </g>
       <g class="com.sun.star.drawing.OpenBezierShape">
        <g id="id28">
         <rect class="BoundingBox" stroke="none" fill="none" x="2258" y="364" width="38" height="218"/>
         <path fill="none" stroke="rgb(0,0,0)" stroke-width="4" stroke-linejoin="miter" d="M 2279,366 C 2250,438 2254,507 2293,579"/>
        </g>
       </g>
       <g class="com.sun.star.drawing.OpenBezierShape">
        <g id="id29">
         <rect class="BoundingBox" stroke="none" fill="none" x="2641" y="57" width="55" height="88"/>
         <path fill="none" stroke="rgb(0,0,0)" stroke-width="4" stroke-linejoin="miter" d="M 2643,143 L 2692,59"/>
        </g>
       </g>
       <g class="com.sun.star.drawing.OpenBezierShape">
        <g id="id30">
         <rect class="BoundingBox" stroke="none" fill="none" x="2615" y="192" width="139" height="6"/>
         <path fill="none" stroke="rgb(0,0,0)" stroke-width="4" stroke-linejoin="miter" d="M 2752,195 L 2616,195"/>
        </g>
       </g>
       <g class="com.sun.star.drawing.ClosedBezierShape">
        <g id="id31">
         <rect class="BoundingBox" stroke="none" fill="none" x="2269" y="321" width="348" height="370"/>
         <path fill="rgb(238,221,119)" stroke="none" d="M 2616,494 C 2616,485 2615,477 2613,468 2610,460 2607,451 2603,443 2598,436 2593,429 2587,423 2581,417 2573,411 2566,407 2558,403 2550,399 2542,397 2533,395 2524,394 2516,394 2511,394 2505,394 2500,395 2498,391 2496,386 2494,382 2489,374 2484,367 2478,361 2472,355 2464,349 2457,345 2450,341 2441,337 2433,335 2425,333 2416,331 2407,331 2398,331 2389,333 2381,335 2373,337 2364,341 2357,345 2349,349 2342,355 2336,361 2330,367 2324,374 2320,382 2316,389 2312,396 2310,405 2308,413 2307,423 2307,431 2307,440 2308,448 2310,457 2312,465 2316,473 2320,481 2323,485 2326,490 2329,494 2326,498 2323,502 2320,506 2316,514 2312,522 2310,531 2308,539 2307,548 2307,556 2307,565 2308,574 2310,582 2321,623 2354,662 2389,689 2376,679 2364,668 2353,657 2330,634 2310,608 2294,580 2286,567 2280,553 2276,538 2272,524 2270,509 2270,494 2270,480 2272,463 2276,449 2280,434 2286,420 2294,407 2301,394 2310,382 2321,372 2332,361 2344,352 2357,345 2370,337 2384,331 2398,328 2413,324 2428,322 2443,322 2458,322 2473,324 2488,328 2502,331 2517,337 2530,345 2543,352 2554,361 2565,372 2575,382 2585,394 2593,407 2600,420 2606,434 2610,449 2614,463 2616,479 2616,494 Z"/>
        </g>
       </g>
       <g class="com.sun.star.drawing.ClosedBezierShape">
        <g id="id32">
         <rect class="BoundingBox" stroke="none" fill="none" x="2267" y="319" width="352" height="373"/>
         <path fill="none" stroke="rgb(0,0,0)" stroke-width="4" stroke-linejoin="miter" d="M 2616,494 C 2616,485 2615,477 2613,468 2610,460 2607,451 2603,443 2598,436 2593,429 2587,423 2581,417 2573,411 2566,407 2558,403 2550,399 2542,397 2533,395 2524,394 2516,394 2511,394 2505,394 2500,395 2498,391 2496,386 2494,382 2489,374 2484,367 2478,361 2472,355 2464,349 2457,345 2450,341 2441,337 2433,335 2425,333 2416,331 2407,331 2398,331 2389,333 2381,335 2373,337 2364,341 2357,345 2349,349 2342,355 2336,361 2330,367 2324,374 2320,382 2316,389 2312,396 2310,405 2308,413 2307,423 2307,431 2307,440 2308,448 2310,457 2312,465 2316,473 2320,481 2323,485 2326,490 2329,494 L 2320,506 C 2316,514 2312,522 2310,531 2308,539 2307,548 2307,556 2307,565 2308,574 2310,582 2321,623 2354,662 2389,689 2376,679 2364,668 2353,657 2330,634 2310,608 2294,580 2286,567 2280,553 2276,538 2272,524 2270,509 2270,494 2270,480 2272,463 2276,449 2280,434 2286,420 2294,407 2301,394 2310,382 2321,372 2332,361 2344,352 2357,345 2370,337 2384,331 2398,328 2413,324 2428,322 2443,322 2458,322 2473,324 2488,328 2502,331 2517,337 2530,345 2543,352 2554,361 2565,372 2575,382 2585,394 2593,407 2600,420 2606,434 2610,449 2614,463 2616,479 2616,494 Z"/>
        </g>
       </g>
       <g class="com.sun.star.drawing.OpenBezierShape">
        <g id="id33">
         <rect class="BoundingBox" stroke="none" fill="none" x="2285" y="326" width="334" height="366"/>
         <path fill="none" stroke="rgb(0,0,0)" stroke-width="4" stroke-linejoin="miter" d="M 2616,494 C 2616,436 2572,389 2521,360 2470,330 2407,316 2357,345 2344,352 2334,362 2325,372 2316,383 2309,395 2304,408 2298,422 2294,435 2291,449 2289,464 2288,479 2288,494 2288,508 2289,523 2291,538 2294,552 2298,566 2304,580 2316,611 2335,640 2353,657 2364,668 2376,679 2389,689"/>
        </g>
       </g>
       <g class="com.sun.star.drawing.ClosedBezierShape">
        <g id="id34">
         <rect class="BoundingBox" stroke="none" fill="none" x="2306" y="330" width="633" height="438"/>
         <path fill="rgb(238,221,119)" stroke="none" d="M 2937,580 C 2921,608 2901,634 2878,657 2856,680 2829,700 2801,716 2773,732 2742,745 2711,753 2680,762 2647,766 2616,766 2584,766 2551,762 2520,753 2489,745 2458,732 2430,716 2416,708 2402,699 2389,689 2354,662 2321,623 2310,582 2308,574 2307,565 2307,556 2307,548 2308,539 2310,531 2312,522 2316,514 2320,506 2323,502 2326,498 2329,494 2326,490 2323,485 2320,481 2316,473 2312,465 2310,457 2308,448 2307,440 2307,431 2307,423 2308,413 2310,405 2312,396 2316,389 2320,382 2324,374 2330,367 2336,361 2342,355 2349,349 2357,345 2364,341 2373,337 2381,335 2389,333 2398,331 2407,331 2416,331 2425,333 2433,335 2441,337 2450,341 2457,345 2464,349 2472,355 2478,361 2484,367 2489,374 2494,382 2496,386 2498,391 2500,395 2505,394 2511,394 2516,394 2524,394 2533,395 2542,397 2550,399 2558,403 2566,407 2573,411 2581,417 2587,423 2593,429 2598,436 2603,443 2607,451 2610,460 2613,468 2615,477 2616,485 2616,494 2616,508 2617,524 2621,538 2625,553 2631,567 2638,580 2646,593 2656,606 2666,616 2677,627 2688,636 2701,643 2714,651 2729,657 2743,661 2758,664 2773,666 2788,666 2803,666 2818,664 2833,661 2847,657 2861,651 2874,643 2887,636 2899,627 2910,616 2921,606 2930,593 2937,580 Z M 2760,699 C 2751,698 2742,696 2734,694 2717,689 2700,682 2684,673 2669,664 2654,653 2641,640 2628,627 2617,613 2609,597 2600,582 2593,565 2589,547 2584,530 2581,512 2581,494 2581,488 2581,482 2579,477 2578,471 2575,466 2573,461 2570,456 2566,451 2562,447 2558,443 2553,440 2549,437 2544,435 2538,432 2533,430 2527,429 2521,428 2516,428 2510,428 2504,429 2499,430 2493,432 2488,434 2483,437 2479,439 2474,442 2471,446 2472,441 2473,436 2473,431 2473,425 2472,419 2470,414 2469,408 2467,403 2464,398 2461,394 2457,389 2453,385 2449,381 2445,378 2440,375 2435,372 2429,370 2424,368 2418,367 2413,366 2407,366 2401,366 2395,367 2390,368 2384,370 2379,372 2374,375 2369,378 2364,381 2360,385 2356,389 2353,394 2350,398 2347,403 2345,408 2343,414 2342,419 2341,425 2341,431 2341,436 2342,442 2343,448 2345,453 2347,459 2350,464 2353,469 2356,473 2360,477 2364,481 2369,485 2374,488 2378,490 2383,492 2388,494 2383,495 2378,497 2374,500 2369,502 2364,506 2360,510 2356,514 2353,519 2350,524 2347,528 2345,534 2343,539 2342,545 2341,551 2341,556 2341,562 2342,568 2343,573 2351,603 2380,638 2410,662 2422,671 2435,679 2447,686 2472,701 2500,713 2529,720 2557,728 2587,732 2616,732 2644,732 2674,728 2702,720 2722,715 2741,708 2760,699 Z"/>
        </g>
       </g>
       <g class="com.sun.star.drawing.ClosedBezierShape">
        <g id="id35">
         <rect class="BoundingBox" stroke="none" fill="none" x="2304" y="328" width="636" height="442"/>
         <path fill="none" stroke="rgb(0,0,0)" stroke-width="4" stroke-linejoin="miter" d="M 2937,580 C 2921,608 2901,634 2878,657 2856,680 2829,700 2801,716 2773,732 2742,745 2711,753 2680,762 2647,766 2616,766 2584,766 2551,762 2520,753 2489,745 2458,732 2430,716 2416,708 2402,699 2389,689 2354,662 2321,623 2310,582 2308,574 2307,565 2307,556 2307,548 2308,539 2310,531 2312,522 2316,514 2320,506 L 2329,494 C 2326,490 2323,485 2320,481 2316,473 2312,465 2310,457 2308,448 2307,440 2307,431 2307,423 2308,413 2310,405 2312,396 2316,389 2320,382 2324,374 2330,367 2336,361 2342,355 2349,349 2357,345 2364,341 2373,337 2381,335 2389,333 2398,331 2407,331 2416,331 2425,333 2433,335 2441,337 2450,341 2457,345 2464,349 2472,355 2478,361 2484,367 2489,374 2494,382 2496,386 2498,391 2500,395 2505,394 2511,394 2516,394 2524,394 2533,395 2542,397 2550,399 2558,403 2566,407 2573,411 2581,417 2587,423 2593,429 2598,436 2603,443 2607,451 2610,460 2613,468 2615,477 2616,485 2616,494 2616,508 2617,524 2621,538 2625,553 2631,567 2638,580 2646,593 2656,606 2666,616 2677,627 2688,636 2701,643 2714,651 2729,657 2743,661 2758,664 2773,666 2788,666 2803,666 2818,664 2833,661 2847,657 2861,651 2874,643 2887,636 2899,627 2910,616 2921,606 2930,593 2937,580 Z"/>
        </g>
       </g>
       <g class="com.sun.star.drawing.ClosedBezierShape">
        <g id="id36">
         <rect class="BoundingBox" stroke="none" fill="none" x="2338" y="363" width="431" height="373"/>
         <path fill="none" stroke="rgb(0,0,0)" stroke-width="4" stroke-linejoin="miter" d="M 2760,699 C 2751,698 2742,696 2734,694 2717,689 2700,682 2684,673 2669,664 2654,653 2641,640 2628,627 2617,613 2609,597 2600,582 2593,565 2589,547 2584,530 2581,512 2581,494 2581,488 2581,482 2579,477 2578,471 2575,466 2573,461 2570,456 2566,451 2562,447 2558,443 2553,440 2549,437 2544,435 2538,432 2533,430 2527,429 2521,428 2516,428 2510,428 2504,429 2499,430 2493,432 2488,434 2483,437 2479,439 2474,442 2471,446 2472,441 2473,436 2473,431 2473,425 2472,419 2470,414 2469,408 2467,403 2464,398 2461,394 2457,389 2453,385 2449,381 2445,378 2440,375 2435,372 2429,370 2424,368 2418,367 2413,366 2407,366 2401,366 2395,367 2390,368 2384,370 2379,372 2374,375 2369,378 2364,381 2360,385 2356,389 2353,394 2350,398 2347,403 2345,408 2343,414 2342,419 2341,425 2341,431 2341,436 2342,442 2343,448 2345,453 2347,459 2350,464 2353,469 2356,473 2360,477 2364,481 2369,485 2374,488 2378,490 2383,492 2388,494 2383,495 2378,497 2374,500 2369,502 2364,506 2360,510 2356,514 2353,519 2350,524 2347,528 2345,534 2343,539 2342,545 2341,551 2341,556 2341,562 2342,568 2343,573 2351,603 2380,638 2410,662 2422,671 2435,679 2447,686 2472,701 2500,713 2529,720 2557,728 2587,732 2616,732 2644,732 2674,728 2702,720 2722,715 2741,708 2760,699 Z"/>
        </g>
       </g>
       <g class="com.sun.star.drawing.OpenBezierShape">
        <g id="id37">
         <rect class="BoundingBox" stroke="none" fill="none" x="2760" y="579" width="180" height="124"/>
         <path fill="none" stroke="rgb(0,0,0)" stroke-width="4" stroke-linejoin="miter" d="M 2760,699 C 2838,688 2895,650 2937,580"/>
        </g>
       </g>
       <g class="com.sun.star.drawing.OpenBezierShape">
        <g id="id38">
         <rect class="BoundingBox" stroke="none" fill="none" x="2287" y="492" width="99" height="6"/>
         <path fill="none" stroke="rgb(0,0,0)" stroke-width="4" stroke-linejoin="miter" d="M 2385,494 L 2288,494"/>
        </g>
       </g>
       <g class="com.sun.star.drawing.ClosedBezierShape">
        <g id="id39">
         <rect class="BoundingBox" stroke="none" fill="none" x="2440" y="190" width="352" height="306"/>
         <path fill="none" stroke="rgb(0,0,0)" stroke-width="4" stroke-linejoin="miter" d="M 2787,492 L 2444,492 2616,195 2787,492 Z"/>
        </g>
       </g>
      </g>
     </g>
    </g>
   </g>
  </g>
 </g>
</svg>