<?xml version="1.0" encoding="UTF-8" standalone="no"?>
<svg
   id="Layer_1"
   data-name="Layer 1"
   viewBox="0 0 79.999998 150"
   version="1.1"
   sodipodi:docname="arkime.svg"
   width="80"
   height="150"
   inkscape:version="1.2.2 (b0a8486541, 2022-12-01)"
   xmlns:inkscape="http://www.inkscape.org/namespaces/inkscape"
   xmlns:sodipodi="http://sodipodi.sourceforge.net/DTD/sodipodi-0.dtd"
   xmlns:xlink="http://www.w3.org/1999/xlink"
   xmlns="http://www.w3.org/2000/svg"
   xmlns:svg="http://www.w3.org/2000/svg">
  <sodipodi:namedview
     id="namedview46"
     pagecolor="#ffffff"
     bordercolor="#000000"
     borderopacity="0.25"
     inkscape:showpageshadow="2"
     inkscape:pageopacity="0.0"
     inkscape:pagecheckerboard="0"
     inkscape:deskcolor="#d1d1d1"
     showgrid="false"
     inkscape:zoom="3.1466667"
     inkscape:cx="160.16949"
     inkscape:cy="25.105932"
     inkscape:window-width="3840"
     inkscape:window-height="2128"
     inkscape:window-x="2560"
     inkscape:window-y="0"
     inkscape:window-maximized="1"
     inkscape:current-layer="Layer_1" />
  <defs
     id="defs17">
    <style
       id="style2">.cls-1{fill:#303030;}.cls-2,.cls-3,.cls-4,.cls-5,.cls-6,.cls-7{fill-rule:evenodd;}.cls-2{fill:url(#linear-gradient);}.cls-3{fill:url(#linear-gradient-2);}.cls-4{fill:#004c83;}.cls-5{fill:url(#linear-gradient-3);}.cls-6{fill:url(#linear-gradient-4);}.cls-7{fill:url(#linear-gradient-5);}</style>
    <linearGradient
       id="linear-gradient"
       x1="20.52"
       y1="88.349998"
       x2="72.629997"
       y2="88.349998"
       gradientUnits="userSpaceOnUse">
      <stop
         offset="0"
         stop-color="#66b689"
         id="stop4" />
      <stop
         offset="1"
         stop-color="#004c83"
         id="stop6" />
    </linearGradient>
    <linearGradient
       id="linear-gradient-2"
       x1="19.42"
       y1="17.18"
       x2="61.119999"
       y2="17.18"
       gradientUnits="userSpaceOnUse">
      <stop
         offset="0"
         stop-color="#004c83"
         id="stop9" />
      <stop
         offset="1"
         stop-color="#66b689"
         id="stop11" />
    </linearGradient>
    <linearGradient
       id="linear-gradient-3"
       x1="6.9299998"
       y1="26.129999"
       x2="73.610001"
       y2="26.129999"
       xlink:href="#linear-gradient" />
    <linearGradient
       id="linear-gradient-4"
       x1="10.39"
       y1="57.560001"
       x2="67.110001"
       y2="57.560001"
       xlink:href="#linear-gradient-2" />
    <linearGradient
       id="linear-gradient-5"
       x1="5.6100001"
       y1="77.629997"
       x2="70.150002"
       y2="77.629997"
       xlink:href="#linear-gradient" />
    <linearGradient
       inkscape:collect="always"
       xlink:href="#linear-gradient"
       id="linearGradient260"
       gradientUnits="userSpaceOnUse"
       x1="20.52"
       y1="88.349998"
       x2="72.629997"
       y2="88.349998" />
    <linearGradient
       inkscape:collect="always"
       xlink:href="#linear-gradient-2"
       id="linearGradient262"
       gradientUnits="userSpaceOnUse"
       x1="19.42"
       y1="17.18"
       x2="61.119999"
       y2="17.18" />
  </defs>
  <path
     class="cls-2"
     d="m 68.1,34.32 a 1.22,1.22 0 0 1 -0.07,-0.17 c -0.36,-0.89 -0.75,-1.79 -1.16,-2.7 0.1,0.56 0.18,1.11 0.25,1.65 0,0.18 0,0.36 0.07,0.55 0,0.35 0.09,0.7 0.12,1 0.03,0.3 0,0.42 0,0.63 0,0.21 0.06,0.61 0.08,0.91 0.02,0.3 0,0.43 0,0.64 0,0.21 0,0.58 0,0.86 v 0.64 c 0,0.27 0,0.54 0,0.8 0,0.26 0,0.42 0,0.63 v 0.77 c 0,0.2 0,0.4 0,0.6 0,0.2 0,0.51 -0.07,0.76 -0.07,0.25 0,0.38 -0.07,0.57 l -0.09,0.74 c 0,0.19 -0.06,0.37 -0.1,0.56 -0.04,0.19 -0.07,0.48 -0.12,0.71 l -0.12,0.54 -0.15,0.7 c -0.05,0.17 -0.09,0.34 -0.14,0.51 l -0.18,0.68 c 0,0.17 -0.11,0.33 -0.16,0.5 L 66,48.1 65.82,48.57 c -0.08,0.22 -0.15,0.44 -0.24,0.65 -0.09,0.21 -0.13,0.31 -0.19,0.46 l -0.27,0.63 -0.21,0.44 c -0.09,0.21 -0.19,0.42 -0.29,0.62 -0.1,0.2 -0.15,0.28 -0.22,0.42 l -0.33,0.61 -0.23,0.4 c -0.12,0.2 -0.23,0.4 -0.36,0.6 -0.13,0.2 -0.16,0.25 -0.24,0.38 -0.08,0.13 -0.25,0.4 -0.38,0.59 -0.13,0.19 -0.17,0.25 -0.25,0.37 l -0.41,0.58 -0.26,0.35 -0.44,0.58 -0.26,0.33 -0.47,0.57 a 3.88,3.88 0 0 1 -0.26,0.31 L 60,58 c -0.09,0.09 -0.17,0.19 -0.26,0.29 l -0.53,0.57 -0.26,0.27 -0.56,0.58 -0.26,0.25 c -0.19,0.2 -0.39,0.39 -0.59,0.58 l -0.25,0.24 -0.63,0.59 -0.23,0.21 -0.67,0.6 -0.21,0.18 -0.71,0.62 -0.19,0.16 -0.76,0.63 -0.15,0.13 -0.83,0.67 -0.08,0.07 -0.92,0.73 v 0 l -1,0.77 v 0 C 40.65,74.11 28.37,81.62 22.73,96.9 c -0.21,0.56 -0.4,1.12 -0.58,1.68 -0.06,0.19 -0.11,0.37 -0.16,0.56 q -0.18,0.57 -0.33,1.14 c -0.06,0.21 -0.11,0.43 -0.16,0.65 -0.05,0.22 -0.17,0.7 -0.24,1 -0.07,0.3 -0.09,0.46 -0.14,0.7 -0.05,0.24 -0.13,0.67 -0.18,1 -0.05,0.33 -0.07,0.47 -0.1,0.71 -0.03,0.24 -0.09,0.67 -0.13,1 -0.04,0.33 0,0.47 -0.07,0.7 -0.07,0.23 -0.05,0.67 -0.07,1 v 0.69 c 0,0.34 0,0.68 0,1 v 0.67 c 0,0.35 0,0.7 0,1 v 0.64 c 0,0.36 0.06,0.72 0.09,1.08 0,0.2 0,0.4 0.07,0.6 0,0.38 0.1,0.76 0.16,1.14 0,0.18 0.05,0.36 0.08,0.54 0.08,0.41 0.16,0.82 0.25,1.24 0,0.14 0.05,0.28 0.09,0.43 0.11,0.48 0.23,1 0.37,1.45 a 1.6,1.6 0 0 0 0.05,0.21 34.43,34.43 0 0 0 1.85,5 l 0.13,0.28 c 0.21,0.45 0.42,0.89 0.65,1.33 a 0.93,0.93 0 0 0 0.05,0.1 v 0 c 3.95,7.61 10.91,14.7 20.94,20.69 v 0 C 30.06,102.33 89,85.69 68.1,34.32 Z"
     id="path31"
     style="fill:url(#linearGradient260)" />
  <path
     class="cls-3"
     d="M 60.12,15.1 59.79,14.88 C 59.54,14.71 59.27,14.55 59,14.39 l -0.38,-0.23 -0.91,-0.51 -0.32,-0.17 c -0.43,-0.22 -0.87,-0.43 -1.32,-0.64 v 0 a 39.31,39.31 0 0 0 -31.53,0 v 0 c -0.45,0.21 -0.89,0.42 -1.32,0.64 l -0.32,0.18 c -0.31,0.16 -0.61,0.33 -0.91,0.5 l -0.38,0.23 -0.79,0.49 -0.33,0.22 c -0.35,0.24 -0.68,0.48 -1,0.72 4.87,5.11 12.67,5.51 20.85,9 7.12,-4.58 15.6,-3.28 20.85,-9 -0.38,-0.24 -0.72,-0.48 -1.07,-0.72 z"
     id="path33"
     style="fill:url(#linearGradient262)" />
  <path
     class="cls-4"
     d="M 34.22,40.65 A 21.57,21.57 0 0 0 27.7,34.74 65.66,65.66 0 0 0 19.86,30.86 q 0,0.41 0,0.81 a 1.77,1.77 0 0 0 0,0.23 c 0,0.2 0,0.41 0,0.61 0,0.2 0,0.14 0,0.2 a 11,11 0 0 0 0.29,1.56 0.13,0.13 0 0 1 0,0.06 v 0 c 1.44,5.35 6.8,8.88 13.49,6.5 v 0 z"
     id="path35" />
  <path
     class="cls-4"
     d="m 60.63,32.5 c 0,-0.2 0,-0.4 0,-0.6 a 1.69,1.69 0 0 0 0,-0.23 q 0,-0.41 0,-0.81 a 66.41,66.41 0 0 0 -7.84,3.88 21.57,21.57 0 0 0 -6.52,5.91 l 0.49,0.18 v 0 c 6.68,2.38 12,-1.15 13.49,-6.5 v 0 c 0,0 0,0 0,-0.07 a 9.74,9.74 0 0 0 0.29,-1.54 1.64,1.64 0 0 0 0.09,-0.22 z"
     id="path37" />
  <path
     class="cls-5"
     d="m 73.45,8.19 v 0 0 c -0.06,-0.5 -0.14,-1 -0.24,-1.52 L 73.15,6.36 c -0.1,-0.52 -0.22,-1 -0.36,-1.58 -0.09,0.44 -0.21,0.87 -0.33,1.28 0,0.13 -0.09,0.25 -0.13,0.38 q -0.14,0.42 -0.3,0.81 c 0,0.14 -0.11,0.27 -0.17,0.4 -0.06,0.13 -0.22,0.49 -0.34,0.72 -0.12,0.23 -0.12,0.24 -0.19,0.36 -0.07,0.12 -0.3,0.5 -0.45,0.74 l -0.15,0.24 c -0.22,0.31 -0.44,0.6 -0.68,0.89 l -0.17,0.18 c -0.19,0.22 -0.39,0.43 -0.59,0.64 l -0.28,0.26 c -0.18,0.17 -0.37,0.33 -0.57,0.49 l -0.31,0.25 c -0.2,0.16 -0.42,0.32 -0.63,0.47 l -0.29,0.2 c -0.31,0.19 -0.62,0.38 -0.94,0.56 v 0 c -0.35,0.19 -0.7,0.37 -1.07,0.54 l -0.33,0.15 -0.8,0.35 -0.42,0.16 c -0.26,0.11 -0.53,0.21 -0.8,0.3 l -0.42,0.15 c -0.31,0.11 -0.63,0.21 -1,0.3 l -0.32,0.1 -0.34,0.1 q -0.78,0.22 -1.59,0.42 l -0.55,0.13 c -0.64,0.16 -1.29,0.3 -2,0.45 -5.46,1.13 -11.76,2.46 -16.4,6 -4.64,-3.5 -10.94,-4.83 -16.4,-6 -0.67,-0.15 -1.33,-0.29 -2,-0.45 L 21.3,16.22 C 20.75,16.09 20.22,15.95 19.7,15.8 L 19.36,15.7 19.04,15.6 C 18.72,15.51 18.41,15.41 18.1,15.3 l -0.42,-0.15 q -0.42,-0.13 -0.81,-0.3 L 16.46,14.69 C 16.18,14.58 15.92,14.46 15.65,14.34 L 15.32,14.19 C 14.96,14.02 14.6,13.84 14.26,13.65 H 14.2 c -0.32,-0.18 -0.63,-0.37 -0.93,-0.56 l -0.3,-0.21 -0.63,-0.46 -0.31,-0.25 c -0.2,-0.16 -0.38,-0.32 -0.57,-0.49 L 11.19,11.42 C 10.98,11.21 10.78,11 10.59,10.78 L 10.43,10.6 C 10.19,10.31 9.96,10.02 9.74,9.71 9.69,9.63 9.65,9.55 9.59,9.47 9.51,9.2 9.35,9 9.21,8.7 9.07,8.4 9.09,8.46 9,8.34 8.91,8.22 8.77,7.87 8.66,7.62 8.55,7.37 8.54,7.35 8.49,7.22 8.44,7.09 8.29,6.69 8.19,6.41 L 8.09,6 C 7.96,5.59 7.85,5.16 7.75,4.72 7.61,5.26 7.5,5.78 7.39,6.3 L 7.33,6.62 C 7.24,7.13 7.16,7.62 7.1,8.13 v 0 0 c -1.24,10.22 4.75,16.57 13.69,20.55 8.42,3.73 16,7 19.48,18.82 C 43.8,35.64 51.33,32.41 59.75,28.68 68.7,24.7 74.68,18.35 73.45,8.19 Z"
     id="path39"
     style="fill:url(#linear-gradient-3)" />
  <path
     class="cls-6"
     d="m 62.23,48.74 -0.14,0.18 a 23,23 0 0 0 5,-14.28 21.3,21.3 0 0 0 -0.19,-2.9 C 65.35,43.92 54,53.37 40.27,53.37 26.54,53.37 15.2,43.93 13.62,31.75 a 2,2 0 0 1 0,-0.24 c -0.06,0.12 -0.18,0.41 -0.36,0.86 a 45.52,45.52 0 0 0 -2.9,15.92 34.74,34.74 0 0 0 7.14,21.32 v 0 c 0.38,0.49 0.77,1 1.19,1.47 q 1,1.11 2,2.16 l 0.29,0.3 0.07,0.07 v 0 l 0.26,0.24 c 0.51,0.51 1,1 1.56,1.49 l 0.64,0.59 c 0.68,0.6 1.38,1.2 2.09,1.78 l 0.12,0.1 c 0.76,0.62 1.54,1.22 2.32,1.81 l 0.23,0.18 v 0 c 1.76,1.32 3.57,2.58 5.41,3.81 a 20.07,20.07 0 0 1 3.1,-3.25 c 0.31,-0.27 0.63,-0.56 1,-0.84 l 0.21,-0.19 c 0.42,-0.36 0.86,-0.73 1.32,-1.1 a 2.31,2.31 0 0 1 0.24,-0.2 l 1.26,-1 0.24,-0.2 1.49,-1.21 v 0 C 51.61,68.15 63.86,58 62.23,48.74 Z M 13.55,32.45 c 0,0.22 -0.05,0.45 -0.07,0.68 0.02,-0.23 0.05,-0.46 0.07,-0.68 z M 43.79,59 Z m 1.53,-0.22 h 0.12 z m 3.06,-0.7 v 0 l 0.34,-0.1 v 0 z m 1.38,-0.44 0.27,-0.1 -0.22,0.08 z m 1.39,-0.52 0.16,-0.07 H 51.2 Z m 4.41,-2.27 0.21,-0.14 -0.13,0.09 z m 1.09,-0.73 0.35,-0.25 -0.16,0.12 z m 1.17,-0.88 0.24,-0.19 a 0.39,0.39 0 0 1 -0.1,0.08 z m 3.61,-3.47 z"
     id="path41"
     style="fill:url(#linear-gradient-4)" />
  <path
     class="cls-7"
     d="m 66.87,31.45 c 0,0.82 0,1.61 0,2.39 0,0.4 0,0.79 -0.06,1.18 C 65.34,59.37 38.26,62 20.08,74.24 4.26,84.93 0,105.24 14.5,121.58 v 0 c 0.1,0.12 0.22,0.23 0.32,0.35 l 0.44,0.48 c 0.43,0.46 0.87,0.92 1.33,1.37 C 15.53,93.67 46.07,89.55 61.85,71.08 76.91,53.47 66.87,31.45 66.87,31.45 Z"
     id="path43"
     style="fill:url(#linear-gradient-5)" />
</svg>
