<?xml version="1.0" encoding="UTF-8" standalone="no"?>
<svg
   xmlns:dc="http://purl.org/dc/elements/1.1/"
   xmlns:cc="http://creativecommons.org/ns#"
   xmlns:rdf="http://www.w3.org/1999/02/22-rdf-syntax-ns#"
   xmlns:svg="http://www.w3.org/2000/svg"
   xmlns="http://www.w3.org/2000/svg"
   xmlns:sodipodi="http://sodipodi.sourceforge.net/DTD/sodipodi-0.dtd"
   xmlns:inkscape="http://www.inkscape.org/namespaces/inkscape"
   sodipodi:docname="splash.svg"
   inkscape:version="1.0.2 (e86c870879, 2021-01-15)"
   version="1.1"
   id="svg3320"
   height="480"
   width="640">
  <defs
     id="defs3322">
    <linearGradient
       id="linearGradient5012">
      <stop
         style="stop-color:#fdf188;stop-opacity:1;"
         offset="0"
         id="stop5014" />
      <stop
         style="stop-color:#d3bc00;stop-opacity:1;"
         offset="1"
         id="stop5016" />
    </linearGradient>
    <linearGradient
       id="linearGradient8543">
      <stop
         style="stop-color:#fffef5;stop-opacity:0.94117647;"
         offset="0"
         id="stop8545" />
      <stop
         style="stop-color:#fce94f;stop-opacity:0;"
         offset="1"
         id="stop8547" />
    </linearGradient>
    <linearGradient
       id="linearGradient11202">
      <stop
         style="stop-color:#c4a000;stop-opacity:1;"
         offset="0"
         id="stop11204" />
      <stop
         style="stop-color:#c4a000;stop-opacity:0;"
         offset="1"
         id="stop11206" />
    </linearGradient>
    <linearGradient
       id="linearGradient18284">
      <stop
         style="stop-color:#000000;stop-opacity:1;"
         offset="0"
         id="stop18286" />
      <stop
         id="stop20913"
         offset="0.5"
         style="stop-color:#000000;stop-opacity:1;" />
      <stop
         id="stop19165"
         offset="1"
         style="stop-color:#000000;stop-opacity:0;" />
    </linearGradient>
    <inkscape:perspective
       sodipodi:type="inkscape:persp3d"
       inkscape:vp_x="0 : 24 : 1"
       inkscape:vp_y="0 : 1000 : 0"
       inkscape:vp_z="48 : 24 : 1"
       inkscape:persp3d-origin="24 : 16 : 1"
       id="perspective47" />
    <clipPath
       clipPathUnits="userSpaceOnUse"
       id="clipPath136">
      <path
         d="M 0,1185 H 1646 V 0 H 0 Z"
         id="path134" />
    </clipPath>
  </defs>
  <sodipodi:namedview
     inkscape:document-rotation="0"
     inkscape:window-maximized="1"
     inkscape:window-y="736"
     inkscape:window-x="1080"
     inkscape:window-height="1054"
     inkscape:window-width="1920"
     showgrid="false"
     inkscape:current-layer="layer1"
     inkscape:document-units="px"
     inkscape:cy="-65.599862"
     inkscape:cx="152.99615"
     inkscape:zoom="0.775"
     inkscape:pageshadow="2"
     inkscape:pageopacity="0.0"
     borderopacity="1.0"
     bordercolor="#666666"
     pagecolor="#ffffff"
     id="base" />
  <metadata
     id="metadata3325">
    <rdf:RDF>
      <cc:Work
         rdf:about="">
        <dc:format>image/svg+xml</dc:format>
        <dc:type
           rdf:resource="http://purl.org/dc/dcmitype/StillImage" />
        <dc:title />
      </cc:Work>
    </rdf:RDF>
  </metadata>
  <g
     transform="translate(0,-572.3622)"
     id="layer1"
     inkscape:groupmode="layer"
     inkscape:label="Layer 1">
    <rect
       y="572.36218"
       x="0"
       height="480"
       width="640"
       id="rect3328"
       style="fill:#000000;fill-opacity:1;stroke:none" />
    <text
       xml:space="preserve"
       style="font-style:normal;font-variant:normal;font-weight:bold;font-stretch:normal;line-height:0;font-family:'DejaVu Sans';-inkscape-font-specification:'DejaVu Sans Bold';text-align:start;letter-spacing:0px;word-spacing:0px;writing-mode:lr-tb;text-anchor:start;fill:#ffffff;fill-opacity:1;stroke:none"
       x="190.68135"
       y="619.20685"
       id="text3002"
       transform="scale(1.0000015)"><tspan
         id="tspan3045"
         style="font-style:normal;font-weight:bold;font-size:20px;line-height:1;-inkscape-font-specification:'DejaVu Sans Bold'"
         sodipodi:role="line"
         x="190.68135"
         y="619.20685">@PROJECT@ @VERSION@ (@DISTRIBUTION@)</tspan><tspan
         id="tspan3041"
         style="font-style:normal;font-weight:bold;font-size:20px;line-height:1;-inkscape-font-specification:'DejaVu Sans Bold'"
         sodipodi:role="line"
         x="190.68135"
         y="639.20685">@ARCHITECTURE@</tspan><tspan
         id="tspan3037"
         style="font-style:normal;font-weight:bold;font-size:20px;line-height:1.2;-inkscape-font-specification:'DejaVu Sans Bold'"
         sodipodi:role="line"
         x="190.68135"
         y="661.20685"> </tspan><tspan
         id="tspan3039"
         style="font-style:normal;font-weight:bold;font-size:13.3333px;line-height:1.2;-inkscape-font-specification:'DejaVu Sans Bold'"
         sodipodi:role="line"
         x="190.68135"
         y="679.47504">Built: @YEAR@-@MONTH@-@DAY@ @HOUR@:@MINUTE@:@SECOND@ @TIMEZONE@</tspan><tspan
         id="tspan3098"
         style="font-style:normal;font-weight:bold;font-size:13.3333px;line-height:1.2;-inkscape-font-specification:'DejaVu Sans Bold'"
         sodipodi:role="line"
         x="190.68135"
         y="695.47504"> </tspan><tspan
         id="tspan3102"
         style="font-style:normal;font-weight:normal;font-size:13.3333px;line-height:1.2;-inkscape-font-specification:'DejaVu Sans'"
         sodipodi:role="line"
         x="190.68135"
         y="711.47498">linux: @LINUX_VERSIONS@</tspan><tspan
         id="tspan3076"
         style="font-style:normal;font-weight:normal;font-size:13.3333px;line-height:1.2;-inkscape-font-specification:'DejaVu Sans'"
         sodipodi:role="line"
         x="190.68135"
         y="727.47491">live-build: @LIVE_BUILD_VERSION@</tspan><tspan
         id="tspan3068"
         style="font-style:normal;font-weight:normal;font-size:13.3333px;line-height:1.2;-inkscape-font-specification:'DejaVu Sans'"
         sodipodi:role="line"
         x="190.68135"
         y="743.47491">live-boot: @LIVE_BOOT_VERSION@</tspan><tspan
         id="tspan3070"
         style="font-style:normal;font-weight:normal;font-size:13.3333px;line-height:1.2;-inkscape-font-specification:'DejaVu Sans'"
         sodipodi:role="line"
         x="190.68135"
         y="759.47485">live-config: @LIVE_CONFIG_VERSION@</tspan><tspan
         id="tspan3012"
         style="font-style:normal;font-weight:normal;font-size:13.3333px;line-height:1.2;-inkscape-font-specification:'DejaVu Sans'"
         sodipodi:role="line"
         x="190.68135"
         y="775.47479">live-tools: @LIVE_TOOLS_VERSION@</tspan><tspan
         id="tspan3066"
         style="font-style:normal;font-weight:normal;font-size:13.3333px;line-height:1.2;-inkscape-font-specification:'DejaVu Sans'"
         sodipodi:role="line"
         x="190.68135"
         y="791.47479"> </tspan></text>
    <text
       transform="translate(0,572.3622)"
       id="text3114"
       y="336.7742"
       x="200"
       style="font-style:normal;font-weight:normal;line-height:0%;font-family:sans-serif;letter-spacing:0px;word-spacing:0px;fill:#000000;fill-opacity:1;stroke:none"
       xml:space="preserve"><tspan
         style="font-size:40px;line-height:1.25;font-family:sans-serif"
         y="336.7742"
         x="200"
         id="tspan3116"
         sodipodi:role="line"> </tspan></text>
    <g
       id="g130"
       transform="matrix(0.11382703,0,0,-0.11382703,2,719.24721)">
      <g
         id="g132"
         clip-path="url(#clipPath136)">
        <g
           id="g138"
           transform="translate(1500.8965,590.3506)">
          <path
             d="m 0,0 c -22.897,2.609 -90.172,6.52 -98.197,-36.271 -0.144,-0.767 -0.347,-1.519 -0.638,-2.242 -1.882,-4.68 26.272,-6.21 35.761,5.955 15.814,20.274 39.078,19.861 56.297,14.838 13.774,-4.019 17.367,0.155 17.517,5.332 C 10.924,-6.034 6.12,-0.698 0,0"
             style="fill:#581d66;fill-opacity:1;fill-rule:nonzero;stroke:none"
             id="path140" />
        </g>
        <g
           id="g142"
           transform="translate(1126.0439,759.5762)">
          <path
             d="m 0,0 c -16.979,-19.102 -1.972,-46.227 7.708,-61.782 17.53,-28.173 46.62,-46.083 80.576,-27.776 26.8,14.451 17.924,57.446 2.987,82.286 C 76.332,17.566 16.98,19.104 0,0"
             style="fill:#581d66;fill-opacity:1;fill-rule:nonzero;stroke:none"
             id="path144" />
        </g>
        <g
           id="g146"
           transform="translate(1076.5439,965.1338)">
          <path
             d="m 0,0 c 8.422,-7.819 17.323,-21.829 22.435,-46.923 11.734,-57.621 8.264,-62.672 -4.011,-59.198 -12.276,3.475 -4.3,23.088 -15.904,59.556 -2.575,8.089 -8.789,22.919 -14.187,35.348 C -15.522,-2.339 -6.664,6.188 0,0 m -145.948,-263.601 c -46.553,-12.847 -79.03,196.689 -92.255,301.207 -1.436,11.342 11.865,16.706 16.304,6.574 41.986,-95.835 122.802,-294.851 75.951,-307.781 m -140.971,-109.635 c -18.162,-14.441 -55.377,54.331 -101.881,105.065 -60.654,66.17 -133.396,125.756 -162.471,175.4 -6.603,11.277 10.945,21.668 22.632,13.404 95.626,-67.618 304.849,-243.677 241.72,-293.869 m -264.927,16.307 c -33.699,-13.232 -45.298,30.021 -83.835,62.445 -38.536,32.422 -104.011,54.016 -125.518,81.943 -5.945,7.718 1.419,14.947 11.073,14.27 37.222,-2.609 73.764,-17.506 116.786,-42.39 65.598,-37.943 124.158,-99.514 81.494,-116.268 m -156.298,-122.238 c -15.424,-26.993 -121.398,38.151 -158.24,61.93 -3.203,2.067 -1.387,7.033 2.397,6.561 45.894,-5.723 179.975,-26.26 155.843,-68.491 m 1031.231,310.998 c -5.073,9.47 -16.635,27.162 -16.624,30.013 0.688,187.285 -86.074,213.986 -108.386,215.955 -5.686,0.502 -21.18,-73.751 -31.225,-86.981 -0.734,-0.964 -2.242,-0.728 -2.695,0.396 -51.34,127.321 -158.06,165.817 -166.604,168.722 -0.353,0.12 -0.739,0.122 -1.078,-0.029 -20.886,-9.199 -27.773,-95.491 -25.507,-108.639 0.178,-1.039 -132.583,156.1 -162.291,142.762 -28.918,-12.983 -32.273,-81.939 -32.662,-98.021 -0.032,-1.318 -1.58,-1.994 -2.572,-1.126 -11.699,10.252 -61.204,52.536 -86.465,56.647 -25.408,4.137 3.449,-65.292 10.543,-81.578 -6.959,13.414 -43.097,64.705 -206.243,119.279 -174.955,58.524 -86.683,-181.439 -73.679,-214.81 0.517,-1.327 -0.871,-2.595 -2.146,-1.958 -28.113,14.042 -251.043,78.805 -338.066,-32.628 -47.794,-61.199 120.254,-195.857 118.861,-195.272 -24.546,10.331 -202.7,13.797 -218.619,0 -39.829,-34.517 96.475,-135.313 156.603,-200.254 0.039,-0.042 0.081,-0.082 0.124,-0.121 9.046,-7.899 14.387,-13.664 14.387,-13.664 -2.316,1.265 -7.353,6.062 -14.392,13.658 -0.038,0.041 -0.079,0.081 -0.122,0.117 -23.173,20.219 -126.418,5.372 -140.681,-13.048 -17.476,-22.57 21.93,-146.324 166.796,-158.726 0.77,-0.066 1.373,-0.682 1.402,-1.456 0.05,-1.311 1.602,-1.973 2.591,-1.111 0.74,0.645 1.473,1.273 2.21,1.914 1.118,0.971 2.236,1.941 3.349,2.901 1.147,0.99 2.288,1.969 3.428,2.949 1.107,0.949 2.213,1.9 3.315,2.84 1.133,0.968 2.263,1.927 3.392,2.886 1.099,0.934 2.198,1.867 3.291,2.79 1.12,0.947 2.235,1.882 3.349,2.818 1.09,0.915 2.179,1.83 3.263,2.735 1.11,0.927 2.214,1.844 3.319,2.761 1.077,0.894 2.155,1.791 3.227,2.676 1.102,0.91 2.199,1.809 3.295,2.71 1.065,0.873 2.129,1.748 3.189,2.612 1.091,0.89 2.177,1.77 3.263,2.651 1.051,0.855 2.105,1.709 3.153,2.554 1.082,0.873 2.158,1.735 3.235,2.599 1.043,0.835 2.086,1.672 3.123,2.499 1.073,0.855 2.139,1.698 3.205,2.543 1.027,0.812 2.055,1.627 3.078,2.431 1.07,0.844 2.134,1.675 3.2,2.508 1.01,0.791 2.024,1.584 3.03,2.367 1.058,0.822 2.109,1.633 3.161,2.445 1.002,0.774 2.005,1.549 3.001,2.315 1.053,0.807 2.098,1.602 3.145,2.4 0.987,0.752 1.975,1.508 2.958,2.252 1.036,0.785 2.065,1.558 3.095,2.333 0.986,0.741 1.972,1.486 2.952,2.217 1.025,0.767 2.043,1.521 3.063,2.278 0.969,0.719 1.94,1.443 2.905,2.154 1.026,0.757 2.044,1.5 3.064,2.247 0.951,0.696 1.905,1.396 2.851,2.086 1.01,0.734 2.013,1.455 3.017,2.18 0.948,0.685 1.899,1.374 2.843,2.05 0.998,0.716 1.988,1.419 2.98,2.125 0.938,0.667 1.876,1.338 2.809,1.996 0.996,0.705 1.985,1.397 2.976,2.092 0.917,0.644 1.837,1.291 2.75,1.927 0.989,0.688 1.969,1.364 2.952,2.043 0.909,0.628 1.82,1.261 2.723,1.88 0.974,0.668 1.939,1.322 2.906,1.98 0.902,0.614 1.806,1.233 2.703,1.838 0.969,0.655 1.93,1.297 2.894,1.941 0.885,0.594 1.773,1.193 2.654,1.778 0.96,0.638 1.912,1.263 2.868,1.893 0.874,0.577 1.752,1.16 2.623,1.729 0.957,0.626 1.905,1.239 2.856,1.856 0.856,0.555 1.717,1.117 2.569,1.665 0.951,0.612 1.893,1.21 2.837,1.813 0.846,0.54 1.696,1.085 2.537,1.618 0.94,0.594 1.87,1.175 2.804,1.761 0.836,0.523 1.675,1.053 2.505,1.57 0.943,0.587 1.878,1.159 2.815,1.737 0.812,0.5 1.627,1.006 2.434,1.499 0.948,0.579 1.888,1.145 2.83,1.714 0.787,0.477 1.58,0.961 2.363,1.431 0.93,0.558 1.85,1.101 2.773,1.649 0.79,0.47 1.585,0.946 2.37,1.409 0.92,0.542 1.83,1.068 2.744,1.601 0.776,0.453 1.557,0.912 2.329,1.359 0.937,0.541 1.864,1.067 2.794,1.599 0.742,0.424 1.488,0.855 2.226,1.273 0.96,0.544 1.909,1.072 2.862,1.606 0.699,0.392 1.402,0.79 2.098,1.176 0.968,0.538 1.928,1.061 2.89,1.589 0.673,0.369 1.351,0.746 2.02,1.109 1.117,0.607 2.224,1.2 3.334,1.794 0.502,0.269 1.009,0.546 1.509,0.812 1.606,0.855 3.204,1.697 4.791,2.523 0.348,0.182 0.692,0.355 1.04,0.535 1.234,0.64 2.466,1.277 3.689,1.9 0.646,0.329 1.282,0.645 1.925,0.969 0.919,0.463 1.841,0.932 2.753,1.385 0.689,0.343 1.369,0.673 2.055,1.01 0.856,0.422 1.716,0.848 2.567,1.261 0.696,0.338 1.384,0.665 2.076,0.997 0.832,0.399 1.667,0.804 2.493,1.195 0.682,0.323 1.356,0.635 2.033,0.951 0.83,0.389 1.661,0.781 2.484,1.161 0.686,0.317 1.364,0.622 2.046,0.933 0.802,0.366 1.608,0.736 2.405,1.095 0.693,0.311 1.379,0.612 2.068,0.918 0.781,0.346 1.564,0.697 2.338,1.036 0.685,0.298 1.362,0.588 2.042,0.881 0.769,0.333 1.541,0.668 2.305,0.993 0.681,0.29 1.353,0.568 2.029,0.851 0.757,0.318 1.516,0.639 2.268,0.948 0.679,0.282 1.35,0.551 2.025,0.826 0.737,0.299 1.476,0.602 2.207,0.895 0.682,0.274 1.357,0.536 2.033,0.803 0.72,0.284 1.443,0.571 2.158,0.849 0.666,0.258 1.325,0.506 1.987,0.759 0.717,0.274 1.436,0.55 2.148,0.818 0.661,0.248 1.315,0.486 1.972,0.728 0.702,0.26 1.407,0.522 2.105,0.775 0.66,0.239 1.313,0.469 1.968,0.703 0.688,0.245 1.376,0.492 2.059,0.73 0.649,0.228 1.292,0.446 1.936,0.667 0.682,0.235 1.366,0.471 2.042,0.698 0.639,0.215 1.272,0.422 1.907,0.632 0.673,0.222 1.347,0.447 2.015,0.663 0.637,0.206 1.266,0.404 1.898,0.604 0.658,0.208 1.317,0.419 1.97,0.622 0.63,0.195 1.253,0.384 1.879,0.574 0.649,0.196 1.299,0.397 1.944,0.588 0.62,0.184 1.234,0.36 1.85,0.539 0.64,0.187 1.283,0.375 1.918,0.556 0.61,0.173 1.214,0.339 1.82,0.507 0.634,0.175 1.27,0.353 1.901,0.523 0.6,0.163 1.194,0.318 1.791,0.476 0.626,0.165 1.254,0.332 1.875,0.491 0.594,0.153 1.183,0.299 1.773,0.447 0.615,0.153 1.231,0.309 1.841,0.457 0.589,0.144 1.172,0.28 1.757,0.418 0.604,0.144 1.209,0.287 1.809,0.425 0.582,0.134 1.16,0.262 1.738,0.39 0.594,0.132 1.188,0.265 1.778,0.392 0.574,0.125 1.143,0.242 1.713,0.361 0.585,0.123 1.171,0.246 1.753,0.363 0.567,0.114 1.129,0.223 1.692,0.333 0.577,0.112 1.155,0.225 1.728,0.333 0.558,0.104 1.11,0.204 1.664,0.304 0.568,0.102 1.137,0.206 1.701,0.303 0.553,0.096 1.101,0.187 1.649,0.278 0.559,0.092 1.119,0.186 1.674,0.274 0.541,0.086 1.077,0.168 1.613,0.249 0.555,0.085 1.109,0.169 1.66,0.249 0.533,0.076 1.062,0.149 1.592,0.223 0.545,0.074 1.09,0.149 1.631,0.219 0.524,0.069 1.046,0.132 1.566,0.197 0.539,0.066 1.077,0.133 1.611,0.193 0.516,0.061 1.028,0.115 1.539,0.171 0.532,0.058 1.062,0.114 1.588,0.167 0.51,0.052 1.016,0.1 1.522,0.146 0.519,0.049 1.039,0.097 1.555,0.141 0.503,0.043 1.004,0.083 1.504,0.122 0.513,0.04 1.025,0.08 1.533,0.116 0.494,0.036 0.985,0.067 1.475,0.098 0.505,0.031 1.009,0.063 1.51,0.091 0.489,0.027 0.975,0.051 1.459,0.074 0.495,0.024 0.988,0.047 1.479,0.067 0.481,0.019 0.959,0.036 1.438,0.051 0.488,0.016 0.976,0.031 1.46,0.043 0.472,0.012 0.94,0.022 1.408,0.029 0.482,0.008 0.962,0.016 1.44,0.02 0.464,0.005 0.926,0.006 1.386,0.008 0.474,0 0.947,0 1.416,-0.003 0.458,-0.003 0.914,-0.009 1.368,-0.015 0.463,-0.007 0.925,-0.013 1.384,-0.024 0.454,-0.01 0.906,-0.023 1.355,-0.036 0.455,-0.014 0.909,-0.028 1.361,-0.045 0.442,-0.017 0.883,-0.036 1.322,-0.057 0.451,-0.019 0.902,-0.042 1.35,-0.066 0.434,-0.024 0.865,-0.049 1.296,-0.075 0.443,-0.029 0.885,-0.057 1.324,-0.087 0.429,-0.032 0.856,-0.063 1.28,-0.096 0.434,-0.034 0.867,-0.069 1.296,-0.107 0.423,-0.037 0.843,-0.075 1.262,-0.114 0.427,-0.041 0.852,-0.083 1.274,-0.126 0.415,-0.043 0.828,-0.087 1.241,-0.134 0.418,-0.045 0.834,-0.093 1.248,-0.143 0.41,-0.049 0.817,-0.1 1.223,-0.151 0.409,-0.053 0.818,-0.107 1.223,-0.163 0.403,-0.054 0.805,-0.111 1.204,-0.169 0.402,-0.057 0.803,-0.118 1.202,-0.178 0.396,-0.061 0.788,-0.123 1.18,-0.186 0.396,-0.064 0.791,-0.131 1.183,-0.197 0.388,-0.066 0.774,-0.133 1.158,-0.201 0.388,-0.071 0.775,-0.141 1.161,-0.214 0.381,-0.071 0.761,-0.144 1.138,-0.218 0.382,-0.074 0.761,-0.151 1.139,-0.228 0.374,-0.077 0.746,-0.155 1.116,-0.234 0.377,-0.08 0.75,-0.162 1.123,-0.245 0.365,-0.081 0.729,-0.163 1.09,-0.246 0.37,-0.086 0.738,-0.174 1.105,-0.262 0.357,-0.086 0.714,-0.172 1.068,-0.259 0.363,-0.091 0.724,-0.184 1.084,-0.276 0.351,-0.091 0.7,-0.182 1.048,-0.274 0.357,-0.096 0.711,-0.193 1.064,-0.29 0.344,-0.095 0.687,-0.19 1.027,-0.287 0.348,-0.1 0.694,-0.201 1.039,-0.302 0.341,-0.1 0.68,-0.2 1.016,-0.302 0.339,-0.103 0.675,-0.208 1.011,-0.312 0.333,-0.105 0.667,-0.209 0.997,-0.315 0.335,-0.107 0.667,-0.218 0.999,-0.327 0.324,-0.107 0.648,-0.215 0.968,-0.323 0.329,-0.113 0.655,-0.227 0.981,-0.34 0.318,-0.111 0.636,-0.223 0.952,-0.336 0.32,-0.115 0.637,-0.232 0.954,-0.348 0.313,-0.116 0.627,-0.231 0.937,-0.348 0.313,-0.119 0.622,-0.239 0.932,-0.359 0.308,-0.119 0.615,-0.238 0.92,-0.359 0.305,-0.121 0.607,-0.243 0.909,-0.366 0.303,-0.123 0.604,-0.245 0.904,-0.37 0.299,-0.125 0.595,-0.25 0.89,-0.376 0.295,-0.126 0.59,-0.251 0.881,-0.378 0.295,-0.129 0.587,-0.258 0.878,-0.389 0.286,-0.127 0.573,-0.255 0.856,-0.383 0.29,-0.133 0.577,-0.266 0.864,-0.4 0.279,-0.129 0.556,-0.258 0.831,-0.389 0.285,-0.135 0.565,-0.271 0.846,-0.408 0.273,-0.132 0.545,-0.264 0.815,-0.397 0.277,-0.137 0.551,-0.276 0.826,-0.415 0.265,-0.133 0.532,-0.268 0.795,-0.403 0.271,-0.141 0.539,-0.281 0.806,-0.422 0.26,-0.137 0.521,-0.273 0.778,-0.41 0.265,-0.143 0.527,-0.286 0.79,-0.43 0.253,-0.137 0.507,-0.275 0.758,-0.415 0.256,-0.143 0.51,-0.288 0.764,-0.431 0.25,-0.142 0.502,-0.284 0.749,-0.426 0.249,-0.144 0.494,-0.288 0.74,-0.433 0.245,-0.144 0.49,-0.287 0.732,-0.431 0.246,-0.148 0.488,-0.296 0.732,-0.445 0.236,-0.143 0.473,-0.286 0.705,-0.43 0.243,-0.15 0.48,-0.3 0.719,-0.451 0.228,-0.143 0.456,-0.287 0.682,-0.43 0.235,-0.152 0.467,-0.303 0.699,-0.455 0.225,-0.146 0.449,-0.291 0.671,-0.438 0.226,-0.149 0.447,-0.3 0.67,-0.449 0.221,-0.148 0.442,-0.297 0.659,-0.445 0.224,-0.154 0.443,-0.307 0.664,-0.46 0.21,-0.147 0.423,-0.293 0.631,-0.44 0.221,-0.156 0.437,-0.312 0.654,-0.469 0.203,-0.144 0.407,-0.29 0.607,-0.434 0.212,-0.155 0.421,-0.311 0.63,-0.465 0.201,-0.148 0.402,-0.297 0.6,-0.445 0.203,-0.153 0.402,-0.305 0.602,-0.457 0.196,-0.151 0.395,-0.301 0.589,-0.451 0.2,-0.155 0.395,-0.309 0.592,-0.463 0.19,-0.149 0.381,-0.298 0.568,-0.447 0.196,-0.156 0.386,-0.311 0.58,-0.467 0.181,-0.147 0.364,-0.293 0.543,-0.44 0.191,-0.157 0.379,-0.314 0.568,-0.472 0.175,-0.145 0.353,-0.292 0.526,-0.436 0.185,-0.157 0.366,-0.314 0.549,-0.47 0.169,-0.145 0.341,-0.29 0.508,-0.434 0.182,-0.159 0.359,-0.315 0.537,-0.471 0.163,-0.145 0.329,-0.288 0.49,-0.432 0.177,-0.158 0.35,-0.314 0.525,-0.472 0.156,-0.141 0.314,-0.283 0.468,-0.423 0.171,-0.156 0.336,-0.312 0.503,-0.466 0.154,-0.143 0.309,-0.285 0.46,-0.427 0.162,-0.151 0.319,-0.303 0.478,-0.454 0.151,-0.143 0.303,-0.287 0.45,-0.43 0.179,-0.17 0.351,-0.341 0.526,-0.511 0.123,-0.12 0.248,-0.241 0.369,-0.361 0.169,-0.167 0.332,-0.333 0.498,-0.499 0.124,-0.124 0.251,-0.25 0.373,-0.373 0.154,-0.156 0.302,-0.309 0.452,-0.465 0.127,-0.129 0.257,-0.261 0.382,-0.39 0.231,-0.241 0.458,-0.481 0.683,-0.719 0.04,-0.042 0.081,-0.084 0.12,-0.127 0.263,-0.28 0.522,-0.558 0.775,-0.835 0.091,-0.098 0.178,-0.196 0.268,-0.295 0.157,-0.173 0.316,-0.346 0.469,-0.518 6.208,-6.935 16.664,-8.02 24.267,-2.651 0.963,0.681 1.929,1.332 2.893,2 1.177,0.819 2.355,1.645 3.536,2.446 1.149,0.781 2.301,1.538 3.452,2.303 1.181,0.786 2.363,1.58 3.547,2.35 1.152,0.75 2.307,1.476 3.462,2.212 1.182,0.753 2.366,1.514 3.55,2.253 1.159,0.72 2.318,1.418 3.477,2.124 1.183,0.72 2.366,1.449 3.55,2.154 1.164,0.693 2.33,1.363 3.494,2.041 1.182,0.689 2.363,1.385 3.546,2.057 1.165,0.663 2.331,1.302 3.497,1.951 1.185,0.658 2.37,1.326 3.556,1.97 1.164,0.631 2.328,1.241 3.492,1.858 1.189,0.63 2.379,1.27 3.569,1.885 1.164,0.603 2.33,1.183 3.496,1.772 1.19,0.601 2.379,1.21 3.568,1.797 1.171,0.577 2.342,1.132 3.512,1.694 1.187,0.571 2.372,1.149 3.559,1.705 1.176,0.551 2.351,1.08 3.528,1.618 1.182,0.539 2.362,1.087 3.544,1.613 1.177,0.523 2.353,1.025 3.529,1.535 1.184,0.513 2.368,1.034 3.55,1.533 1.178,0.497 2.355,0.973 3.531,1.456 1.181,0.485 2.362,0.978 3.541,1.449 1.18,0.471 2.36,0.922 3.54,1.381 1.178,0.457 2.358,0.922 3.537,1.368 1.178,0.444 2.356,0.868 3.534,1.299 1.178,0.433 2.356,0.873 3.533,1.292 1.179,0.418 2.355,0.818 3.533,1.224 1.178,0.406 2.356,0.82 3.532,1.215 1.177,0.394 2.352,0.768 3.528,1.148 1.176,0.381 2.352,0.771 3.528,1.14 1.175,0.369 2.35,0.719 3.524,1.075 1.173,0.358 2.348,0.722 3.522,1.067 1.177,0.345 2.353,0.672 3.528,1.006 1.168,0.332 2.338,0.671 3.505,0.991 1.175,0.322 2.349,0.625 3.523,0.935 1.167,0.308 2.335,0.624 3.5,0.921 1.173,0.299 2.343,0.578 3.514,0.865 1.164,0.286 2.329,0.579 3.492,0.853 1.167,0.275 2.332,0.532 3.498,0.796 1.165,0.264 2.331,0.535 3.494,0.787 1.165,0.253 2.326,0.487 3.489,0.729 1.16,0.242 2.321,0.49 3.479,0.72 1.166,0.233 2.331,0.446 3.496,0.668 1.151,0.219 2.304,0.444 3.455,0.652 1.168,0.212 2.333,0.406 3.499,0.606 1.142,0.197 2.286,0.401 3.426,0.588 1.166,0.19 2.329,0.363 3.493,0.544 1.137,0.177 2.278,0.359 3.414,0.526 1.154,0.168 2.303,0.32 3.456,0.48 1.141,0.157 2.284,0.321 3.424,0.469 1.152,0.149 2.3,0.282 3.451,0.421 1.132,0.137 2.265,0.282 3.395,0.409 1.15,0.13 2.295,0.244 3.443,0.364 1.127,0.118 2.255,0.244 3.38,0.352 1.14,0.111 2.274,0.204 3.411,0.306 1.127,0.1 2.255,0.207 3.379,0.298 1.133,0.092 2.263,0.168 3.395,0.251 1.12,0.081 2.243,0.17 3.36,0.243 1.135,0.074 2.264,0.133 3.396,0.198 1.107,0.064 2.217,0.134 3.321,0.19 1.141,0.056 2.276,0.098 3.413,0.146 1.09,0.047 2.183,0.1 3.27,0.138 1.128,0.039 2.25,0.064 3.375,0.095 1.092,0.03 2.185,0.066 3.274,0.088 1.113,0.023 2.218,0.032 3.326,0.046 1.093,0.014 2.189,0.034 3.278,0.04 1.111,0.007 2.217,-10e-4 3.324,-0.003 1.079,-10e-4 2.16,0.004 3.236,-0.005 1.113,-0.01 2.219,-0.033 3.327,-0.05 1.064,-0.017 2.129,-0.027 3.189,-0.051 1.105,-0.024 2.204,-0.063 3.306,-0.095 1.055,-0.031 2.115,-0.056 3.168,-0.094 1.092,-0.04 2.177,-0.092 3.266,-0.139 1.053,-0.045 2.109,-0.085 3.157,-0.137 1.085,-0.054 2.162,-0.12 3.243,-0.181 1.044,-0.059 2.091,-0.113 3.131,-0.177 1.08,-0.069 2.153,-0.149 3.229,-0.223 1.031,-0.072 2.065,-0.139 3.093,-0.217 1.072,-0.081 2.136,-0.174 3.204,-0.262 1.022,-0.084 2.048,-0.164 3.065,-0.253 1.062,-0.095 2.115,-0.201 3.172,-0.301 1.015,-0.097 2.032,-0.188 3.042,-0.291 1.058,-0.107 2.106,-0.225 3.158,-0.338 1,-0.107 2.003,-0.211 2.997,-0.324 1.05,-0.119 2.091,-0.249 3.135,-0.374 0.988,-0.118 1.981,-0.233 2.964,-0.357 1.041,-0.131 2.072,-0.272 3.108,-0.409 0.977,-0.129 1.957,-0.253 2.929,-0.388 1.024,-0.14 2.036,-0.291 3.054,-0.437 0.974,-0.141 1.954,-0.276 2.924,-0.422 1.007,-0.15 2.005,-0.311 3.006,-0.467 0.968,-0.15 1.94,-0.297 2.903,-0.452 1.015,-0.164 2.021,-0.337 3.032,-0.506 0.937,-0.157 1.878,-0.309 2.809,-0.47 1.019,-0.175 2.027,-0.361 3.04,-0.542 0.912,-0.163 1.83,-0.321 2.736,-0.488 0.988,-0.182 1.965,-0.372 2.945,-0.557 0.922,-0.176 1.85,-0.346 2.766,-0.526 0.984,-0.191 1.956,-0.39 2.933,-0.587 0.899,-0.18 1.803,-0.357 2.696,-0.541 1.007,-0.208 2.002,-0.422 3.001,-0.634 0.853,-0.18 1.713,-0.357 2.56,-0.541 1.001,-0.217 1.991,-0.441 2.985,-0.662 0.833,-0.185 1.673,-0.367 2.501,-0.555 0.998,-0.227 1.981,-0.46 2.97,-0.691 0.813,-0.189 1.632,-0.375 2.439,-0.566 1.002,-0.238 1.991,-0.483 2.984,-0.725 0.782,-0.189 1.57,-0.377 2.345,-0.569 0.951,-0.235 1.889,-0.477 2.832,-0.716 0.808,-0.205 1.622,-0.406 2.424,-0.613 0.926,-0.238 1.838,-0.483 2.756,-0.725 0.801,-0.211 1.611,-0.42 2.407,-0.633 0.973,-0.26 1.931,-0.525 2.894,-0.789 0.728,-0.199 1.464,-0.396 2.187,-0.596 0.982,-0.273 1.949,-0.55 2.922,-0.826 0.69,-0.195 1.389,-0.389 2.074,-0.585 0.957,-0.276 1.899,-0.554 2.845,-0.832 0.687,-0.201 1.384,-0.401 2.065,-0.603 0.949,-0.281 1.88,-0.565 2.817,-0.849 0.666,-0.201 1.34,-0.401 2.002,-0.603 1.13,-0.346 2.242,-0.696 3.356,-1.043 0.454,-0.143 0.915,-0.283 1.366,-0.425 1.265,-0.399 2.512,-0.8 3.756,-1.202 0.291,-0.094 0.589,-0.188 0.879,-0.281 1.529,-0.496 3.043,-0.995 4.54,-1.494 l 0.001,-0.001 c 0.443,-0.147 0.883,-0.269 1.321,-0.38 0.126,-0.033 0.252,-0.061 0.378,-0.09 0.337,-0.078 0.672,-0.145 1.006,-0.202 0.11,-0.019 0.221,-0.04 0.33,-0.058 0.428,-0.064 0.852,-0.113 1.272,-0.145 0.08,-0.005 0.158,-0.006 0.238,-0.011 0.348,-0.021 0.691,-0.031 1.033,-0.03 0.124,0 0.248,0.002 0.371,0.006 0.337,0.008 0.672,0.028 1.002,0.057 0.079,0.007 0.159,0.01 0.238,0.018 0.396,0.041 0.788,0.098 1.175,0.168 0.112,0.02 0.221,0.044 0.331,0.067 0.287,0.058 0.572,0.123 0.852,0.196 0.123,0.031 0.246,0.063 0.368,0.098 0.342,0.097 0.679,0.204 1.011,0.323 0.07,0.024 0.139,0.052 0.209,0.077 0.314,0.118 0.624,0.246 0.93,0.383 0.129,0.059 0.258,0.12 0.386,0.182 0.227,0.108 0.45,0.222 0.671,0.341 0.125,0.067 0.252,0.133 0.376,0.204 0.305,0.173 0.605,0.356 0.897,0.548 0.126,0.083 0.248,0.173 0.371,0.26 0.183,0.127 0.364,0.257 0.542,0.392 0.143,0.108 0.284,0.22 0.424,0.332 0.155,0.126 0.305,0.255 0.456,0.386 0.205,0.178 0.406,0.361 0.603,0.548 0.164,0.158 0.328,0.315 0.486,0.479 0.149,0.153 0.29,0.311 0.433,0.47 0.1,0.112 0.199,0.223 0.297,0.339 0.145,0.169 0.289,0.341 0.428,0.518 0.069,0.089 0.135,0.18 0.204,0.27 0.281,0.372 0.549,0.753 0.799,1.146 0.043,0.066 0.087,0.132 0.128,0.199 0.136,0.218 0.265,0.441 0.39,0.664 0.045,0.079 0.088,0.16 0.131,0.239 0.402,0.745 0.752,1.519 1.042,2.317 0.018,0.049 0.036,0.097 0.053,0.145 0.093,0.266 0.181,0.535 0.262,0.806 0.013,0.041 0.024,0.082 0.036,0.123 0.244,0.841 0.422,1.703 0.532,2.578 l 0.02,0.17 c 0.033,0.287 0.061,0.576 0.078,0.867 0.028,0.458 0.035,0.918 0.023,1.381 -10e-4,0.042 -0.003,0.084 -0.005,0.125 -0.013,0.418 -0.044,0.837 -0.091,1.256 -0.009,0.077 -0.018,0.154 -0.028,0.232 -0.048,0.381 -0.112,0.763 -0.189,1.145 -0.021,0.106 -0.043,0.212 -0.066,0.319 -0.078,0.351 -0.172,0.703 -0.275,1.054 -0.038,0.127 -0.075,0.254 -0.115,0.382 -0.106,0.329 -0.228,0.655 -0.356,0.982 -0.057,0.143 -0.11,0.287 -0.17,0.428 -0.134,0.315 -0.287,0.626 -0.443,0.939 -0.074,0.146 -0.14,0.293 -0.219,0.439 -0.172,0.32 -0.366,0.637 -0.563,0.953 -0.082,0.13 -0.153,0.262 -0.238,0.392 -0.291,0.441 -0.603,0.878 -0.944,1.308 -0.531,0.67 -1.116,1.401 -1.755,2.19 -0.319,0.394 -0.651,0.804 -0.995,1.227 -0.689,0.847 -1.428,1.751 -2.211,2.711 -0.392,0.48 -0.795,0.973 -1.209,1.481 -1.242,1.52 -2.58,3.164 -4.001,4.921 -1.421,1.757 -2.924,3.629 -4.494,5.607 -1.048,1.319 -2.125,2.685 -3.228,4.097 -1.102,1.412 -2.231,2.869 -3.381,4.369 -1.149,1.5 -2.32,3.043 -3.509,4.627 -1.187,1.584 -2.392,3.209 -3.61,4.872 -4.87,6.653 -9.942,13.927 -14.937,21.677 -1.249,1.937 -2.494,3.905 -3.728,5.9 -1.235,1.995 -2.461,4.018 -3.673,6.067 -2.425,4.095 -4.796,8.294 -7.077,12.576 -0.57,1.071 -1.135,2.146 -1.694,3.227 -7.823,15.132 -14.451,31.242 -18.394,47.574 -0.281,1.167 -0.55,2.333 -0.803,3.502 -0.507,2.337 -0.958,4.678 -1.346,7.02 -0.583,3.513 -1.029,7.028 -1.321,10.538 -0.195,2.341 -0.323,4.68 -0.377,7.014 -0.028,1.166 -0.038,2.332 -0.028,3.497 0.019,2.329 0.112,4.653 0.283,6.97 0.172,2.316 0.422,4.625 0.755,6.923 0.189,1.299 0.405,2.593 0.641,3.883 0.078,0.429 0.172,0.855 0.255,1.282 0.168,0.859 0.337,1.718 0.525,2.572 0.112,0.509 0.237,1.014 0.357,1.521 0.181,0.771 0.362,1.541 0.559,2.308 0.139,0.536 0.287,1.069 0.433,1.604 0.2,0.734 0.402,1.467 0.616,2.198 0.16,0.545 0.329,1.089 0.497,1.634 0.222,0.715 0.446,1.43 0.681,2.141 0.179,0.548 0.365,1.094 0.553,1.639 0.244,0.705 0.493,1.41 0.749,2.112 0.198,0.542 0.397,1.083 0.602,1.622 0.268,0.704 0.543,1.406 0.822,2.107 0.212,0.53 0.424,1.06 0.643,1.588 0.295,0.711 0.599,1.419 0.905,2.126 0.222,0.511 0.441,1.023 0.669,1.532 0.327,0.732 0.667,1.459 1.008,2.188 0.223,0.477 0.442,0.956 0.671,1.432 0.38,0.79 0.773,1.575 1.168,2.36 0.204,0.407 0.402,0.815 0.61,1.221 0.518,1.008 1.051,2.01 1.592,3.01 0.096,0.178 0.187,0.358 0.284,0.536 0.648,1.185 1.311,2.365 1.988,3.539 0.158,0.271 0.322,0.539 0.48,0.81 0.521,0.893 1.048,1.783 1.586,2.669 0.241,0.396 0.49,0.787 0.734,1.182 0.469,0.757 0.939,1.513 1.419,2.265 0.277,0.431 0.558,0.859 0.837,1.288 0.462,0.709 0.926,1.418 1.398,2.124 0.295,0.442 0.597,0.882 0.897,1.323 0.469,0.687 0.939,1.374 1.417,2.055 0.309,0.442 0.619,0.879 0.931,1.318 0.482,0.679 0.968,1.356 1.46,2.03 0.314,0.43 0.63,0.859 0.946,1.288 0.504,0.681 1.013,1.359 1.525,2.034 0.312,0.412 0.623,0.824 0.939,1.234 0.534,0.694 1.073,1.386 1.615,2.074 0.3,0.382 0.6,0.764 0.901,1.144 0.582,0.729 1.169,1.454 1.758,2.176 0.271,0.331 0.538,0.664 0.811,0.993 0.663,0.807 1.334,1.606 2.007,2.403 0.204,0.241 0.405,0.484 0.61,0.724 2.695,3.168 5.459,6.264 8.271,9.287 0.112,0.12 0.225,0.239 0.337,0.358 0.817,0.875 1.637,1.745 2.461,2.607 0.198,0.206 0.396,0.411 0.594,0.616 0.743,0.774 1.489,1.545 2.238,2.308 0.232,0.237 0.465,0.471 0.698,0.707 0.719,0.729 1.44,1.455 2.163,2.174 0.246,0.245 0.493,0.488 0.74,0.732 0.717,0.709 1.434,1.415 2.154,2.114 0.243,0.236 0.487,0.472 0.732,0.709 0.733,0.709 1.467,1.412 2.203,2.111 0.224,0.213 0.449,0.427 0.675,0.639 0.765,0.724 1.531,1.441 2.297,2.154 0.195,0.181 0.39,0.363 0.584,0.543 0.827,0.765 1.653,1.521 2.479,2.273 0.129,0.118 0.259,0.237 0.388,0.354 0.944,0.856 1.888,1.705 2.83,2.544 0.009,0.008 0.018,0.017 0.027,0.024 55.168,3.519 121.652,-23.961 167.75,-45.314 -11.672,20.533 -34.406,60.97 -25.551,87.836 1.156,-0.808 2.309,-1.635 3.461,-2.481 0.023,-0.017 0.045,-0.034 0.069,-0.05 1.117,-0.822 2.234,-1.661 3.348,-2.516 0.056,-0.042 0.111,-0.084 0.166,-0.127 1.126,-0.864 2.249,-1.744 3.37,-2.639 0.005,-0.004 0.01,-0.007 0.015,-0.01 2.282,-1.822 4.558,-3.705 6.823,-5.634 0.043,-0.036 0.086,-0.072 0.129,-0.11 1.118,-0.953 2.234,-1.917 3.349,-2.891 0.005,-0.004 0.009,-0.009 0.013,-0.013 2.267,-1.983 4.524,-4.009 6.77,-6.063 0.022,-0.022 0.046,-0.042 0.069,-0.064 8.43,-7.715 16.711,-15.835 24.796,-23.709 0.192,-0.187 0.384,-0.374 0.575,-0.56 0.52,-0.506 1.041,-1.013 1.559,-1.517 0.25,-0.243 0.498,-0.482 0.746,-0.724 0.589,0.78 1.207,1.546 1.89,2.289 10.235,11.135 54.736,-14.414 58.369,-24.409 2.158,-5.938 3.272,-11.628 2.999,-16.835 8.8,-0.569 18.227,-1.354 28.215,-2.412 0.4,0.758 0.624,1.205 0.624,1.205 0.018,0.836 -0.902,2.864 -2.341,5.551"
             style="fill:#8155a2;fill-opacity:1;fill-rule:nonzero;stroke:none"
             id="path148" />
        </g>
        <g
           id="g150"
           transform="translate(1373.1328,792.6211)">
          <path
             d="m 0,0 c 0.273,5.207 -0.841,10.896 -2.999,16.835 -3.633,9.995 -48.134,35.544 -58.369,24.409 -0.683,-0.743 -1.301,-1.51 -1.89,-2.289 V 38.954 C -69.838,30.235 -70.477,19.012 -64.899,0.75 -51.992,1.415 -29.523,1.912 0,0"
             style="fill:#581d66;fill-opacity:1;fill-rule:nonzero;stroke:none"
             id="path152" />
        </g>
        <g
           id="g154"
           transform="translate(1573.9619,796.7393)">
          <path
             d="m 0,0 c -0.507,0.035 -1.016,0.065 -1.529,0.078 -3.83,2.789 -45.152,3.309 -65.357,-7.415 -20.204,-10.723 -25.788,-47.979 -15.516,-50.642 18.064,-4.684 58.005,7.244 65.131,-45.889 0.352,-2.619 0.8,-5.057 1.319,-7.358 -0.02,-0.135 -0.033,-0.224 -0.033,-0.224 l 0.077,0.027 c 0.034,-0.15 0.066,-0.306 0.101,-0.457 0.126,0.213 0.246,0.418 0.37,0.629 l 22.799,8.29 c 0,0 5.201,39.493 25.883,38.251 0.215,-0.013 0.43,-0.023 0.649,-0.045 C 54.839,-66.85 37.797,-2.626 0,0"
             style="fill:#581d66;fill-opacity:1;fill-rule:nonzero;stroke:none"
             id="path156" />
        </g>
        <g
           id="g158"
           transform="translate(1494.1191,572.6309)">
          <path
             d="m 0,0 c -17.219,5.022 -40.482,5.436 -56.297,-14.838 -9.489,-12.165 -37.642,-10.636 -35.761,-5.955 0.291,0.723 0.495,1.475 0.638,2.242 8.025,42.79 75.3,38.88 98.197,36.271 C 12.897,17.021 17.701,11.686 17.518,5.332 17.367,0.154 13.774,-4.02 0,0 m -279.791,97.388 c -33.956,-18.308 -63.046,-0.398 -80.576,27.775 -9.68,15.556 -24.688,42.681 -7.708,61.782 16.98,19.104 76.332,17.567 91.27,-7.272 14.938,-24.84 23.814,-67.835 -2.986,-82.285 m 366.996,23.759 -22.799,-8.29 c -0.124,-0.211 -0.244,-0.416 -0.37,-0.628 -0.035,0.15 -0.067,0.306 -0.101,0.457 l -0.078,-0.028 c 0,0 0.014,0.089 0.034,0.225 -0.519,2.301 -0.967,4.738 -1.319,7.357 -7.127,53.133 -47.067,41.205 -65.132,45.889 -10.271,2.663 -4.687,39.92 15.517,50.642 20.205,10.724 61.526,10.205 65.356,7.416 0.514,-0.013 1.023,-0.043 1.53,-0.079 -22.905,12.888 -26.739,21.96 -111.657,-15.921 -0.338,-0.15 -0.665,-0.289 -0.993,-0.43 -3.671,1.313 -8.013,2.425 -13.107,3.303 -8.514,1.466 -16.771,2.735 -24.745,3.831 -5.769,3.34 -13.154,6.825 -23.829,9.443 1.439,-2.688 2.359,-4.715 2.341,-5.551 0,0 -0.224,-0.447 -0.624,-1.205 -9.988,1.058 -19.416,1.843 -28.215,2.412 -29.524,1.912 -51.993,1.415 -64.9,0.75 -5.577,18.262 -4.938,29.486 1.642,38.204 -0.248,0.242 -0.497,0.483 -0.746,0.725 -0.518,0.504 -1.039,1.011 -1.559,1.517 -0.192,0.186 -0.384,0.373 -0.575,0.56 -8.085,7.874 -16.366,15.994 -24.796,23.709 -0.023,0.022 -0.047,0.042 -0.069,0.064 -2.246,2.054 -4.503,4.08 -6.77,6.063 -0.005,0.004 -0.009,0.009 -0.013,0.013 -1.115,0.974 -2.231,1.938 -3.349,2.891 -0.043,0.037 -0.086,0.074 -0.129,0.11 -2.266,1.929 -4.541,3.812 -6.823,5.633 -0.005,0.003 -0.01,0.007 -0.015,0.011 -1.121,0.895 -2.244,1.775 -3.37,2.639 -0.056,0.043 -0.11,0.085 -0.166,0.127 -1.114,0.855 -2.231,1.694 -3.349,2.515 -0.023,0.017 -0.046,0.034 -0.068,0.051 -1.152,0.846 -2.306,1.673 -3.461,2.481 -8.855,-26.866 13.879,-67.303 25.551,-87.836 -46.098,21.353 -112.582,48.833 -167.75,45.314 -0.009,-0.008 -0.018,-0.016 -0.028,-0.024 -0.941,-0.839 -1.885,-1.688 -2.83,-2.544 -0.128,-0.117 -0.258,-0.236 -0.387,-0.354 -0.826,-0.752 -1.653,-1.508 -2.479,-2.273 -0.194,-0.18 -0.389,-0.362 -0.584,-0.543 -0.766,-0.713 -1.532,-1.43 -2.298,-2.154 -0.225,-0.212 -0.45,-0.426 -0.674,-0.639 -0.736,-0.699 -1.47,-1.402 -2.204,-2.111 -0.244,-0.237 -0.488,-0.473 -0.731,-0.709 -0.72,-0.7 -1.438,-1.405 -2.154,-2.114 -0.247,-0.244 -0.494,-0.487 -0.741,-0.732 -0.722,-0.719 -1.443,-1.445 -2.163,-2.174 -0.232,-0.236 -0.465,-0.471 -0.697,-0.707 -0.749,-0.764 -1.495,-1.534 -2.238,-2.308 -0.198,-0.206 -0.397,-0.41 -0.594,-0.616 -0.824,-0.862 -1.644,-1.732 -2.461,-2.607 -0.112,-0.119 -0.225,-0.238 -0.337,-0.359 -2.812,-3.022 -5.576,-6.118 -8.271,-9.286 -0.205,-0.24 -0.407,-0.483 -0.611,-0.724 -0.672,-0.797 -1.343,-1.596 -2.006,-2.403 -0.272,-0.329 -0.54,-0.662 -0.811,-0.993 -0.589,-0.722 -1.176,-1.447 -1.758,-2.177 -0.302,-0.379 -0.601,-0.761 -0.901,-1.143 -0.542,-0.689 -1.081,-1.38 -1.615,-2.074 -0.316,-0.409 -0.627,-0.822 -0.939,-1.234 -0.513,-0.675 -1.021,-1.353 -1.525,-2.034 -0.317,-0.429 -0.632,-0.858 -0.947,-1.288 -0.491,-0.674 -0.977,-1.352 -1.46,-2.03 -0.311,-0.439 -0.623,-0.876 -0.93,-1.318 -0.478,-0.681 -0.948,-1.368 -1.417,-2.055 -0.3,-0.441 -0.602,-0.881 -0.898,-1.324 -0.471,-0.705 -0.935,-1.414 -1.397,-2.123 -0.279,-0.429 -0.562,-0.857 -0.837,-1.288 -0.48,-0.752 -0.95,-1.508 -1.419,-2.265 -0.244,-0.395 -0.493,-0.786 -0.734,-1.182 -0.538,-0.886 -1.065,-1.776 -1.586,-2.669 -0.158,-0.271 -0.323,-0.539 -0.48,-0.81 -0.678,-1.174 -1.341,-2.354 -1.988,-3.539 -0.097,-0.178 -0.188,-0.358 -0.284,-0.536 -0.541,-1 -1.074,-2.002 -1.592,-3.01 -0.208,-0.406 -0.406,-0.814 -0.61,-1.221 -0.395,-0.785 -0.788,-1.57 -1.168,-2.36 -0.229,-0.476 -0.449,-0.956 -0.671,-1.432 -0.341,-0.729 -0.681,-1.456 -1.008,-2.189 -0.229,-0.508 -0.447,-1.02 -0.669,-1.531 -0.307,-0.707 -0.61,-1.415 -0.905,-2.126 -0.219,-0.528 -0.431,-1.058 -0.643,-1.588 -0.279,-0.701 -0.555,-1.403 -0.822,-2.107 -0.205,-0.539 -0.404,-1.08 -0.603,-1.622 -0.256,-0.702 -0.505,-1.407 -0.748,-2.112 -0.188,-0.545 -0.374,-1.091 -0.553,-1.639 -0.235,-0.711 -0.459,-1.426 -0.681,-2.141 -0.168,-0.545 -0.337,-1.089 -0.497,-1.635 -0.214,-0.73 -0.416,-1.463 -0.616,-2.197 -0.146,-0.535 -0.294,-1.068 -0.433,-1.604 -0.197,-0.767 -0.378,-1.537 -0.56,-2.308 -0.119,-0.507 -0.245,-1.012 -0.356,-1.521 -0.188,-0.854 -0.357,-1.713 -0.525,-2.572 -0.083,-0.427 -0.177,-0.853 -0.255,-1.282 -0.237,-1.29 -0.452,-2.584 -0.641,-3.883 -0.333,-2.299 -0.583,-4.607 -0.755,-6.924 -0.172,-2.316 -0.264,-4.64 -0.283,-6.969 -0.01,-1.165 0,-2.331 0.027,-3.497 0.055,-2.334 0.183,-4.673 0.377,-7.014 0.293,-3.51 0.739,-7.025 1.322,-10.538 0.388,-2.342 0.838,-4.683 1.346,-7.02 0.253,-1.169 0.522,-2.336 0.803,-3.503 3.942,-16.331 10.57,-32.441 18.394,-47.573 0.559,-1.081 1.124,-2.156 1.694,-3.227 2.281,-4.283 4.652,-8.481 7.077,-12.577 1.212,-2.048 2.438,-4.071 3.673,-6.066 1.234,-1.995 2.478,-3.963 3.727,-5.9 4.996,-7.75 10.068,-15.024 14.938,-21.677 1.218,-1.663 2.423,-3.288 3.61,-4.872 1.189,-1.584 2.36,-3.127 3.509,-4.627 1.15,-1.5 2.278,-2.957 3.381,-4.369 1.102,-1.412 2.18,-2.778 3.227,-4.097 1.571,-1.978 3.074,-3.851 4.495,-5.607 1.421,-1.757 2.758,-3.401 4.001,-4.921 0.414,-0.508 0.817,-1.001 1.209,-1.481 0.783,-0.96 1.522,-1.864 2.211,-2.711 0.344,-0.423 0.675,-0.833 0.995,-1.227 0.638,-0.789 1.224,-1.52 1.755,-2.19 0.34,-0.43 0.653,-0.867 0.944,-1.308 0.085,-0.13 0.156,-0.262 0.238,-0.392 0.196,-0.316 0.391,-0.633 0.563,-0.953 0.079,-0.146 0.145,-0.293 0.218,-0.439 0.158,-0.313 0.309,-0.624 0.444,-0.939 0.06,-0.141 0.113,-0.285 0.17,-0.428 0.129,-0.327 0.25,-0.653 0.356,-0.982 0.04,-0.128 0.077,-0.255 0.114,-0.382 0.104,-0.351 0.197,-0.703 0.276,-1.055 0.023,-0.106 0.045,-0.212 0.066,-0.318 0.077,-0.382 0.14,-0.764 0.189,-1.145 0.009,-0.078 0.019,-0.155 0.028,-0.232 0.047,-0.42 0.077,-0.838 0.091,-1.256 0.002,-0.041 0.004,-0.083 0.005,-0.125 0.019,-0.756 -0.016,-1.506 -0.101,-2.248 l -0.02,-0.17 c -0.11,-0.876 -0.289,-1.736 -0.533,-2.578 -0.011,-0.041 -0.022,-0.082 -0.035,-0.123 -0.081,-0.271 -0.168,-0.539 -0.262,-0.807 -0.017,-0.047 -0.036,-0.095 -0.053,-0.144 -0.291,-0.798 -0.639,-1.572 -1.042,-2.317 -0.043,-0.08 -0.086,-0.16 -0.131,-0.239 -0.126,-0.223 -0.254,-0.446 -0.39,-0.664 -0.041,-0.067 -0.086,-0.133 -0.129,-0.199 -0.251,-0.394 -0.517,-0.774 -0.798,-1.146 -0.069,-0.09 -0.135,-0.181 -0.205,-0.27 -0.138,-0.177 -0.282,-0.349 -0.427,-0.519 -0.098,-0.115 -0.198,-0.226 -0.297,-0.338 -0.143,-0.159 -0.284,-0.317 -0.433,-0.47 -0.158,-0.164 -0.322,-0.321 -0.486,-0.479 -0.197,-0.187 -0.399,-0.371 -0.604,-0.549 -0.15,-0.13 -0.3,-0.259 -0.456,-0.385 -0.139,-0.113 -0.28,-0.224 -0.424,-0.332 -0.177,-0.135 -0.358,-0.265 -0.542,-0.392 -0.123,-0.087 -0.245,-0.177 -0.371,-0.26 -0.292,-0.192 -0.591,-0.375 -0.896,-0.548 -0.124,-0.071 -0.251,-0.137 -0.376,-0.204 -0.221,-0.119 -0.444,-0.233 -0.671,-0.341 -0.128,-0.062 -0.257,-0.123 -0.387,-0.182 -0.305,-0.137 -0.615,-0.265 -0.929,-0.383 -0.07,-0.025 -0.139,-0.053 -0.209,-0.077 -0.332,-0.119 -0.669,-0.226 -1.011,-0.323 -0.122,-0.035 -0.245,-0.067 -0.368,-0.098 -0.281,-0.073 -0.565,-0.139 -0.852,-0.196 -0.11,-0.023 -0.22,-0.047 -0.331,-0.068 -0.388,-0.069 -0.779,-0.127 -1.176,-0.168 -0.079,-0.007 -0.158,-0.01 -0.237,-0.017 -0.33,-0.029 -0.665,-0.049 -1.002,-0.057 -0.123,-0.004 -0.247,-0.006 -0.371,-0.006 -0.342,-10e-4 -0.686,0.009 -1.033,0.03 -0.08,0.005 -0.158,0.006 -0.238,0.011 -0.42,0.032 -0.844,0.08 -1.272,0.145 -0.109,0.018 -0.22,0.039 -0.33,0.058 -0.334,0.057 -0.669,0.124 -1.006,0.202 -0.126,0.029 -0.252,0.057 -0.378,0.09 -0.438,0.111 -0.878,0.233 -1.321,0.38 l -10e-4,10e-4 c -1.497,0.499 -3.011,0.997 -4.54,1.494 -0.29,0.093 -0.588,0.187 -0.879,0.281 -1.244,0.402 -2.491,0.803 -3.756,1.202 -0.451,0.142 -0.912,0.282 -1.366,0.425 -1.114,0.347 -2.227,0.697 -3.357,1.043 -0.661,0.202 -1.336,0.402 -2.002,0.603 -0.936,0.283 -1.868,0.568 -2.816,0.849 -0.682,0.202 -1.378,0.402 -2.065,0.603 -0.947,0.278 -1.888,0.556 -2.845,0.831 -0.686,0.197 -1.384,0.391 -2.074,0.586 -0.973,0.276 -1.94,0.553 -2.922,0.826 -0.723,0.2 -1.459,0.397 -2.187,0.596 -0.964,0.264 -1.922,0.529 -2.894,0.789 -0.796,0.213 -1.606,0.422 -2.407,0.633 -0.918,0.242 -1.831,0.486 -2.756,0.725 -0.802,0.207 -1.617,0.408 -2.424,0.613 -0.944,0.239 -1.881,0.48 -2.832,0.716 -0.776,0.192 -1.564,0.38 -2.345,0.569 -0.993,0.242 -1.982,0.486 -2.984,0.725 -0.807,0.191 -1.626,0.377 -2.439,0.566 -0.989,0.231 -1.972,0.464 -2.97,0.691 -0.829,0.188 -1.668,0.37 -2.501,0.555 -0.995,0.221 -1.984,0.445 -2.985,0.662 -0.847,0.184 -1.707,0.361 -2.56,0.541 -0.999,0.212 -1.995,0.426 -3.001,0.634 -0.893,0.184 -1.797,0.361 -2.697,0.541 -0.976,0.197 -1.948,0.396 -2.932,0.587 -0.916,0.18 -1.844,0.35 -2.766,0.526 -0.981,0.185 -1.957,0.375 -2.945,0.557 -0.906,0.167 -1.824,0.325 -2.737,0.488 -1.012,0.181 -2.02,0.367 -3.04,0.542 -0.93,0.161 -1.872,0.313 -2.808,0.47 -1.011,0.169 -2.017,0.342 -3.032,0.506 -0.963,0.155 -1.935,0.302 -2.903,0.452 -1.002,0.156 -1.999,0.317 -3.007,0.467 -0.969,0.145 -1.949,0.281 -2.923,0.422 -1.018,0.146 -2.031,0.297 -3.054,0.437 -0.972,0.135 -1.952,0.259 -2.929,0.388 -1.036,0.137 -2.067,0.278 -3.108,0.409 -0.984,0.124 -1.976,0.238 -2.964,0.357 -1.044,0.125 -2.085,0.255 -3.135,0.374 -0.994,0.113 -1.997,0.216 -2.997,0.324 -1.053,0.113 -2.1,0.231 -3.158,0.338 -1.01,0.103 -2.027,0.194 -3.042,0.291 -1.057,0.1 -2.11,0.206 -3.172,0.301 -1.018,0.089 -2.043,0.169 -3.065,0.252 -1.068,0.089 -2.132,0.182 -3.205,0.263 -1.027,0.078 -2.061,0.145 -3.092,0.217 -1.076,0.074 -2.149,0.154 -3.229,0.223 -1.04,0.064 -2.088,0.118 -3.132,0.177 -1.08,0.061 -2.157,0.127 -3.242,0.181 -1.049,0.052 -2.104,0.092 -3.157,0.137 -1.089,0.047 -2.174,0.099 -3.267,0.138 -1.052,0.039 -2.112,0.064 -3.168,0.095 -1.101,0.032 -2.2,0.07 -3.305,0.095 -1.06,0.024 -2.125,0.034 -3.189,0.051 -1.108,0.017 -2.215,0.04 -3.327,0.049 -1.076,0.01 -2.157,0.005 -3.236,0.006 -1.108,0.002 -2.213,0.01 -3.324,0.003 -1.089,-0.006 -2.185,-0.026 -3.278,-0.04 -1.108,-0.014 -2.214,-0.023 -3.326,-0.046 -1.089,-0.022 -2.183,-0.058 -3.274,-0.089 -1.125,-0.03 -2.247,-0.055 -3.375,-0.094 -1.087,-0.038 -2.18,-0.091 -3.27,-0.138 -1.138,-0.048 -2.272,-0.09 -3.413,-0.146 -1.104,-0.056 -2.214,-0.126 -3.321,-0.19 -1.132,-0.065 -2.261,-0.124 -3.396,-0.198 -1.117,-0.073 -2.24,-0.162 -3.36,-0.243 -1.132,-0.083 -2.262,-0.159 -3.396,-0.251 -1.124,-0.091 -2.252,-0.199 -3.379,-0.298 -1.136,-0.102 -2.27,-0.195 -3.41,-0.306 -1.125,-0.108 -2.254,-0.234 -3.381,-0.352 -1.147,-0.12 -2.293,-0.234 -3.442,-0.364 -1.13,-0.128 -2.264,-0.272 -3.395,-0.409 -1.151,-0.139 -2.299,-0.272 -3.452,-0.421 -1.139,-0.148 -2.282,-0.312 -3.423,-0.469 -1.153,-0.16 -2.303,-0.312 -3.457,-0.48 -1.135,-0.167 -2.276,-0.35 -3.414,-0.526 -1.164,-0.181 -2.326,-0.354 -3.492,-0.544 -1.14,-0.187 -2.284,-0.391 -3.427,-0.588 -1.166,-0.2 -2.331,-0.394 -3.499,-0.606 -1.15,-0.208 -2.303,-0.433 -3.455,-0.652 -1.165,-0.222 -2.329,-0.435 -3.495,-0.668 -1.158,-0.23 -2.319,-0.478 -3.479,-0.72 -1.163,-0.242 -2.324,-0.476 -3.489,-0.729 -1.164,-0.252 -2.33,-0.524 -3.495,-0.787 -1.166,-0.264 -2.33,-0.521 -3.498,-0.796 -1.162,-0.275 -2.327,-0.568 -3.491,-0.853 -1.171,-0.287 -2.342,-0.566 -3.515,-0.865 -1.165,-0.297 -2.333,-0.613 -3.5,-0.921 -1.173,-0.31 -2.347,-0.613 -3.522,-0.935 -1.167,-0.32 -2.337,-0.66 -3.505,-0.992 -1.176,-0.334 -2.351,-0.66 -3.528,-1.005 -1.174,-0.345 -2.349,-0.709 -3.523,-1.067 -1.173,-0.356 -2.348,-0.706 -3.523,-1.075 -1.176,-0.369 -2.353,-0.759 -3.528,-1.14 -1.176,-0.381 -2.351,-0.755 -3.528,-1.148 -1.177,-0.395 -2.354,-0.809 -3.532,-1.215 -1.178,-0.406 -2.354,-0.806 -3.533,-1.225 -1.177,-0.419 -2.356,-0.858 -3.533,-1.291 -1.178,-0.431 -2.356,-0.855 -3.535,-1.299 -1.178,-0.446 -2.358,-0.912 -3.537,-1.369 -1.179,-0.459 -2.359,-0.909 -3.539,-1.38 -1.179,-0.471 -2.36,-0.964 -3.541,-1.449 -1.177,-0.483 -2.353,-0.959 -3.531,-1.456 -1.183,-0.499 -2.366,-1.02 -3.55,-1.533 -1.177,-0.51 -2.352,-1.012 -3.529,-1.535 -1.182,-0.526 -2.362,-1.074 -3.544,-1.613 -1.177,-0.537 -2.353,-1.067 -3.528,-1.619 -1.187,-0.555 -2.372,-1.133 -3.559,-1.704 -1.17,-0.562 -2.341,-1.117 -3.512,-1.694 -1.189,-0.587 -2.379,-1.196 -3.568,-1.797 -1.166,-0.589 -2.332,-1.169 -3.496,-1.772 -1.191,-0.616 -2.38,-1.255 -3.569,-1.885 -1.165,-0.618 -2.329,-1.227 -3.492,-1.858 -1.186,-0.644 -2.371,-1.312 -3.556,-1.97 -1.166,-0.649 -2.332,-1.288 -3.497,-1.951 -1.183,-0.672 -2.365,-1.369 -3.546,-2.057 -1.164,-0.678 -2.33,-1.348 -3.494,-2.041 -1.184,-0.705 -2.368,-1.434 -3.55,-2.154 -1.159,-0.706 -2.319,-1.404 -3.477,-2.124 -1.184,-0.739 -2.368,-1.5 -3.551,-2.253 -1.154,-0.736 -2.309,-1.462 -3.462,-2.212 -1.183,-0.77 -2.365,-1.564 -3.546,-2.35 -1.151,-0.764 -2.303,-1.522 -3.453,-2.303 -1.18,-0.801 -2.358,-1.627 -3.536,-2.446 -1.343,-0.931 -2.687,-1.851 -4.029,-2.804 -7.031,-5 -16.722,-3.868 -22.399,2.628 -0.386,0.442 -0.788,0.891 -1.201,1.345 -0.089,0.099 -0.176,0.196 -0.267,0.295 -0.253,0.276 -0.512,0.555 -0.776,0.835 -0.039,0.043 -0.08,0.085 -0.12,0.127 -0.224,0.238 -0.451,0.478 -0.682,0.719 -0.125,0.129 -0.255,0.26 -0.382,0.39 -0.151,0.156 -0.298,0.309 -0.452,0.465 -0.122,0.123 -0.249,0.249 -0.373,0.373 -0.166,0.166 -0.329,0.332 -0.498,0.499 -0.121,0.12 -0.246,0.241 -0.369,0.361 -0.175,0.17 -0.347,0.34 -0.526,0.511 -0.147,0.143 -0.3,0.286 -0.45,0.43 -0.159,0.151 -0.316,0.303 -0.479,0.454 -0.15,0.142 -0.305,0.284 -0.46,0.427 -0.167,0.154 -0.332,0.309 -0.502,0.466 -0.154,0.14 -0.312,0.282 -0.468,0.423 -0.175,0.158 -0.348,0.314 -0.526,0.472 -0.16,0.144 -0.326,0.287 -0.489,0.432 -0.179,0.156 -0.355,0.312 -0.537,0.471 -0.167,0.144 -0.339,0.289 -0.508,0.434 -0.183,0.156 -0.364,0.313 -0.55,0.47 -0.172,0.144 -0.35,0.291 -0.525,0.436 -0.189,0.158 -0.377,0.315 -0.568,0.472 -0.179,0.147 -0.362,0.293 -0.543,0.44 -0.193,0.155 -0.384,0.311 -0.58,0.467 -0.187,0.149 -0.378,0.298 -0.568,0.447 -0.197,0.154 -0.392,0.308 -0.593,0.462 -0.193,0.151 -0.392,0.301 -0.588,0.452 -0.201,0.152 -0.399,0.304 -0.602,0.457 -0.198,0.148 -0.399,0.297 -0.601,0.445 -0.209,0.154 -0.418,0.31 -0.629,0.465 -0.201,0.144 -0.404,0.29 -0.607,0.434 -0.217,0.157 -0.434,0.313 -0.654,0.469 -0.208,0.147 -0.421,0.293 -0.631,0.44 -0.221,0.153 -0.44,0.306 -0.664,0.46 -0.217,0.148 -0.439,0.296 -0.659,0.445 -0.223,0.149 -0.445,0.3 -0.67,0.449 -0.222,0.147 -0.447,0.292 -0.671,0.438 -0.233,0.152 -0.464,0.303 -0.699,0.455 -0.226,0.143 -0.454,0.287 -0.682,0.43 -0.239,0.151 -0.477,0.301 -0.719,0.451 -0.232,0.144 -0.469,0.287 -0.705,0.43 -0.244,0.149 -0.486,0.297 -0.732,0.445 -0.242,0.144 -0.488,0.287 -0.732,0.431 -0.246,0.145 -0.491,0.289 -0.74,0.433 -0.247,0.142 -0.499,0.284 -0.749,0.426 -0.254,0.143 -0.508,0.288 -0.765,0.431 -0.251,0.14 -0.504,0.278 -0.757,0.415 -0.263,0.144 -0.525,0.287 -0.79,0.43 -0.257,0.137 -0.518,0.273 -0.778,0.41 -0.267,0.141 -0.535,0.281 -0.806,0.422 -0.263,0.135 -0.53,0.269 -0.795,0.403 -0.275,0.139 -0.549,0.278 -0.827,0.415 -0.269,0.133 -0.542,0.265 -0.814,0.397 -0.281,0.137 -0.562,0.273 -0.847,0.408 -0.274,0.131 -0.551,0.26 -0.83,0.389 -0.287,0.133 -0.574,0.267 -0.864,0.4 -0.283,0.128 -0.57,0.256 -0.856,0.383 -0.291,0.13 -0.583,0.26 -0.878,0.389 -0.291,0.127 -0.586,0.252 -0.881,0.377 -0.295,0.126 -0.591,0.251 -0.89,0.376 -0.3,0.125 -0.601,0.248 -0.904,0.371 -0.302,0.123 -0.604,0.245 -0.909,0.366 -0.305,0.121 -0.613,0.24 -0.92,0.359 -0.31,0.12 -0.619,0.24 -0.932,0.359 -0.31,0.117 -0.624,0.232 -0.937,0.348 -0.317,0.116 -0.634,0.233 -0.955,0.348 -0.315,0.113 -0.633,0.224 -0.952,0.336 -0.325,0.113 -0.651,0.227 -0.98,0.34 -0.32,0.108 -0.645,0.215 -0.968,0.323 -0.332,0.109 -0.664,0.219 -0.999,0.327 -0.33,0.105 -0.664,0.21 -0.997,0.314 -0.336,0.105 -0.672,0.209 -1.011,0.313 -0.337,0.102 -0.676,0.202 -1.016,0.302 -0.345,0.101 -0.691,0.202 -1.039,0.301 -0.34,0.098 -0.683,0.193 -1.027,0.288 -0.353,0.097 -0.707,0.194 -1.064,0.29 -0.348,0.092 -0.698,0.183 -1.048,0.274 -0.36,0.092 -0.721,0.185 -1.084,0.275 -0.355,0.088 -0.711,0.174 -1.068,0.26 -0.367,0.088 -0.735,0.176 -1.105,0.262 -0.361,0.083 -0.726,0.165 -1.09,0.246 -0.373,0.083 -0.746,0.165 -1.123,0.245 -0.37,0.079 -0.742,0.157 -1.116,0.234 -0.378,0.077 -0.757,0.154 -1.139,0.228 -0.378,0.074 -0.758,0.147 -1.138,0.218 -0.386,0.072 -0.773,0.143 -1.162,0.214 -0.383,0.068 -0.769,0.134 -1.157,0.201 -0.392,0.066 -0.787,0.133 -1.183,0.197 -0.392,0.063 -0.785,0.125 -1.18,0.186 -0.399,0.06 -0.8,0.121 -1.202,0.178 -0.4,0.058 -0.801,0.115 -1.204,0.169 -0.406,0.056 -0.814,0.11 -1.223,0.162 -0.406,0.052 -0.813,0.103 -1.224,0.152 -0.414,0.05 -0.83,0.097 -1.248,0.143 -0.412,0.047 -0.825,0.091 -1.24,0.134 -0.423,0.043 -0.847,0.085 -1.274,0.126 -0.419,0.039 -0.839,0.077 -1.262,0.114 -0.43,0.038 -0.862,0.073 -1.296,0.107 -0.425,0.033 -0.851,0.064 -1.28,0.096 -0.44,0.03 -0.881,0.058 -1.324,0.086 -0.431,0.027 -0.863,0.052 -1.296,0.076 -0.449,0.024 -0.899,0.046 -1.35,0.066 -0.439,0.021 -0.88,0.04 -1.322,0.057 -0.452,0.017 -0.906,0.031 -1.361,0.045 -0.45,0.013 -0.901,0.026 -1.355,0.036 -0.459,0.01 -0.921,0.017 -1.384,0.024 -0.454,0.006 -0.91,0.012 -1.368,0.015 -0.47,0.003 -0.942,0.003 -1.416,0.003 -0.46,-0.002 -0.922,-0.003 -1.387,-0.008 -0.477,-0.004 -0.958,-0.012 -1.439,-0.02 -0.468,-0.007 -0.937,-0.017 -1.408,-0.029 -0.485,-0.012 -0.972,-0.027 -1.46,-0.043 -0.479,-0.015 -0.957,-0.032 -1.438,-0.051 -0.491,-0.02 -0.984,-0.043 -1.479,-0.067 -0.485,-0.023 -0.97,-0.047 -1.459,-0.074 -0.501,-0.029 -1.005,-0.06 -1.51,-0.091 -0.49,-0.031 -0.981,-0.063 -1.476,-0.098 -0.507,-0.036 -1.019,-0.076 -1.532,-0.116 -0.5,-0.039 -1.001,-0.079 -1.504,-0.122 -0.516,-0.044 -1.036,-0.092 -1.555,-0.141 -0.506,-0.047 -1.012,-0.094 -1.522,-0.146 -0.526,-0.053 -1.057,-0.109 -1.588,-0.167 -0.511,-0.056 -1.023,-0.11 -1.539,-0.171 -0.534,-0.061 -1.072,-0.127 -1.611,-0.193 -0.521,-0.065 -1.042,-0.128 -1.567,-0.197 -0.541,-0.07 -1.085,-0.145 -1.63,-0.219 -0.53,-0.074 -1.059,-0.147 -1.592,-0.223 -0.551,-0.08 -1.106,-0.164 -1.66,-0.249 -0.537,-0.081 -1.073,-0.163 -1.614,-0.249 -0.554,-0.088 -1.114,-0.182 -1.673,-0.274 -0.548,-0.091 -1.096,-0.182 -1.649,-0.278 -0.564,-0.097 -1.133,-0.201 -1.701,-0.304 -0.554,-0.099 -1.107,-0.199 -1.664,-0.303 -0.573,-0.108 -1.152,-0.221 -1.729,-0.333 -0.562,-0.11 -1.125,-0.219 -1.691,-0.333 -0.582,-0.117 -1.168,-0.241 -1.753,-0.363 -0.57,-0.119 -1.14,-0.236 -1.713,-0.361 -0.59,-0.127 -1.184,-0.26 -1.778,-0.392 -0.578,-0.128 -1.156,-0.256 -1.738,-0.39 -0.6,-0.138 -1.206,-0.281 -1.809,-0.425 -0.585,-0.138 -1.168,-0.274 -1.757,-0.418 -0.61,-0.148 -1.226,-0.304 -1.841,-0.457 -0.591,-0.148 -1.179,-0.294 -1.773,-0.447 -0.621,-0.159 -1.249,-0.326 -1.875,-0.491 -0.597,-0.158 -1.192,-0.313 -1.791,-0.476 -0.631,-0.17 -1.267,-0.348 -1.902,-0.523 -0.605,-0.168 -1.21,-0.334 -1.819,-0.507 -0.636,-0.181 -1.277,-0.369 -1.918,-0.556 -0.616,-0.179 -1.23,-0.355 -1.85,-0.539 -0.645,-0.191 -1.295,-0.392 -1.944,-0.588 -0.626,-0.19 -1.249,-0.379 -1.879,-0.574 -0.653,-0.203 -1.312,-0.414 -1.97,-0.622 -0.632,-0.2 -1.261,-0.398 -1.898,-0.604 -0.668,-0.216 -1.343,-0.441 -2.016,-0.663 -0.634,-0.21 -1.267,-0.417 -1.906,-0.632 -0.677,-0.227 -1.36,-0.463 -2.042,-0.698 -0.644,-0.222 -1.287,-0.439 -1.936,-0.667 -0.683,-0.238 -1.371,-0.485 -2.059,-0.73 -0.655,-0.234 -1.308,-0.464 -1.969,-0.703 -0.697,-0.253 -1.402,-0.515 -2.104,-0.775 -0.657,-0.242 -1.312,-0.48 -1.972,-0.728 -0.713,-0.268 -1.431,-0.544 -2.148,-0.818 -0.662,-0.253 -1.322,-0.501 -1.988,-0.76 -0.714,-0.277 -1.437,-0.564 -2.157,-0.848 -0.677,-0.267 -1.351,-0.529 -2.033,-0.803 -0.731,-0.293 -1.471,-0.596 -2.207,-0.895 -0.675,-0.275 -1.347,-0.544 -2.025,-0.826 -0.752,-0.309 -1.511,-0.63 -2.268,-0.948 -0.676,-0.283 -1.349,-0.561 -2.029,-0.851 -0.764,-0.325 -1.536,-0.661 -2.305,-0.993 -0.681,-0.294 -1.357,-0.583 -2.042,-0.881 -0.774,-0.339 -1.558,-0.69 -2.338,-1.036 -0.689,-0.306 -1.375,-0.607 -2.068,-0.919 -0.797,-0.358 -1.603,-0.728 -2.405,-1.094 -0.682,-0.311 -1.36,-0.616 -2.046,-0.933 -0.824,-0.38 -1.655,-0.772 -2.484,-1.161 -0.678,-0.316 -1.351,-0.628 -2.033,-0.951 -0.826,-0.391 -1.661,-0.796 -2.493,-1.195 -0.693,-0.333 -1.38,-0.659 -2.076,-0.997 -0.851,-0.413 -1.711,-0.839 -2.568,-1.261 -0.685,-0.337 -1.365,-0.667 -2.054,-1.01 -0.912,-0.453 -1.834,-0.922 -2.753,-1.385 -0.643,-0.324 -1.28,-0.64 -1.925,-0.969 -1.223,-0.623 -2.455,-1.26 -3.69,-1.9 -0.347,-0.18 -0.691,-0.353 -1.04,-0.535 -1.587,-0.826 -3.184,-1.668 -4.791,-2.524 -0.5,-0.265 -1.006,-0.543 -1.508,-0.811 -1.11,-0.594 -2.216,-1.187 -3.334,-1.794 -0.669,-0.363 -1.347,-0.74 -2.02,-1.109 -0.962,-0.528 -1.922,-1.051 -2.891,-1.589 -0.695,-0.386 -1.398,-0.784 -2.097,-1.176 -0.953,-0.534 -1.903,-1.063 -2.863,-1.607 -0.737,-0.417 -1.483,-0.848 -2.225,-1.272 -0.93,-0.532 -1.858,-1.059 -2.794,-1.6 -0.773,-0.446 -1.553,-0.905 -2.329,-1.358 -0.914,-0.533 -1.824,-1.06 -2.744,-1.602 -0.785,-0.462 -1.58,-0.938 -2.37,-1.408 -0.923,-0.549 -1.843,-1.092 -2.773,-1.649 -0.783,-0.47 -1.576,-0.954 -2.363,-1.431 -0.943,-0.569 -1.882,-1.135 -2.83,-1.714 -0.807,-0.493 -1.622,-0.999 -2.434,-1.499 -0.937,-0.578 -1.872,-1.15 -2.815,-1.737 -0.83,-0.517 -1.669,-1.047 -2.505,-1.57 -0.934,-0.586 -1.864,-1.167 -2.804,-1.761 -0.842,-0.533 -1.691,-1.078 -2.537,-1.618 -0.944,-0.603 -1.887,-1.201 -2.837,-1.813 -0.852,-0.549 -1.713,-1.11 -2.569,-1.665 -0.951,-0.617 -1.9,-1.23 -2.857,-1.856 -0.87,-0.57 -1.749,-1.152 -2.623,-1.729 -0.955,-0.63 -1.907,-1.255 -2.867,-1.893 -0.881,-0.585 -1.769,-1.184 -2.654,-1.778 -0.964,-0.644 -1.925,-1.286 -2.894,-1.941 -0.897,-0.605 -1.801,-1.224 -2.703,-1.838 -0.968,-0.658 -1.932,-1.312 -2.906,-1.98 -0.903,-0.62 -1.815,-1.252 -2.723,-1.88 -0.983,-0.679 -1.964,-1.355 -2.952,-2.043 -0.913,-0.636 -1.833,-1.283 -2.75,-1.927 -0.991,-0.695 -1.98,-1.387 -2.976,-2.092 -0.933,-0.658 -1.872,-1.329 -2.809,-1.996 -0.992,-0.706 -1.982,-1.409 -2.981,-2.125 -0.943,-0.676 -1.894,-1.365 -2.842,-2.05 -1.004,-0.725 -2.007,-1.446 -3.017,-2.18 -0.946,-0.69 -1.9,-1.39 -2.851,-2.086 -1.02,-0.747 -2.039,-1.491 -3.064,-2.247 -0.965,-0.711 -1.936,-1.435 -2.905,-2.154 -1.02,-0.757 -2.038,-1.511 -3.064,-2.278 -0.979,-0.731 -1.966,-1.476 -2.951,-2.217 -1.03,-0.775 -2.059,-1.548 -3.096,-2.333 -0.982,-0.744 -1.97,-1.5 -2.958,-2.252 -1.046,-0.798 -2.091,-1.594 -3.144,-2.4 -0.996,-0.766 -1.999,-1.541 -3.001,-2.315 -1.052,-0.812 -2.104,-1.623 -3.161,-2.445 -1.006,-0.783 -2.02,-1.576 -3.03,-2.367 -1.066,-0.833 -2.13,-1.664 -3.201,-2.508 -1.022,-0.804 -2.05,-1.619 -3.077,-2.432 -1.066,-0.844 -2.133,-1.687 -3.205,-2.543 -1.037,-0.826 -2.08,-1.663 -3.123,-2.499 -1.077,-0.863 -2.153,-1.725 -3.235,-2.598 -1.048,-0.845 -2.102,-1.699 -3.154,-2.554 -1.086,-0.881 -2.172,-1.761 -3.262,-2.651 -1.06,-0.865 -2.124,-1.74 -3.189,-2.613 -1.096,-0.9 -2.193,-1.799 -3.295,-2.71 -1.072,-0.884 -2.15,-1.781 -3.227,-2.675 -1.105,-0.917 -2.209,-1.834 -3.32,-2.761 -1.084,-0.905 -2.172,-1.82 -3.262,-2.735 -1.115,-0.936 -2.229,-1.871 -3.349,-2.818 -1.094,-0.923 -2.192,-1.856 -3.291,-2.79 -1.129,-0.959 -2.259,-1.918 -3.393,-2.887 -1.101,-0.939 -2.208,-1.89 -3.314,-2.839 -1.141,-0.98 -2.281,-1.959 -3.428,-2.949 -1.113,-0.961 -2.231,-1.93 -3.349,-2.901 -1.564,-1.357 -3.126,-2.711 -4.701,-4.087 0.652,-26.543 -5.82,-86.138 -70.086,-208.665 0,0 -17.396,-86.979 26.762,-86.979 44.158,0 108.736,75.467 293.398,177.166 184.663,101.698 279.671,-48.173 279.671,-48.173 0,0 75.927,-131 153.539,-131 0,0 20.741,6.021 12.713,33.453 -8.03,27.431 25.04,211.167 25.04,211.167 0,0 67.286,-168.693 145.204,-225.278 17.819,-12.942 42.589,0.9 40.939,22.861 -3.818,50.868 -4.125,141.374 26.681,235.992 l 64.23,95.677 c 0,0 169.34,-29.449 281.009,144.518 48.127,74.977 79.012,150.412 89.717,178.371 -20.683,1.243 -25.883,-38.251 -25.883,-38.251"
             style="fill:#c6b9db;fill-opacity:1;fill-rule:nonzero;stroke:none"
             id="path160" />
        </g>
        <g
           id="g162"
           transform="translate(431.1992,163.4482)">
          <path
             d="m 0,0 c 0,0 -3.967,-128.181 33.502,-128.181 66.237,0 125.461,190.496 125.461,190.496 0,0 -38.806,-2.988 -76.942,-19.718 C 45.329,26.499 0,0 0,0"
             style="fill:#c6b9db;fill-opacity:1;fill-rule:nonzero;stroke:none"
             id="path164" />
        </g>
        <g
           id="g166"
           transform="translate(368.4004,485.9668)">
          <path
             d="m 0,0 c 24.132,42.231 -109.949,62.768 -155.844,68.491 -3.783,0.472 -5.599,-4.494 -2.396,-6.561 C -121.398,38.151 -15.425,-26.993 0,0"
             style="fill:#581d66;fill-opacity:1;fill-rule:nonzero;stroke:none"
             id="path168" />
        </g>
        <g
           id="g170"
           transform="translate(440.8633,670.6494)">
          <path
             d="M 0,0 C 38.537,-32.424 50.136,-75.677 83.835,-62.444 126.499,-45.69 67.938,15.881 2.341,53.823 -40.682,78.707 -77.224,93.604 -114.445,96.214 -124.1,96.891 -131.463,89.661 -125.519,81.943 -104.012,54.017 -38.536,32.423 0,0"
             style="fill:#581d66;fill-opacity:1;fill-rule:nonzero;stroke:none"
             id="path172" />
        </g>
        <g
           id="g174"
           transform="translate(687.7441,696.9629)">
          <path
             d="m 0,0 c 46.504,-50.734 83.719,-119.506 101.881,-105.065 63.129,50.192 -146.094,226.251 -241.72,293.869 -11.687,8.264 -29.235,-2.127 -22.632,-13.404 C -133.396,125.756 -60.654,66.17 0,0"
             style="fill:#581d66;fill-opacity:1;fill-rule:nonzero;stroke:none"
             id="path176" />
        </g>
        <g
           id="g178"
           transform="translate(930.5957,701.5332)">
          <path
             d="m 0,0 c 46.852,12.93 -33.965,211.945 -75.951,307.78 -4.439,10.132 -17.739,4.769 -16.304,-6.573 C -79.029,196.688 -46.553,-12.848 0,0"
             style="fill:#581d66;fill-opacity:1;fill-rule:nonzero;stroke:none"
             id="path180" />
        </g>
        <g
           id="g182"
           transform="translate(1079.0635,918.5684)">
          <path
             d="m 0,0 c 11.604,-36.468 3.629,-56.081 15.904,-59.556 12.276,-3.473 15.745,1.577 4.011,59.199 C 14.804,24.736 5.902,38.746 -2.52,46.565 -9.184,52.754 -18.042,44.227 -14.187,35.349 -8.788,22.92 -2.574,8.09 0,0"
             style="fill:#581d66;fill-opacity:1;fill-rule:nonzero;stroke:none"
             id="path184" />
        </g>
      </g>
    </g>
  </g>
</svg>
