<?xml version="1.0" encoding="UTF-8" standalone="no"?>
<svg
   xmlns:dc="http://purl.org/dc/elements/1.1/"
   xmlns:cc="http://creativecommons.org/ns#"
   xmlns:rdf="http://www.w3.org/1999/02/22-rdf-syntax-ns#"
   xmlns:svg="http://www.w3.org/2000/svg"
   xmlns="http://www.w3.org/2000/svg"
   xmlns:sodipodi="http://sodipodi.sourceforge.net/DTD/sodipodi-0.dtd"
   xmlns:inkscape="http://www.inkscape.org/namespaces/inkscape"
   sodipodi:docname="splash.svg"
   inkscape:version="1.0.2 (e86c870879, 2021-01-15)"
   version="1.1"
   id="svg3320"
   height="480"
   width="640">
  <defs
     id="defs3322">
    <linearGradient
       id="linearGradient5012">
      <stop
         style="stop-color:#fdf188;stop-opacity:1;"
         offset="0"
         id="stop5014" />
      <stop
         style="stop-color:#d3bc00;stop-opacity:1;"
         offset="1"
         id="stop5016" />
    </linearGradient>
    <linearGradient
       id="linearGradient8543">
      <stop
         style="stop-color:#fffef5;stop-opacity:0.94117647;"
         offset="0"
         id="stop8545" />
      <stop
         style="stop-color:#fce94f;stop-opacity:0;"
         offset="1"
         id="stop8547" />
    </linearGradient>
    <linearGradient
       id="linearGradient11202">
      <stop
         style="stop-color:#c4a000;stop-opacity:1;"
         offset="0"
         id="stop11204" />
      <stop
         style="stop-color:#c4a000;stop-opacity:0;"
         offset="1"
         id="stop11206" />
    </linearGradient>
    <linearGradient
       id="linearGradient18284">
      <stop
         style="stop-color:#000000;stop-opacity:1;"
         offset="0"
         id="stop18286" />
      <stop
         id="stop20913"
         offset="0.5"
         style="stop-color:#000000;stop-opacity:1;" />
      <stop
         id="stop19165"
         offset="1"
         style="stop-color:#000000;stop-opacity:0;" />
    </linearGradient>
    <inkscape:perspective
       sodipodi:type="inkscape:persp3d"
       inkscape:vp_x="0 : 24 : 1"
       inkscape:vp_y="0 : 1000 : 0"
       inkscape:vp_z="48 : 24 : 1"
       inkscape:persp3d-origin="24 : 16 : 1"
       id="perspective47" />
  </defs>
  <sodipodi:namedview
     inkscape:document-rotation="0"
     inkscape:window-maximized="1"
     inkscape:window-y="0"
     inkscape:window-x="2560"
     inkscape:window-height="2134"
     inkscape:window-width="3840"
     showgrid="false"
     inkscape:current-layer="layer1"
     inkscape:document-units="px"
     inkscape:cy="373.57912"
     inkscape:cx="152.99615"
     inkscape:zoom="0.775"
     inkscape:pageshadow="2"
     inkscape:pageopacity="0.0"
     borderopacity="1.0"
     bordercolor="#666666"
     pagecolor="#ffffff"
     id="base" />
  <metadata
     id="metadata3325">
    <rdf:RDF>
      <cc:Work
         rdf:about="">
        <dc:format>image/svg+xml</dc:format>
        <dc:type
           rdf:resource="http://purl.org/dc/dcmitype/StillImage" />
        <dc:title />
      </cc:Work>
    </rdf:RDF>
  </metadata>
  <g
     transform="translate(0,-572.3622)"
     id="layer1"
     inkscape:groupmode="layer"
     inkscape:label="Layer 1">
    <rect
       y="572.36218"
       x="0"
       height="480"
       width="640"
       id="rect3328"
       style="fill:#000000;fill-opacity:1;stroke:none" />
    <text
       xml:space="preserve"
       style="font-style:normal;font-variant:normal;font-weight:bold;font-stretch:normal;line-height:0;font-family:'DejaVu Sans';-inkscape-font-specification:'DejaVu Sans Bold';text-align:start;letter-spacing:0px;word-spacing:0px;writing-mode:lr-tb;text-anchor:start;fill:#ffffff;fill-opacity:1;stroke:none"
       x="190.68135"
       y="619.20685"
       id="text3002"
       transform="scale(1.0000015)"><tspan
         id="tspan3045"
         style="font-style:normal;font-weight:bold;font-size:20px;line-height:1;-inkscape-font-specification:'DejaVu Sans Bold'"
         sodipodi:role="line"
         x="190.68135"
         y="619.20685">Hedgehog Linux</tspan><tspan
         id="tspan3041"
         style="font-style:normal;font-weight:bold;font-size:20px;line-height:1;-inkscape-font-specification:'DejaVu Sans Bold'"
         sodipodi:role="line"
         x="190.68135"
         y="639.20685">@PROJECT@ @VERSION@ (@DISTRIBUTION@)</tspan><tspan
         id="tspan3037"
         style="font-style:normal;font-weight:bold;font-size:20px;line-height:1.2;-inkscape-font-specification:'DejaVu Sans Bold'"
         sodipodi:role="line"
         x="190.68135"
         y="661.20685"> </tspan><tspan
         id="tspan3039"
         style="font-style:normal;font-weight:bold;font-size:13.3333px;line-height:1.2;-inkscape-font-specification:'DejaVu Sans Bold'"
         sodipodi:role="line"
         x="190.68135"
         y="679.47504">Built: @YEAR@-@MONTH@-@DAY@ @HOUR@:@MINUTE@:@SECOND@ @TIMEZONE@</tspan><tspan
         id="tspan3098"
         style="font-style:normal;font-weight:bold;font-size:13.3333px;line-height:1.2;-inkscape-font-specification:'DejaVu Sans Bold'"
         sodipodi:role="line"
         x="190.68135"
         y="695.47504"> </tspan><tspan
         id="tspan3102"
         style="font-style:normal;font-weight:normal;font-size:13.3333px;line-height:1.2;-inkscape-font-specification:'DejaVu Sans'"
         sodipodi:role="line"
         x="190.68135"
         y="711.47498">linux: @LINUX_VERSIONS@</tspan><tspan
         id="tspan3076"
         style="font-style:normal;font-weight:normal;font-size:13.3333px;line-height:1.2;-inkscape-font-specification:'DejaVu Sans'"
         sodipodi:role="line"
         x="190.68135"
         y="727.47491">live-build: @LIVE_BUILD_VERSION@</tspan><tspan
         id="tspan3068"
         style="font-style:normal;font-weight:normal;font-size:13.3333px;line-height:1.2;-inkscape-font-specification:'DejaVu Sans'"
         sodipodi:role="line"
         x="190.68135"
         y="743.47491">live-boot: @LIVE_BOOT_VERSION@</tspan><tspan
         id="tspan3070"
         style="font-style:normal;font-weight:normal;font-size:13.3333px;line-height:1.2;-inkscape-font-specification:'DejaVu Sans'"
         sodipodi:role="line"
         x="190.68135"
         y="759.47485">live-config: @LIVE_CONFIG_VERSION@</tspan><tspan
         id="tspan3012"
         style="font-style:normal;font-weight:normal;font-size:13.3333px;line-height:1.2;-inkscape-font-specification:'DejaVu Sans'"
         sodipodi:role="line"
         x="190.68135"
         y="775.47479">live-tools: @LIVE_TOOLS_VERSION@</tspan><tspan
         id="tspan3066"
         style="font-style:normal;font-weight:normal;font-size:13.3333px;line-height:1.2;-inkscape-font-specification:'DejaVu Sans'"
         sodipodi:role="line"
         x="190.68135"
         y="791.47479"> </tspan></text>
    <text
       transform="translate(0,572.3622)"
       id="text3114"
       y="336.7742"
       x="200"
       style="font-style:normal;font-weight:normal;line-height:0%;font-family:sans-serif;letter-spacing:0px;word-spacing:0px;fill:#000000;fill-opacity:1;stroke:none"
       xml:space="preserve"><tspan
         style="font-size:40px;line-height:1.25;font-family:sans-serif"
         y="336.7742"
         x="200"
         id="tspan3116"
         sodipodi:role="line"> </tspan></text>
    <g
       id="g360"
       transform="matrix(0.01055536,0,0,-0.01055536,17.946385,728.89411)">
      <path
         d="m 14539,5550.82 c -229,26.1 -901.8,65.2 -982,-362.7 -1.4,-7.68 -3.5,-15.2 -6.4,-22.42 -18.8,-46.81 262.7,-62.1 357.6,59.55 158.2,202.73 390.8,198.6 563,148.38 137.7,-40.2 173.7,1.54 175.2,53.32 1.8,63.53 -46.2,116.89 -107.4,123.87"
         style="fill:#4f2264;fill-opacity:1;fill-rule:nonzero;stroke:none"
         id="path362" />
      <path
         d="m 10790.4,7243.08 c -169.8,-191.02 -19.7,-462.27 77.1,-617.82 175.3,-281.73 466.2,-460.83 805.8,-277.76 268,144.51 179.2,574.46 29.8,822.85 -149.3,248.39 -742.9,263.76 -912.7,72.73"
         style="fill:#4f2264;fill-opacity:1;fill-rule:nonzero;stroke:none"
         id="path364" />
      <path
         d="m 10295.4,9298.66 c 84.3,-78.2 173.3,-218.3 224.4,-469.23 117.3,-576.21 82.6,-626.72 -40.1,-591.99 -122.8,34.75 -43,230.88 -159.1,595.56 -25.7,80.9 -87.8,229.2 -141.8,353.49 -38.6,88.78 50,174.05 116.6,112.17 z M 8835.96,6662.65 c -465.53,-128.48 -790.3,1966.88 -922.55,3012.07 -14.36,113.42 118.65,167.05 163.04,65.73 419.86,-958.35 1228.02,-2948.5 759.51,-3077.8 z M 7426.25,5566.29 c -181.62,-144.4 -553.77,543.31 -1018.81,1050.66 -606.54,661.7 -1333.96,1257.56 -1624.71,1754 -66.03,112.76 109.45,216.68 226.32,134.03 956.26,-676.18 3048.49,-2436.76 2417.2,-2938.69 z m -2649.27,163.08 c -336.99,-132.33 -452.98,300.2 -838.35,624.44 -385.36,324.23 -1040.11,540.17 -1255.18,819.44 -59.45,77.17 14.19,149.47 110.73,142.7 372.22,-26.09 737.64,-175.07 1167.86,-423.91 655.98,-379.42 1241.58,-995.13 814.94,-1162.67 z M 3214,4506.99 c -154.24,-269.94 -1213.98,381.51 -1582.4,619.29 -32.03,20.68 -13.87,70.33 23.97,65.62 458.94,-57.24 1799.75,-262.6 1558.43,-684.91 z m 10312.3,3109.98 c -50.7,94.69 -166.3,271.62 -166.2,300.12 6.9,1872.85 -860.8,2139.91 -1083.9,2159.51 -56.9,5.1 -211.8,-737.47 -312.2,-869.76 -7.4,-9.65 -22.5,-7.29 -27,3.95 C 11423.6,10484 10356.4,10869 10271,10898 c -3.6,1.2 -7.4,1.2 -10.8,-0.3 -208.9,-92 -277.74,-954.88 -255.1,-1086.37 1.8,-10.38 -1325.81,1560.97 -1622.89,1427.67 -289.18,-129.9 -322.73,-819.4 -326.62,-980.3 -0.32,-13.1 -15.8,-19.9 -25.72,-11.2 -116.99,102.5 -612.04,525.3 -864.66,566.5 -254.07,41.3 34.5,-653 105.43,-815.82 -69.59,134.12 -430.96,647.02 -2062.42,1192.82 -1749.55,585.2 -866.83,-1814.42 -736.79,-2148.14 5.17,-13.27 -8.72,-25.94 -21.46,-19.58 -281.13,140.42 -2510.43,788.05 -3380.66,-326.27 -477.943,-612 1202.54,-1958.58 1188.61,-1952.72 -245.46,103.3 -2027.002,137.97 -2186.1934,0 C -326.563,6399.11 1036.47,5391.16 1637.76,4741.74 c 0.39,-0.42 0.81,-0.82 1.24,-1.2 90.46,-78.99 143.87,-136.64 143.87,-136.64 -23.16,12.65 -73.53,60.62 -143.92,136.57 -0.39,0.41 -0.79,0.81 -1.22,1.17 C 1406,4943.83 373.547,4795.36 230.918,4611.17 56.1602,4385.46 450.215,3147.92 1898.88,3023.91 c 7.7,-0.66 13.73,-6.83 14.02,-14.56 0.5,-13.12 16.02,-19.74 25.91,-11.11 7.4,6.44 14.73,12.73 22.1,19.14 11.18,9.7 22.36,19.4 33.49,29.01 11.47,9.89 22.88,19.69 34.28,29.48 11.07,9.49 22.13,19.01 33.15,28.4 11.33,9.69 22.63,19.28 33.92,28.87 10.99,9.33 21.97,18.67 32.91,27.9 11.2,9.46 22.35,18.82 33.49,28.17 10.9,9.15 21.79,18.3 32.63,27.36 11.1,9.26 22.14,18.43 33.19,27.6 10.77,8.95 21.55,17.91 32.27,26.76 11.02,9.1 21.99,18.1 32.95,27.1 10.65,8.73 21.29,17.48 31.89,26.12 10.91,8.91 21.77,17.71 32.62,26.52 10.52,8.54 21.06,17.09 31.54,25.53 10.82,8.74 21.58,17.36 32.35,25.99 10.43,8.36 20.86,16.73 31.23,24.99 10.72,8.56 21.39,16.98 32.05,25.43 10.27,8.13 20.55,16.28 30.77,24.32 10.71,8.43 21.35,16.75 32.01,25.08 10.1,7.91 20.24,15.84 30.3,23.67 10.58,8.22 21.09,16.33 31.61,24.45 10.02,7.73 20.05,15.49 30.01,23.15 10.53,8.06 20.98,16.02 31.45,24 9.87,7.52 19.75,15.08 29.58,22.52 10.36,7.85 20.65,15.57 30.95,23.33 9.86,7.41 19.72,14.85 29.51,22.17 10.26,7.66 20.44,15.2 30.64,22.78 9.69,7.19 19.4,14.42 29.05,21.53 10.26,7.57 20.44,15 30.64,22.47 9.51,6.97 19.05,13.97 28.51,20.86 10.1,7.35 20.13,14.55 30.17,21.81 9.48,6.85 18.99,13.74 28.43,20.5 9.98,7.16 19.88,14.19 29.8,21.25 9.38,6.67 18.76,13.38 28.09,19.96 9.96,7.05 19.85,13.96 29.76,20.92 9.17,6.43 18.37,12.91 27.5,19.26 9.89,6.89 19.69,13.65 29.52,20.43 9.09,6.28 18.2,12.61 27.23,18.8 9.74,6.68 19.39,13.23 29.06,19.81 9.02,6.14 18.06,12.32 27.03,18.38 9.69,6.55 19.3,12.97 28.94,19.41 8.85,5.94 17.73,11.92 26.54,17.77 9.6,6.39 19.12,12.64 28.67,18.94 8.74,5.77 17.53,11.59 26.24,17.28 9.57,6.26 19.05,12.4 28.56,18.57 8.56,5.55 17.17,11.16 25.69,16.65 9.5,6.11 18.93,12.1 28.37,18.12 8.46,5.4 16.96,10.85 25.37,16.19 9.4,5.93 18.7,11.74 28.04,17.6 8.36,5.24 16.75,10.54 25.05,15.71 9.43,5.87 18.78,11.59 28.15,17.37 8.12,5 16.27,10.06 24.34,14.99 9.48,5.79 18.88,11.45 28.3,17.14 7.87,4.76 15.8,9.61 23.63,14.31 9.3,5.57 18.5,11 27.73,16.49 7.9,4.7 15.85,9.45 23.7,14.08 9.2,5.42 18.3,10.68 27.44,16.02 7.76,4.53 15.57,9.12 23.29,13.58 9.37,5.41 18.64,10.67 27.94,16 7.42,4.24 14.88,8.54 22.26,12.72 9.6,5.44 19.09,10.72 28.62,16.07 6.99,3.91 14.02,7.9 20.98,11.75 9.68,5.38 19.28,10.62 28.9,15.89 6.73,3.69 13.51,7.46 20.2,11.1 11.17,6.07 22.24,12 33.34,17.94 5.02,2.68 10.09,5.45 15.09,8.11 16.06,8.56 32.04,16.97 47.91,25.24 3.48,1.81 6.92,3.55 10.4,5.35 12.34,6.39 24.66,12.77 36.89,19 6.46,3.28 12.82,6.45 19.25,9.69 9.19,4.63 18.41,9.31 27.53,13.85 6.89,3.42 13.69,6.72 20.54,10.09 8.57,4.22 17.17,8.49 25.68,12.62 6.96,3.38 13.84,6.64 20.76,9.96 8.32,4 16.67,8.05 24.93,11.95 6.82,3.24 13.56,6.35 20.33,9.52 8.29,3.88 16.61,7.81 24.84,11.61 6.86,3.16 13.64,6.22 20.46,9.32 8.02,3.67 16.08,7.37 24.05,10.95 6.93,3.12 13.79,6.12 20.68,9.19 7.81,3.46 15.64,6.96 23.38,10.35 6.85,2.99 13.62,5.88 20.42,8.82 7.69,3.32 15.41,6.68 23.05,9.92 6.81,2.9 13.53,5.69 20.29,8.52 7.57,3.17 15.16,6.39 22.68,9.48 6.78,2.81 13.5,5.51 20.25,8.25 7.36,3 14.76,6.03 22.07,8.96 6.82,2.73 13.57,5.36 20.33,8.03 7.2,2.84 14.43,5.71 21.58,8.48 6.66,2.59 13.25,5.07 19.87,7.6 7.17,2.73 14.35,5.5 21.48,8.17 6.61,2.48 13.15,4.87 19.72,7.29 7.02,2.6 14.07,5.21 21.05,7.74 6.6,2.39 13.13,4.7 19.68,7.03 6.88,2.45 13.76,4.93 20.59,7.31 6.49,2.27 12.92,4.45 19.36,6.67 6.82,2.34 13.66,4.71 20.42,6.98 6.39,2.15 12.72,4.22 19.07,6.32 6.72,2.22 13.47,4.46 20.15,6.63 6.37,2.06 12.66,4.03 18.98,6.03 6.58,2.08 13.17,4.19 19.7,6.23 6.3,1.95 12.53,3.83 18.79,5.74 6.49,1.96 12.99,3.96 19.44,5.88 6.2,1.83 12.34,3.6 18.5,5.39 6.4,1.86 12.82,3.75 19.18,5.55 6.1,1.73 12.14,3.39 18.2,5.07 6.34,1.76 12.7,3.54 19.01,5.24 6,1.63 11.94,3.18 17.91,4.75 6.26,1.65 12.54,3.32 18.75,4.91 5.94,1.54 11.83,2.99 17.73,4.48 6.15,1.53 12.31,3.08 18.41,4.57 5.89,1.43 11.72,2.8 17.57,4.18 6.04,1.43 12.09,2.87 18.09,4.25 5.82,1.33 11.6,2.61 17.38,3.89 5.94,1.33 11.88,2.66 17.78,3.93 5.73,1.25 11.43,2.42 17.13,3.61 5.85,1.22 11.71,2.45 17.53,3.62 5.66,1.15 11.29,2.24 16.91,3.33 5.78,1.13 11.56,2.26 17.29,3.33 5.58,1.05 11.1,2.05 16.64,3.04 5.68,1.03 11.37,2.06 17.01,3.04 5.53,0.96 11.01,1.86 16.49,2.77 5.59,0.93 11.19,1.87 16.73,2.75 5.42,0.86 10.78,1.68 16.14,2.49 5.54,0.85 11.09,1.69 16.6,2.49 5.33,0.76 10.62,1.49 15.92,2.22 5.45,0.75 10.9,1.5 16.31,2.2 5.24,0.68 10.45,1.32 15.66,1.96 5.39,0.67 10.77,1.33 16.11,1.94 5.16,0.6 10.28,1.15 15.39,1.71 5.32,0.57 10.62,1.14 15.88,1.67 5.1,0.51 10.16,0.99 15.22,1.46 5.19,0.49 10.39,0.97 15.55,1.41 5.03,0.43 10.04,0.83 15.04,1.22 5.13,0.4 10.25,0.8 15.33,1.16 4.94,0.35 9.85,0.66 14.75,0.98 5.05,0.31 10.09,0.62 15.1,0.9 4.89,0.28 9.75,0.51 14.59,0.75 4.95,0.24 9.88,0.47 14.79,0.67 4.81,0.19 9.59,0.35 14.38,0.51 4.88,0.15 9.75,0.31 14.6,0.43 4.72,0.11 9.4,0.21 14.08,0.29 4.81,0.08 9.62,0.16 14.39,0.2 4.65,0.04 9.27,0.05 13.87,0.07 4.74,0 9.47,0 14.16,-0.03 4.58,-0.02 9.14,-0.08 13.68,-0.14 4.63,-0.07 9.25,-0.14 13.84,-0.25 4.54,-0.09 9.05,-0.22 13.55,-0.36 4.55,-0.13 9.09,-0.27 13.61,-0.45 4.42,-0.16 8.83,-0.36 13.22,-0.56 4.51,-0.2 9.02,-0.42 13.5,-0.67 4.33,-0.23 8.65,-0.49 12.96,-0.75 4.43,-0.28 8.85,-0.57 13.24,-0.87 4.29,-0.31 8.55,-0.62 12.8,-0.95 4.34,-0.35 8.66,-0.7 12.96,-1.07 4.23,-0.37 8.43,-0.75 12.62,-1.14 4.27,-0.41 8.51,-0.83 12.74,-1.26 4.15,-0.43 8.28,-0.87 12.41,-1.34 4.18,-0.46 8.34,-0.94 12.48,-1.44 4.1,-0.48 8.17,-0.99 12.23,-1.51 4.09,-0.53 8.18,-1.06 12.23,-1.62 4.03,-0.55 8.05,-1.11 12.04,-1.69 4.02,-0.58 8.03,-1.18 12.02,-1.79 3.96,-0.6 7.88,-1.23 11.8,-1.85 3.96,-0.65 7.91,-1.31 11.83,-1.97 3.88,-0.67 7.74,-1.33 11.58,-2.02 3.88,-0.7 7.75,-1.4 11.61,-2.13 3.81,-0.72 7.61,-1.44 11.38,-2.18 3.82,-0.74 7.61,-1.52 11.39,-2.29 3.74,-0.76 7.46,-1.54 11.16,-2.33 3.77,-0.8 7.5,-1.62 11.23,-2.45 3.65,-0.81 7.29,-1.63 10.9,-2.46 3.7,-0.86 7.38,-1.74 11.05,-2.62 3.57,-0.86 7.14,-1.72 10.68,-2.6 3.63,-0.91 7.24,-1.83 10.84,-2.75 3.51,-0.91 7,-1.82 10.48,-2.75 3.57,-0.95 7.11,-1.92 10.64,-2.9 3.44,-0.94 6.87,-1.89 10.27,-2.87 3.48,-0.99 6.94,-2 10.39,-3.02 3.41,-0.99 6.79,-2 10.16,-3.01 3.39,-1.04 6.75,-2.08 10.11,-3.13 3.33,-1.04 6.67,-2.09 9.97,-3.14 3.35,-1.08 6.67,-2.18 9.99,-3.27 3.23,-1.08 6.48,-2.15 9.68,-3.24 3.29,-1.12 6.55,-2.26 9.8,-3.4 3.19,-1.11 6.37,-2.22 9.53,-3.35 3.2,-1.16 6.37,-2.32 9.54,-3.48 3.13,-1.16 6.27,-2.32 9.37,-3.49 3.13,-1.18 6.22,-2.38 9.32,-3.58 3.07,-1.19 6.15,-2.38 9.2,-3.6 3.05,-1.21 6.07,-2.43 9.09,-3.66 3.03,-1.23 6.04,-2.45 9.04,-3.7 2.99,-1.25 5.95,-2.5 8.9,-3.76 2.95,-1.26 5.9,-2.51 8.81,-3.78 2.95,-1.29 5.87,-2.58 8.78,-3.88 2.86,-1.27 5.73,-2.55 8.56,-3.83 2.9,-1.33 5.77,-2.67 8.64,-4.01 2.79,-1.29 5.56,-2.57 8.3,-3.88 2.86,-1.35 5.66,-2.72 8.47,-4.09 2.73,-1.31 5.45,-2.63 8.15,-3.96 2.77,-1.38 5.51,-2.76 8.26,-4.15 2.65,-1.34 5.32,-2.69 7.95,-4.03 2.71,-1.41 5.39,-2.82 8.06,-4.22 2.6,-1.37 5.21,-2.74 7.78,-4.1 2.65,-1.43 5.27,-2.87 7.9,-4.3 2.53,-1.38 5.07,-2.75 7.58,-4.15 2.56,-1.44 5.1,-2.88 7.64,-4.32 2.5,-1.41 5.02,-2.83 7.49,-4.26 2.49,-1.43 4.94,-2.88 7.4,-4.32 2.45,-1.45 4.9,-2.87 7.32,-4.32 2.46,-1.47 4.88,-2.96 7.32,-4.44 2.36,-1.44 4.73,-2.86 7.05,-4.31 2.43,-1.49 4.8,-3 7.19,-4.5 2.28,-1.44 4.56,-2.87 6.82,-4.31 2.35,-1.51 4.67,-3.02 6.99,-4.55 2.25,-1.45 4.49,-2.91 6.71,-4.37 2.25,-1.5 4.47,-3 6.7,-4.49 2.21,-1.49 4.42,-2.97 6.59,-4.46 2.24,-1.53 4.43,-3.06 6.64,-4.6 2.1,-1.46 4.23,-2.93 6.31,-4.39 2.21,-1.56 4.37,-3.13 6.54,-4.69 2.03,-1.44 4.06,-2.9 6.07,-4.35 2.12,-1.55 4.21,-3.1 6.3,-4.64 2.01,-1.49 4.02,-2.97 6,-4.46 2.03,-1.52 4.01,-3.04 6.02,-4.57 1.96,-1.5 3.95,-3 5.89,-4.51 2,-1.54 3.95,-3.08 5.92,-4.63 1.9,-1.48 3.81,-2.98 5.68,-4.46 1.96,-1.56 3.86,-3.12 5.8,-4.68 1.81,-1.46 3.64,-2.93 5.43,-4.39 1.91,-1.57 3.79,-3.15 5.68,-4.72 1.75,-1.45 3.53,-2.92 5.26,-4.36 1.85,-1.58 3.66,-3.14 5.49,-4.7 1.69,-1.46 3.41,-2.9 5.08,-4.35 1.82,-1.58 3.59,-3.14 5.37,-4.7 1.63,-1.45 3.29,-2.89 4.89,-4.32 1.78,-1.58 3.51,-3.15 5.26,-4.73 1.56,-1.4 3.14,-2.82 4.68,-4.23 1.71,-1.56 3.36,-3.11 5.03,-4.65 1.54,-1.43 3.09,-2.86 4.6,-4.27 1.62,-1.52 3.19,-3.03 4.78,-4.54 1.5,-1.44 3.03,-2.87 4.5,-4.3 1.79,-1.71 3.51,-3.42 5.26,-5.12 1.23,-1.2 2.48,-2.4 3.69,-3.6 1.69,-1.67 3.32,-3.33 4.98,-4.99 1.24,-1.24 2.51,-2.5 3.73,-3.73 1.54,-1.56 3.02,-3.1 4.52,-4.65 1.27,-1.3 2.57,-2.62 3.82,-3.91 2.31,-2.41 4.58,-4.8 6.82,-7.18 0.41,-0.42 0.82,-0.84 1.21,-1.27 2.63,-2.81 5.22,-5.59 7.75,-8.35 0.91,-0.99 1.78,-1.97 2.68,-2.95 1.57,-1.73 3.16,-3.47 4.69,-5.19 62.08,-69.34 166.64,-80.19 242.67,-26.5 9.63,6.81 19.29,13.32 28.92,20 11.78,8.18 23.56,16.44 35.37,24.45 11.49,7.81 23.01,15.38 34.52,23.04 11.81,7.86 23.63,15.8 35.47,23.5 11.52,7.5 23.07,14.76 34.62,22.11 11.82,7.53 23.66,15.15 35.5,22.53 11.59,7.21 23.18,14.18 34.77,21.24 11.83,7.21 23.66,14.5 35.5,21.55 11.64,6.93 23.3,13.63 34.94,20.41 11.81,6.88 23.63,13.84 35.46,20.56 11.65,6.63 23.31,13.03 34.97,19.51 11.85,6.59 23.7,13.27 35.56,19.7 11.64,6.32 23.28,12.41 34.92,18.59 11.89,6.3 23.79,12.69 35.69,18.84 11.64,6.04 23.3,11.84 34.96,17.73 11.9,6 23.79,12.1 35.68,17.97 11.71,5.77 23.42,11.32 35.12,16.94 11.87,5.7 23.72,11.48 35.59,17.04 11.76,5.52 23.51,10.8 35.28,16.18 11.82,5.39 23.62,10.87 35.44,16.14 11.77,5.23 23.53,10.25 35.29,15.35 11.84,5.12 23.68,10.34 35.5,15.33 11.78,4.97 23.55,9.73 35.31,14.56 11.81,4.84 23.62,9.78 35.41,14.48 11.8,4.72 23.6,9.22 35.39,13.81 11.79,4.57 23.59,9.23 35.38,13.68 11.78,4.45 23.56,8.68 35.34,13 11.77,4.33 23.56,8.72 35.33,12.91 11.79,4.19 23.55,8.18 35.33,12.25 11.78,4.06 23.56,8.2 35.32,12.15 11.77,3.93 23.52,7.67 35.28,11.48 11.75,3.81 23.52,7.71 35.28,11.4 11.75,3.69 23.5,7.18 35.23,10.75 11.74,3.57 23.49,7.22 35.23,10.66 11.77,3.46 23.52,6.72 35.28,10.06 11.68,3.32 23.38,6.72 35.05,9.91 11.75,3.23 23.49,6.25 35.23,9.36 11.67,3.07 23.35,6.24 35,9.21 11.72,2.99 23.43,5.78 35.14,8.65 11.64,2.85 23.29,5.78 34.91,8.53 11.68,2.75 23.32,5.32 34.99,7.95 11.65,2.64 23.31,5.36 34.94,7.88 11.65,2.52 23.26,4.87 34.89,7.29 11.6,2.41 23.21,4.89 34.79,7.2 11.66,2.32 23.3,4.46 34.96,6.68 11.51,2.18 23.04,4.44 34.55,6.52 11.68,2.12 23.33,4.05 34.99,6.06 11.42,1.97 22.86,4.01 34.26,5.87 11.66,1.91 23.28,3.64 34.93,5.44 11.37,1.77 22.78,3.6 34.14,5.27 11.54,1.68 23.03,3.2 34.56,4.79 11.41,1.57 22.84,3.22 34.24,4.7 11.52,1.48 23,2.81 34.51,4.21 11.32,1.37 22.65,2.81 33.95,4.09 11.5,1.3 22.95,2.43 34.43,3.63 11.27,1.18 22.55,2.44 33.8,3.53 11.4,1.1 22.74,2.04 34.11,3.06 11.27,0.99 22.54,2.07 33.78,2.97 11.34,0.92 22.64,1.68 33.96,2.51 11.2,0.81 22.43,1.7 33.6,2.44 11.35,0.74 22.64,1.32 33.96,1.98 11.07,0.63 22.17,1.34 33.21,1.89 11.41,0.57 22.76,0.99 34.13,1.47 10.9,0.47 21.83,0.99 32.7,1.37 11.28,0.39 22.5,0.65 33.75,0.95 10.92,0.3 21.85,0.67 32.74,0.89 11.12,0.22 22.18,0.31 33.26,0.46 10.93,0.14 21.89,0.34 32.78,0.4 11.11,0.07 22.16,-0.01 33.24,-0.03 10.79,-0.01 21.6,0.04 32.36,-0.06 11.13,-0.1 22.19,-0.32 33.27,-0.5 10.64,-0.16 21.29,-0.26 31.89,-0.5 11.05,-0.25 22.04,-0.63 33.06,-0.95 10.55,-0.31 21.15,-0.57 31.67,-0.95 10.93,-0.39 21.78,-0.92 32.67,-1.39 10.53,-0.44 21.08,-0.85 31.57,-1.36 10.85,-0.54 21.62,-1.2 32.43,-1.81 10.43,-0.6 20.91,-1.13 31.31,-1.78 10.8,-0.68 21.53,-1.48 32.29,-2.22 10.31,-0.73 20.65,-1.39 30.93,-2.17 10.72,-0.81 21.36,-1.74 32.04,-2.63 10.22,-0.84 20.48,-1.63 30.65,-2.53 10.62,-0.94 21.15,-2 31.72,-3.01 10.15,-0.96 20.32,-1.87 30.42,-2.91 10.58,-1.06 21.06,-2.24 31.58,-3.37 10,-1.08 20.03,-2.11 29.97,-3.25 10.5,-1.19 20.91,-2.49 31.35,-3.74 9.88,-1.18 19.81,-2.32 29.64,-3.56 10.41,-1.31 20.72,-2.73 31.08,-4.09 9.77,-1.29 19.57,-2.53 29.29,-3.88 10.23,-1.41 20.36,-2.91 30.54,-4.38 9.74,-1.4 19.54,-2.76 29.24,-4.21 10.07,-1.51 20.04,-3.11 30.06,-4.67 9.68,-1.51 19.4,-2.97 29.03,-4.52 10.15,-1.64 20.21,-3.37 30.32,-5.06 9.37,-1.57 18.78,-3.1 28.09,-4.7 10.19,-1.76 20.27,-3.61 30.4,-5.42 9.12,-1.63 18.3,-3.21 27.36,-4.88 9.88,-1.83 19.65,-3.72 29.45,-5.58 9.22,-1.76 18.5,-3.46 27.66,-5.25 9.84,-1.92 19.56,-3.91 29.33,-5.87 8.99,-1.81 18.03,-3.58 26.96,-5.41 10.07,-2.08 20.02,-4.22 30.01,-6.34 8.53,-1.81 17.13,-3.57 25.6,-5.41 10.01,-2.18 19.91,-4.41 29.85,-6.62 8.32,-1.86 16.72,-3.67 25.02,-5.56 10,-2.26 19.8,-4.6 29.7,-6.9 8.1,-1.9 16.3,-3.75 24.4,-5.67 10,-2.38 19.9,-4.82 29.8,-7.24 7.8,-1.9 15.7,-3.77 23.5,-5.69 9.5,-2.36 18.9,-4.77 28.3,-7.16 8.1,-2.05 16.2,-4.07 24.2,-6.14 9.3,-2.38 18.4,-4.82 27.6,-7.24 8,-2.11 16.1,-4.2 24.1,-6.33 9.7,-2.61 19.3,-5.25 28.9,-7.89 7.3,-1.99 14.6,-3.97 21.9,-5.97 9.8,-2.72 19.5,-5.5 29.2,-8.25 6.9,-1.95 13.9,-3.9 20.7,-5.86 9.6,-2.75 19,-5.54 28.5,-8.31 6.9,-2.01 13.8,-4.01 20.6,-6.03 9.5,-2.82 18.8,-5.66 28.2,-8.49 6.7,-2.01 13.4,-4.01 20,-6.04 11.3,-3.45 22.4,-6.95 33.6,-10.43 4.5,-1.42 9.1,-2.83 13.6,-4.24 12.7,-4 25.2,-8 37.6,-12.03 2.9,-0.93 5.9,-1.87 8.8,-2.81 15.3,-4.96 30.4,-9.94 45.4,-14.93 v -0.01 c 4.4,-1.47 8.8,-2.69 13.2,-3.81 1.3,-0.32 2.5,-0.6 3.8,-0.9 3.4,-0.78 6.7,-1.44 10.1,-2.02 1.1,-0.18 2.2,-0.4 3.3,-0.57 4.2,-0.65 8.5,-1.14 12.7,-1.45 0.8,-0.06 1.5,-0.07 2.3,-0.12 3.5,-0.2 7,-0.3 10.4,-0.29 1.2,0 2.5,0.02 3.7,0.06 3.4,0.08 6.7,0.27 10,0.57 0.8,0.06 1.6,0.09 2.4,0.17 3.9,0.41 7.9,0.99 11.7,1.68 1.2,0.21 2.2,0.45 3.4,0.67 2.8,0.58 5.7,1.24 8.5,1.97 1.2,0.31 2.4,0.62 3.7,0.97 3.4,0.98 6.7,2.05 10.1,3.24 0.7,0.24 1.4,0.51 2,0.77 3.2,1.18 6.3,2.46 9.3,3.83 1.3,0.58 2.6,1.2 3.9,1.81 2.3,1.09 4.5,2.23 6.7,3.42 1.3,0.66 2.5,1.33 3.8,2.03 3,1.74 6,3.57 8.9,5.49 1.3,0.83 2.5,1.73 3.8,2.6 1.8,1.27 3.6,2.57 5.4,3.91 1.4,1.09 2.8,2.2 4.2,3.32 1.6,1.26 3.1,2.55 4.6,3.86 2,1.79 4,3.61 6,5.49 1.7,1.57 3.3,3.14 4.9,4.79 1.5,1.53 2.9,3.11 4.3,4.69 1,1.13 2,2.24 3,3.39 1.4,1.7 2.9,3.42 4.2,5.19 0.7,0.89 1.4,1.79 2.1,2.69 2.8,3.72 5.5,7.53 8,11.47 0.4,0.66 0.9,1.32 1.3,1.99 1.3,2.18 2.6,4.4 3.9,6.64 0.4,0.79 0.8,1.59 1.3,2.38 4,7.45 7.5,15.2 10.4,23.18 0.2,0.48 0.4,0.96 0.5,1.44 1,2.67 1.8,5.35 2.6,8.07 0.2,0.41 0.3,0.82 0.4,1.23 2.4,8.41 4.2,17.03 5.3,25.78 0.1,0.57 0.2,1.13 0.2,1.7 0.4,2.87 0.6,5.76 0.8,8.66 0.3,4.58 0.3,9.19 0.2,13.82 0,0.42 0,0.84 0,1.25 -0.1,4.18 -0.5,8.37 -0.9,12.56 -0.1,0.77 -0.2,1.54 -0.3,2.31 -0.5,3.82 -1.1,7.64 -1.9,11.46 -0.2,1.05 -0.4,2.12 -0.7,3.18 -0.7,3.52 -1.7,7.03 -2.7,10.55 -0.4,1.27 -0.8,2.54 -1.2,3.82 -1,3.29 -2.2,6.55 -3.5,9.82 -0.6,1.43 -1.1,2.86 -1.7,4.28 -1.4,3.14 -2.9,6.26 -4.5,9.38 -0.7,1.47 -1.4,2.93 -2.1,4.4 -1.8,3.2 -3.7,6.36 -5.7,9.53 -0.8,1.3 -1.5,2.62 -2.3,3.91 -3,4.42 -6.1,8.78 -9.5,13.09 -5.3,6.7 -11.2,14 -17.5,21.89 -3.2,3.95 -6.5,8.04 -10,12.28 -6.9,8.47 -14.3,17.51 -22.1,27.11 -3.9,4.79 -8,9.73 -12.1,14.8 -12.4,15.21 -25.8,31.64 -40,49.21 -14.2,17.57 -29.2,36.29 -44.9,56.08 -10.5,13.19 -21.3,26.84 -32.3,40.96 -11,14.13 -22.3,28.7 -33.8,43.7 -11.5,15 -23.2,30.43 -35.1,46.27 -11.9,15.84 -23.9,32.09 -36.1,48.72 -48.7,66.53 -99.4,139.26 -149.4,216.76 -12.5,19.38 -24.9,39.06 -37.3,59.01 -12.3,19.95 -24.6,40.17 -36.7,60.66 -24.2,40.96 -48,82.94 -70.8,125.76 -5.7,10.72 -11.3,21.47 -16.9,32.28 -78.2,151.32 -144.5,312.42 -183.95,475.73 -2.81,11.67 -5.5,23.34 -8.03,35.03 -5.07,23.37 -9.58,46.78 -13.46,70.2 -5.83,35.12 -10.29,70.28 -13.22,105.38 -1.94,23.4 -3.22,46.79 -3.76,70.13 -0.28,11.66 -0.38,23.32 -0.28,34.97 0.19,23.29 1.11,46.54 2.83,69.7 1.72,23.16 4.22,46.25 7.55,69.24 1.89,12.99 4.05,25.93 6.41,38.83 0.78,4.28 1.72,8.54 2.55,12.82 1.68,8.58 3.37,17.18 5.25,25.71 1.11,5.1 2.37,10.15 3.57,15.22 1.81,7.7 3.62,15.41 5.59,23.07 1.39,5.36 2.87,10.7 4.33,16.05 2,7.33 4.02,14.67 6.16,21.97 1.6,5.46 3.29,10.9 4.97,16.35 2.22,7.15 4.46,14.3 6.81,21.4 1.79,5.48 3.65,10.94 5.53,16.39 2.44,7.05 4.95,14.1 7.45,21.12 2,5.42 4,10.83 6.1,16.23 2.6,7.04 5.4,14.06 8.2,21.07 2.1,5.29 4.2,10.6 6.4,15.88 3,7.11 6,14.19 9.1,21.26 2.2,5.11 4.4,10.22 6.7,15.31 3.2,7.33 6.6,14.6 10,21.89 2.3,4.76 4.5,9.56 6.7,14.31 3.8,7.9 7.8,15.75 11.7,23.61 2.1,4.07 4,8.15 6.1,12.2 5.2,10.09 10.5,20.11 15.9,30.11 1,1.78 1.9,3.57 2.9,5.35 6.5,11.86 13.1,23.65 19.9,35.39 1.5,2.72 3.2,5.39 4.8,8.11 5.2,8.92 10.4,17.83 15.8,26.69 2.4,3.95 4.9,7.87 7.4,11.81 4.6,7.57 9.3,15.14 14.2,22.66 2.7,4.31 5.5,8.58 8.3,12.88 4.6,7.09 9.3,14.18 14,21.23 3,4.42 6,8.83 9,13.23 4.7,6.88 9.4,13.74 14.1,20.56 3.1,4.41 6.2,8.79 9.3,13.17 4.9,6.79 9.7,13.57 14.6,20.31 3.2,4.29 6.3,8.59 9.5,12.88 5,6.8 10.1,13.58 15.3,20.34 3.1,4.12 6.2,8.23 9.3,12.33 5.4,6.95 10.8,13.86 16.2,20.75 3,3.81 6,7.63 9,11.43 5.8,7.3 11.7,14.54 17.6,21.77 2.7,3.31 5.4,6.64 8.1,9.93 6.6,8.07 13.3,16.05 20.1,24.02 2,2.42 4,4.85 6.1,7.25 26.9,31.68 54.6,62.64 82.7,92.86 1.1,1.2 2.2,2.39 3.4,3.59 8.1,8.75 16.3,17.45 24.6,26.07 1.9,2.06 3.9,4.1 5.9,6.15 7.4,7.75 14.9,15.45 22.4,23.09 2.3,2.36 4.6,4.7 7,7.07 7.2,7.28 14.4,14.55 21.6,21.74 2.4,2.45 4.9,4.88 7.4,7.32 7.2,7.09 14.3,14.14 21.5,21.13 2.5,2.37 4.9,4.73 7.3,7.09 7.4,7.09 14.7,14.12 22.1,21.12 2.2,2.13 4.5,4.26 6.7,6.38 7.7,7.25 15.3,14.42 23,21.55 1.9,1.8 3.9,3.63 5.8,5.43 8.3,7.64 16.6,15.21 24.8,22.73 1.3,1.17 2.6,2.36 3.9,3.54 9.4,8.56 18.9,17.05 28.3,25.43 0.1,0.08 0.2,0.17 0.3,0.25 551.7,35.18 1216.5,-239.61 1677.5,-453.15 -116.7,205.34 -344.1,609.7 -255.5,878.36 11.5,-8.07 23.1,-16.34 34.6,-24.8 0.2,-0.18 0.4,-0.34 0.7,-0.51 11.1,-8.21 22.3,-16.6 33.5,-25.16 0.5,-0.41 1.1,-0.83 1.6,-1.26 11.3,-8.65 22.5,-17.45 33.7,-26.39 0.1,-0.04 0.1,-0.07 0.2,-0.11 22.8,-18.21 45.5,-37.04 68.2,-56.34 0.4,-0.36 0.9,-0.72 1.3,-1.09 11.2,-9.53 22.3,-19.17 33.5,-28.92 0,-0.04 0.1,-0.08 0.1,-0.12 22.7,-19.84 45.2,-40.09 67.7,-60.64 0.2,-0.21 0.5,-0.42 0.7,-0.63 84.3,-77.15 167.1,-158.35 248,-237.09 1.9,-1.88 3.8,-3.74 5.7,-5.61 5.2,-5.06 10.4,-10.13 15.6,-15.16 2.5,-2.44 5,-4.83 7.5,-7.24 5.8,7.79 12,15.46 18.8,22.89 102.4,111.35 547.4,-144.14 583.7,-244.09 21.6,-59.39 32.8,-116.28 30,-168.35 88,-5.69 182.3,-13.55 282.2,-24.12 4,7.58 6.2,12.05 6.2,12.05 0.2,8.36 -9,28.63 -23.4,55.51"
         style="fill:#7c44a6;fill-opacity:1;fill-rule:nonzero;stroke:none"
         id="path366" />
      <path
         d="m 13261.3,7573.53 c 2.8,52.07 -8.4,108.96 -30,168.35 -36.3,99.95 -481.3,355.44 -583.7,244.09 -6.8,-7.43 -13,-15.1 -18.8,-22.89 0,-0.01 0,-0.01 0,-0.01 -65.9,-87.19 -72.2,-199.42 -16.5,-382.04 129.1,6.65 353.8,11.62 649,-7.5"
         style="fill:#4f2264;fill-opacity:1;fill-rule:nonzero;stroke:none"
         id="path368" />
      <path
         d="m 15269.6,7614.71 c -5,0.35 -10.1,0.65 -15.3,0.78 -38.3,27.89 -451.5,33.09 -653.5,-74.15 -202.1,-107.23 -257.9,-479.79 -155.2,-506.42 180.6,-46.84 580,72.44 651.3,-458.89 3.5,-26.19 8,-50.57 13.2,-73.58 -0.2,-1.35 -0.3,-2.24 -0.3,-2.24 l 0.7,0.27 c 0.4,-1.5 0.7,-3.06 1.1,-4.57 1.2,2.13 2.4,4.18 3.7,6.29 l 227.9,82.9 c 0,0 52,394.93 258.9,382.51 2.1,-0.13 4.3,-0.23 6.5,-0.45 209.4,-20.95 39,621.29 -339,647.55"
         style="fill:#4f2264;fill-opacity:1;fill-rule:nonzero;stroke:none"
         id="path370" />
      <path
         d="m 14471.2,5373.63 c -172.2,50.22 -404.8,54.35 -563,-148.38 -94.9,-121.65 -376.4,-106.36 -357.6,-59.55 2.9,7.22 5,14.74 6.4,22.42 80.2,427.9 753,388.8 982,362.7 61.2,-6.98 109.2,-60.34 107.4,-123.87 -1.5,-51.78 -37.5,-93.52 -175.2,-53.32 z m -2797.9,973.87 c -339.6,-183.07 -630.5,-3.97 -805.8,277.76 -96.8,155.55 -246.9,426.8 -77.1,617.82 169.8,191.03 763.4,175.66 912.7,-72.73 149.4,-248.39 238.2,-678.34 -29.8,-822.85 z m 3669.9,237.6 -227.9,-82.9 c -1.3,-2.11 -2.5,-4.16 -3.7,-6.29 -0.4,1.51 -0.7,3.07 -1.1,4.57 l -0.7,-0.27 c 0,0 0.1,0.89 0.3,2.24 -5.2,23.01 -9.7,47.39 -13.2,73.58 -71.3,531.33 -470.7,412.05 -651.3,458.89 -102.7,26.63 -46.9,399.19 155.2,506.42 202,107.24 615.2,102.04 653.5,74.15 5.2,-0.13 10.3,-0.43 15.3,-0.78 -229,128.88 -267.4,219.6 -1116.6,-159.21 -3.3,-1.5 -6.6,-2.89 -9.9,-4.31 -36.7,13.14 -80.1,24.25 -131,33.03 -85.2,14.67 -167.8,27.36 -247.5,38.31 -57.7,33.41 -131.5,68.25 -238.3,94.44 14.4,-26.88 23.6,-47.15 23.4,-55.51 0,0 -2.2,-4.47 -6.2,-12.05 -99.9,10.57 -194.2,18.43 -282.2,24.12 -295.2,19.12 -519.9,14.15 -649,7.5 -55.7,182.62 -49.4,294.85 16.5,382.04 -2.5,2.41 -5,4.82 -7.5,7.25 -5.2,5.03 -10.4,10.1 -15.6,15.16 -1.9,1.87 -3.8,3.73 -5.7,5.61 -80.9,78.74 -163.7,159.94 -248,237.09 -0.2,0.21 -0.5,0.42 -0.7,0.63 -22.5,20.55 -45,40.8 -67.7,60.64 0,0.04 -0.1,0.08 -0.1,0.12 -11.2,9.75 -22.3,19.39 -33.5,28.92 -0.4,0.37 -0.9,0.73 -1.3,1.09 -22.7,19.3 -45.4,38.13 -68.2,56.34 -0.1,0.03 -0.1,0.07 -0.2,0.11 -11.2,8.94 -22.4,17.74 -33.7,26.39 -0.5,0.43 -1.1,0.85 -1.6,1.26 -11.2,8.56 -22.4,16.95 -33.5,25.16 -0.3,0.17 -0.5,0.33 -0.7,0.51 -11.5,8.46 -23.1,16.73 -34.6,24.8 -88.6,-268.66 138.8,-673.02 255.5,-878.36 -461,213.54 -1125.8,488.33 -1677.5,453.15 -0.1,-0.08 -0.2,-0.17 -0.3,-0.25 -9.4,-8.38 -18.9,-16.87 -28.3,-25.43 -1.3,-1.18 -2.6,-2.37 -3.9,-3.54 -8.2,-7.52 -16.5,-15.09 -24.8,-22.73 -1.9,-1.8 -3.9,-3.63 -5.8,-5.43 -7.7,-7.13 -15.3,-14.3 -23,-21.55 -2.2,-2.12 -4.5,-4.25 -6.7,-6.38 -7.4,-7 -14.7,-14.03 -22.1,-21.12 -2.4,-2.36 -4.8,-4.72 -7.3,-7.09 -7.2,-6.99 -14.3,-14.04 -21.5,-21.13 -2.5,-2.44 -5,-4.87 -7.4,-7.32 -7.2,-7.19 -14.4,-14.46 -21.6,-21.74 -2.4,-2.37 -4.7,-4.71 -7,-7.07 -7.5,-7.64 -15,-15.34 -22.4,-23.09 -2,-2.05 -4,-4.09 -5.9,-6.15 -8.3,-8.62 -16.5,-17.32 -24.6,-26.07 -1.2,-1.2 -2.3,-2.39 -3.4,-3.59 -28.1,-30.22 -55.8,-61.18 -82.7,-92.86 -2.1,-2.4 -4.1,-4.83 -6.1,-7.25 -6.8,-7.97 -13.5,-15.95 -20.1,-24.02 -2.7,-3.29 -5.4,-6.62 -8.1,-9.93 -5.9,-7.23 -11.8,-14.47 -17.6,-21.77 -3,-3.8 -6,-7.62 -9,-11.43 -5.4,-6.89 -10.8,-13.8 -16.2,-20.75 -3.1,-4.09 -6.2,-8.21 -9.3,-12.33 -5.2,-6.76 -10.3,-13.54 -15.3,-20.34 -3.2,-4.29 -6.3,-8.59 -9.5,-12.88 -4.9,-6.74 -9.7,-13.52 -14.6,-20.31 -3.1,-4.38 -6.2,-8.76 -9.3,-13.17 -4.7,-6.82 -9.4,-13.68 -14.1,-20.56 -3,-4.4 -6,-8.81 -9,-13.23 -4.7,-7.05 -9.4,-14.14 -14,-21.23 -2.8,-4.3 -5.6,-8.57 -8.3,-12.88 -4.9,-7.52 -9.6,-15.09 -14.2,-22.66 -2.5,-3.94 -5,-7.86 -7.4,-11.81 -5.4,-8.86 -10.6,-17.77 -15.8,-26.69 -1.6,-2.72 -3.3,-5.39 -4.8,-8.11 -6.8,-11.74 -13.4,-23.53 -19.9,-35.39 -1,-1.78 -1.9,-3.57 -2.9,-5.35 -5.4,-10 -10.7,-20.02 -15.9,-30.11 -2.1,-4.05 -4,-8.13 -6.1,-12.2 -3.9,-7.86 -7.9,-15.71 -11.7,-23.61 -2.2,-4.75 -4.4,-9.55 -6.7,-14.31 -3.4,-7.29 -6.8,-14.56 -10,-21.89 -2.3,-5.09 -4.5,-10.2 -6.7,-15.31 -3.1,-7.07 -6.1,-14.15 -9.1,-21.26 -2.2,-5.28 -4.3,-10.59 -6.4,-15.88 -2.8,-7.01 -5.6,-14.03 -8.2,-21.07 -2.1,-5.4 -4.1,-10.81 -6.1,-16.23 -2.5,-7.02 -5.01,-14.07 -7.45,-21.12 -1.88,-5.45 -3.74,-10.91 -5.53,-16.39 -2.35,-7.1 -4.59,-14.25 -6.81,-21.4 -1.68,-5.45 -3.37,-10.89 -4.97,-16.35 -2.14,-7.3 -4.16,-14.64 -6.16,-21.97 -1.46,-5.35 -2.94,-10.69 -4.33,-16.05 -1.97,-7.66 -3.78,-15.37 -5.59,-23.07 -1.2,-5.07 -2.46,-10.12 -3.57,-15.22 -1.88,-8.53 -3.57,-17.13 -5.25,-25.71 -0.83,-4.28 -1.77,-8.54 -2.55,-12.82 -2.36,-12.9 -4.52,-25.84 -6.41,-38.83 -3.33,-22.99 -5.83,-46.08 -7.55,-69.24 -1.72,-23.16 -2.64,-46.41 -2.83,-69.7 -0.1,-11.65 0,-23.31 0.28,-34.97 0.54,-23.34 1.82,-46.73 3.76,-70.13 2.93,-35.1 7.39,-70.26 13.22,-105.38 3.88,-23.42 8.39,-46.83 13.46,-70.2 2.53,-11.69 5.22,-23.36 8.03,-35.03 39.45,-163.31 105.75,-324.41 183.95,-475.73 5.6,-10.81 11.2,-21.56 16.9,-32.28 22.8,-42.82 46.6,-84.8 70.8,-125.76 12.1,-20.49 24.4,-40.71 36.7,-60.66 12.4,-19.95 24.8,-39.63 37.3,-59.01 50,-77.5 100.7,-150.23 149.4,-216.76 12.2,-16.63 24.2,-32.88 36.1,-48.72 11.9,-15.84 23.6,-31.27 35.1,-46.27 11.5,-15 22.8,-29.57 33.8,-43.7 11,-14.12 21.8,-27.77 32.3,-40.96 15.7,-19.79 30.7,-38.51 44.9,-56.08 14.2,-17.57 27.6,-34 40,-49.21 4.1,-5.07 8.2,-10.01 12.1,-14.8 7.8,-9.6 15.2,-18.64 22.1,-27.11 3.5,-4.24 6.8,-8.33 10,-12.28 6.3,-7.89 12.2,-15.19 17.5,-21.89 3.4,-4.31 6.5,-8.67 9.5,-13.09 0.8,-1.29 1.5,-2.61 2.3,-3.91 2,-3.17 3.9,-6.33 5.7,-9.53 0.7,-1.47 1.4,-2.93 2.1,-4.4 1.6,-3.12 3.1,-6.24 4.5,-9.38 0.6,-1.42 1.1,-2.85 1.7,-4.28 1.3,-3.27 2.5,-6.53 3.5,-9.82 0.4,-1.28 0.8,-2.55 1.2,-3.82 1,-3.52 1.9,-7.03 2.7,-10.55 0.3,-1.06 0.5,-2.13 0.7,-3.18 0.8,-3.82 1.4,-7.64 1.9,-11.46 0.1,-0.77 0.2,-1.54 0.3,-2.31 0.4,-4.2 0.7,-8.38 0.9,-12.56 0,-0.41 0,-0.83 0,-1.25 0.2,-7.56 -0.1,-15.06 -1,-22.48 0,-0.57 -0.1,-1.13 -0.2,-1.7 -1.1,-8.76 -2.9,-17.36 -5.3,-25.78 -0.1,-0.41 -0.2,-0.82 -0.4,-1.23 -0.8,-2.72 -1.6,-5.39 -2.6,-8.07 -0.1,-0.48 -0.3,-0.96 -0.5,-1.44 -2.9,-7.98 -6.4,-15.73 -10.4,-23.18 -0.5,-0.79 -0.9,-1.59 -1.3,-2.38 -1.3,-2.24 -2.6,-4.46 -3.9,-6.64 -0.4,-0.67 -0.9,-1.33 -1.3,-1.99 -2.5,-3.94 -5.2,-7.75 -8,-11.47 -0.7,-0.9 -1.4,-1.8 -2.1,-2.69 -1.3,-1.77 -2.8,-3.49 -4.2,-5.19 -1,-1.15 -2,-2.26 -3,-3.39 -1.4,-1.58 -2.8,-3.16 -4.3,-4.69 -1.6,-1.65 -3.2,-3.22 -4.9,-4.79 -2,-1.88 -4,-3.71 -6,-5.49 -1.5,-1.31 -3,-2.6 -4.6,-3.86 -1.4,-1.12 -2.8,-2.23 -4.2,-3.32 -1.8,-1.34 -3.6,-2.64 -5.4,-3.91 -1.3,-0.87 -2.5,-1.77 -3.8,-2.6 -2.9,-1.92 -5.9,-3.75 -8.9,-5.49 -1.3,-0.7 -2.5,-1.37 -3.8,-2.03 -2.2,-1.19 -4.4,-2.33 -6.7,-3.42 -1.3,-0.61 -2.6,-1.23 -3.9,-1.81 -3,-1.37 -6.1,-2.65 -9.3,-3.83 -0.6,-0.26 -1.3,-0.53 -2,-0.77 -3.4,-1.19 -6.7,-2.26 -10.1,-3.24 -1.3,-0.35 -2.5,-0.66 -3.7,-0.97 -2.8,-0.73 -5.7,-1.39 -8.5,-1.97 -1.2,-0.22 -2.2,-0.46 -3.4,-0.67 -3.8,-0.69 -7.8,-1.27 -11.7,-1.68 -0.8,-0.08 -1.6,-0.11 -2.4,-0.17 -3.3,-0.3 -6.6,-0.49 -10,-0.57 -1.2,-0.04 -2.5,-0.06 -3.7,-0.06 -3.4,-0.01 -6.9,0.09 -10.4,0.29 -0.8,0.05 -1.5,0.06 -2.3,0.12 -4.2,0.31 -8.5,0.8 -12.7,1.45 -1.1,0.17 -2.2,0.39 -3.3,0.57 -3.4,0.58 -6.7,1.24 -10.1,2.02 -1.3,0.3 -2.5,0.58 -3.8,0.9 -4.4,1.12 -8.8,2.34 -13.2,3.81 v 0.01 c -15,4.99 -30.1,9.97 -45.4,14.93 -2.9,0.94 -5.9,1.88 -8.8,2.81 -12.4,4.03 -24.9,8.03 -37.6,12.03 -4.5,1.41 -9.1,2.82 -13.6,4.24 -11.2,3.48 -22.3,6.98 -33.6,10.43 -6.6,2.03 -13.3,4.03 -20,6.04 -9.4,2.83 -18.7,5.67 -28.2,8.49 -6.8,2.02 -13.7,4.02 -20.6,6.03 -9.5,2.77 -18.9,5.56 -28.5,8.31 -6.8,1.96 -13.8,3.91 -20.7,5.86 -9.7,2.75 -19.4,5.53 -29.2,8.25 -7.3,2 -14.6,3.98 -21.9,5.97 -9.6,2.64 -19.2,5.28 -28.9,7.89 -8,2.13 -16.1,4.22 -24.1,6.33 -9.2,2.42 -18.3,4.86 -27.6,7.24 -8,2.07 -16.1,4.09 -24.2,6.14 -9.4,2.39 -18.8,4.8 -28.3,7.16 -7.8,1.92 -15.7,3.79 -23.5,5.69 -9.9,2.42 -19.8,4.86 -29.8,7.24 -8.1,1.92 -16.3,3.77 -24.4,5.67 -9.9,2.3 -19.7,4.64 -29.7,6.9 -8.3,1.89 -16.7,3.7 -25.02,5.56 -9.94,2.21 -19.84,4.44 -29.85,6.62 -8.47,1.84 -17.07,3.6 -25.6,5.41 -9.99,2.12 -19.94,4.26 -30.01,6.34 -8.93,1.83 -17.97,3.6 -26.96,5.41 -9.77,1.96 -19.49,3.95 -29.33,5.87 -9.16,1.79 -18.44,3.49 -27.66,5.25 -9.81,1.86 -19.57,3.76 -29.45,5.58 -9.06,1.67 -18.24,3.25 -27.36,4.88 -10.13,1.81 -20.21,3.66 -30.4,5.42 -9.31,1.6 -18.72,3.13 -28.09,4.7 -10.11,1.69 -20.17,3.42 -30.32,5.06 -9.63,1.55 -19.35,3.01 -29.03,4.52 -10.02,1.56 -19.99,3.16 -30.06,4.67 -9.7,1.45 -19.5,2.81 -29.24,4.21 -10.18,1.47 -20.31,2.97 -30.54,4.38 -9.72,1.35 -19.52,2.59 -29.29,3.88 -10.36,1.36 -20.67,2.78 -31.08,4.09 -9.83,1.24 -19.76,2.38 -29.64,3.56 -10.44,1.25 -20.85,2.55 -31.35,3.74 -9.94,1.14 -19.97,2.17 -29.97,3.25 -10.52,1.13 -21,2.31 -31.58,3.37 -10.1,1.04 -20.27,1.95 -30.42,2.91 -10.57,1.01 -21.1,2.07 -31.72,3.01 -10.17,0.9 -20.43,1.69 -30.65,2.53 -10.68,0.89 -21.32,1.82 -32.04,2.63 -10.28,0.78 -20.62,1.44 -30.93,2.17 -10.76,0.74 -21.49,1.54 -32.29,2.22 -10.4,0.65 -20.88,1.18 -31.31,1.78 -10.81,0.61 -21.58,1.27 -32.43,1.81 -10.49,0.51 -21.04,0.92 -31.57,1.36 -10.89,0.47 -21.74,1 -32.67,1.39 -10.52,0.38 -21.12,0.64 -31.67,0.95 -11.02,0.32 -22.01,0.7 -33.06,0.95 -10.6,0.24 -21.25,0.34 -31.89,0.5 -11.08,0.18 -22.14,0.4 -33.27,0.5 -10.76,0.1 -21.57,0.05 -32.36,0.06 -11.08,0.02 -22.13,0.1 -33.24,0.03 -10.89,-0.06 -21.85,-0.26 -32.78,-0.4 -11.08,-0.15 -22.14,-0.24 -33.26,-0.46 -10.89,-0.22 -21.82,-0.59 -32.74,-0.89 -11.25,-0.3 -22.47,-0.56 -33.75,-0.95 -10.87,-0.38 -21.8,-0.9 -32.7,-1.37 -11.37,-0.48 -22.72,-0.9 -34.13,-1.47 -11.04,-0.55 -22.14,-1.26 -33.21,-1.89 -11.32,-0.66 -22.61,-1.24 -33.96,-1.98 -11.17,-0.74 -22.4,-1.63 -33.6,-2.44 -11.32,-0.83 -22.62,-1.59 -33.96,-2.51 -11.24,-0.9 -22.51,-1.98 -33.78,-2.97 -11.37,-1.02 -22.71,-1.96 -34.11,-3.06 -11.25,-1.09 -22.53,-2.35 -33.8,-3.53 -11.48,-1.2 -22.93,-2.33 -34.43,-3.63 -11.3,-1.28 -22.63,-2.72 -33.95,-4.09 -11.51,-1.4 -22.99,-2.73 -34.51,-4.21 -11.4,-1.48 -22.83,-3.13 -34.24,-4.7 -11.53,-1.59 -23.03,-3.11 -34.56,-4.79 -11.36,-1.67 -22.77,-3.5 -34.14,-5.27 -11.65,-1.8 -23.27,-3.53 -34.93,-5.44 -11.4,-1.86 -22.84,-3.9 -34.26,-5.87 -11.66,-2.01 -23.31,-3.94 -34.99,-6.06 -11.51,-2.08 -23.04,-4.34 -34.55,-6.52 -11.66,-2.22 -23.3,-4.36 -34.96,-6.68 -11.58,-2.31 -23.19,-4.79 -34.79,-7.2 -11.63,-2.42 -23.24,-4.77 -34.89,-7.29 -11.63,-2.52 -23.29,-5.24 -34.94,-7.88 -11.67,-2.63 -23.31,-5.2 -34.99,-7.95 -11.62,-2.75 -23.27,-5.68 -34.91,-8.53 -11.71,-2.87 -23.42,-5.66 -35.14,-8.65 -11.65,-2.97 -23.33,-6.14 -35,-9.21 -11.74,-3.11 -23.48,-6.13 -35.23,-9.36 -11.67,-3.19 -23.37,-6.59 -35.05,-9.91 -11.76,-3.34 -23.51,-6.6 -35.28,-10.06 -11.74,-3.44 -23.49,-7.09 -35.23,-10.66 -11.73,-3.57 -23.48,-7.06 -35.23,-10.75 -11.76,-3.69 -23.53,-7.59 -35.28,-11.4 -11.76,-3.81 -23.51,-7.55 -35.28,-11.48 -11.76,-3.95 -23.54,-8.09 -35.32,-12.15 -11.78,-4.07 -23.54,-8.06 -35.33,-12.25 -11.77,-4.19 -23.56,-8.58 -35.33,-12.91 -11.78,-4.32 -23.56,-8.55 -35.34,-13 -11.79,-4.45 -23.59,-9.11 -35.38,-13.68 -11.79,-4.59 -23.59,-9.09 -35.39,-13.81 -11.79,-4.7 -23.6,-9.64 -35.41,-14.48 -11.76,-4.83 -23.53,-9.59 -35.31,-14.56 -11.82,-4.99 -23.66,-10.21 -35.5,-15.33 -11.76,-5.1 -23.52,-10.12 -35.29,-15.35 -11.82,-5.27 -23.62,-10.75 -35.44,-16.14 -11.77,-5.37 -23.52,-10.66 -35.28,-16.18 -11.87,-5.56 -23.72,-11.34 -35.59,-17.04 -11.7,-5.62 -23.41,-11.17 -35.12,-16.94 -11.89,-5.87 -23.78,-11.97 -35.68,-17.97 -11.66,-5.89 -23.32,-11.69 -34.96,-17.73 -11.9,-6.15 -23.8,-12.54 -35.69,-18.84 -11.64,-6.19 -23.28,-12.27 -34.92,-18.59 -11.86,-6.43 -23.71,-13.11 -35.56,-19.7 -11.66,-6.48 -23.32,-12.88 -34.97,-19.51 -11.83,-6.72 -23.65,-13.68 -35.46,-20.56 -11.64,-6.78 -23.3,-13.48 -34.94,-20.41 -11.84,-7.05 -23.67,-14.34 -35.5,-21.55 -11.59,-7.06 -23.18,-14.03 -34.77,-21.24 -11.84,-7.38 -23.68,-15 -35.5,-22.53 -11.55,-7.35 -23.1,-14.61 -34.62,-22.11 -11.84,-7.7 -23.66,-15.64 -35.47,-23.5 -11.51,-7.65 -23.03,-15.23 -34.52,-23.04 -11.81,-8.01 -23.59,-16.27 -35.37,-24.45 -13.43,-9.32 -26.87,-18.52 -40.29,-28.05 -70.31,-50 -167.22,-38.67 -223.99,26.29 -3.86,4.41 -7.88,8.91 -12,13.45 -0.9,0.98 -1.77,1.96 -2.68,2.95 -2.53,2.76 -5.12,5.54 -7.75,8.35 -0.39,0.43 -0.8,0.85 -1.21,1.27 -2.24,2.38 -4.51,4.77 -6.82,7.18 -1.25,1.29 -2.55,2.61 -3.82,3.91 -1.5,1.55 -2.98,3.09 -4.52,4.65 -1.22,1.23 -2.49,2.49 -3.73,3.73 -1.66,1.66 -3.29,3.32 -4.98,4.99 -1.21,1.2 -2.46,2.4 -3.69,3.6 -1.75,1.7 -3.47,3.41 -5.26,5.12 -1.47,1.43 -3,2.86 -4.5,4.3 -1.59,1.51 -3.16,3.02 -4.78,4.54 -1.51,1.41 -3.06,2.84 -4.6,4.27 -1.67,1.54 -3.32,3.09 -5.03,4.65 -1.54,1.41 -3.12,2.83 -4.68,4.23 -1.75,1.58 -3.48,3.15 -5.26,4.73 -1.6,1.43 -3.26,2.87 -4.89,4.32 -1.78,1.56 -3.55,3.12 -5.37,4.7 -1.67,1.45 -3.39,2.89 -5.08,4.35 -1.83,1.56 -3.64,3.12 -5.49,4.7 -1.73,1.44 -3.51,2.91 -5.26,4.36 -1.89,1.57 -3.77,3.15 -5.68,4.72 -1.79,1.46 -3.62,2.93 -5.43,4.39 -1.93,1.55 -3.84,3.12 -5.8,4.68 -1.87,1.48 -3.78,2.98 -5.68,4.46 -1.97,1.55 -3.92,3.09 -5.92,4.63 -1.94,1.51 -3.93,3.01 -5.89,4.51 -2.01,1.53 -3.99,3.05 -6.02,4.57 -1.98,1.49 -3.99,2.97 -6,4.46 -2.09,1.54 -4.18,3.09 -6.3,4.64 -2.01,1.45 -4.04,2.91 -6.07,4.35 -2.17,1.56 -4.33,3.13 -6.54,4.69 -2.08,1.46 -4.21,2.93 -6.31,4.39 -2.21,1.54 -4.39,3.07 -6.64,4.6 -2.17,1.49 -4.38,2.97 -6.59,4.46 -2.23,1.49 -4.45,2.99 -6.7,4.49 -2.22,1.46 -4.46,2.92 -6.71,4.37 -2.32,1.53 -4.64,3.04 -6.99,4.55 -2.26,1.44 -4.54,2.87 -6.82,4.31 -2.39,1.5 -4.76,3.01 -7.19,4.5 -2.32,1.45 -4.69,2.87 -7.05,4.31 -2.44,1.48 -4.86,2.97 -7.32,4.44 -2.42,1.45 -4.87,2.87 -7.32,4.32 -2.46,1.44 -4.91,2.89 -7.4,4.32 -2.47,1.43 -4.99,2.85 -7.49,4.26 -2.54,1.44 -5.08,2.88 -7.64,4.32 -2.51,1.4 -5.05,2.77 -7.58,4.15 -2.63,1.43 -5.25,2.87 -7.9,4.3 -2.57,1.36 -5.18,2.73 -7.78,4.1 -2.67,1.4 -5.35,2.81 -8.06,4.22 -2.63,1.34 -5.3,2.69 -7.95,4.03 -2.75,1.39 -5.49,2.77 -8.26,4.15 -2.7,1.33 -5.42,2.65 -8.15,3.96 -2.81,1.37 -5.61,2.74 -8.47,4.09 -2.74,1.31 -5.51,2.59 -8.3,3.88 -2.87,1.34 -5.74,2.68 -8.64,4.01 -2.83,1.28 -5.7,2.56 -8.56,3.83 -2.91,1.29 -5.83,2.59 -8.78,3.88 -2.91,1.27 -5.86,2.52 -8.81,3.78 -2.95,1.26 -5.91,2.51 -8.9,3.76 -3,1.25 -6.01,2.47 -9.04,3.7 -3.02,1.23 -6.04,2.45 -9.09,3.66 -3.05,1.22 -6.13,2.41 -9.2,3.6 -3.1,1.2 -6.19,2.4 -9.32,3.58 -3.1,1.17 -6.24,2.33 -9.37,3.49 -3.17,1.16 -6.34,2.32 -9.54,3.48 -3.16,1.13 -6.34,2.24 -9.53,3.35 -3.25,1.14 -6.51,2.28 -9.8,3.4 -3.2,1.09 -6.45,2.16 -9.68,3.24 -3.32,1.09 -6.64,2.18 -9.99,3.27 -3.3,1.05 -6.64,2.1 -9.97,3.14 -3.36,1.05 -6.72,2.09 -10.11,3.13 -3.37,1.01 -6.75,2.02 -10.16,3.01 -3.45,1.02 -6.91,2.03 -10.39,3.02 -3.4,0.98 -6.83,1.93 -10.27,2.87 -3.53,0.98 -7.07,1.95 -10.64,2.9 -3.48,0.93 -6.97,1.84 -10.48,2.75 -3.6,0.92 -7.21,1.84 -10.84,2.75 -3.54,0.88 -7.11,1.74 -10.68,2.6 -3.67,0.88 -7.35,1.76 -11.05,2.62 -3.61,0.83 -7.25,1.65 -10.9,2.46 -3.73,0.83 -7.46,1.65 -11.23,2.45 -3.7,0.79 -7.42,1.57 -11.16,2.33 -3.78,0.77 -7.57,1.55 -11.39,2.29 -3.77,0.74 -7.57,1.46 -11.38,2.18 -3.86,0.72 -7.73,1.43 -11.61,2.13 -3.84,0.69 -7.7,1.35 -11.58,2.02 -3.92,0.66 -7.87,1.32 -11.83,1.97 -3.92,0.62 -7.84,1.25 -11.8,1.85 -3.99,0.61 -8,1.21 -12.02,1.79 -3.99,0.58 -8.01,1.14 -12.04,1.69 -4.05,0.56 -8.14,1.09 -12.23,1.62 -4.06,0.52 -8.13,1.03 -12.23,1.51 -4.14,0.5 -8.3,0.98 -12.48,1.44 -4.13,0.47 -8.26,0.91 -12.41,1.34 -4.23,0.43 -8.47,0.85 -12.74,1.26 -4.19,0.39 -8.39,0.77 -12.62,1.14 -4.3,0.37 -8.62,0.72 -12.96,1.07 -4.25,0.33 -8.51,0.64 -12.8,0.95 -4.39,0.3 -8.81,0.59 -13.24,0.87 -4.31,0.26 -8.63,0.52 -12.96,0.75 -4.48,0.25 -8.99,0.46 -13.5,0.67 -4.39,0.2 -8.8,0.4 -13.22,0.56 -4.52,0.18 -9.06,0.32 -13.61,0.45 -4.5,0.14 -9.01,0.27 -13.55,0.36 -4.59,0.11 -9.21,0.18 -13.84,0.25 -4.54,0.06 -9.1,0.12 -13.68,0.14 -4.69,0.03 -9.42,0.03 -14.16,0.03 -4.6,-0.02 -9.22,-0.03 -13.87,-0.07 -4.77,-0.04 -9.58,-0.12 -14.39,-0.2 -4.68,-0.08 -9.36,-0.18 -14.08,-0.29 -4.85,-0.12 -9.72,-0.28 -14.6,-0.43 -4.79,-0.16 -9.57,-0.32 -14.38,-0.51 -4.91,-0.2 -9.84,-0.43 -14.79,-0.67 -4.84,-0.24 -9.7,-0.47 -14.59,-0.75 -5.01,-0.28 -10.05,-0.59 -15.1,-0.9 -4.9,-0.32 -9.81,-0.63 -14.75,-0.98 -5.08,-0.36 -10.2,-0.76 -15.33,-1.16 -5,-0.39 -10.01,-0.79 -15.04,-1.22 -5.16,-0.44 -10.36,-0.92 -15.55,-1.41 -5.06,-0.47 -10.12,-0.95 -15.22,-1.46 -5.26,-0.53 -10.56,-1.1 -15.88,-1.67 -5.11,-0.56 -10.23,-1.11 -15.39,-1.71 -5.34,-0.61 -10.72,-1.27 -16.11,-1.94 -5.21,-0.64 -10.42,-1.28 -15.66,-1.96 -5.41,-0.7 -10.86,-1.45 -16.31,-2.2 -5.3,-0.73 -10.59,-1.46 -15.92,-2.22 -5.51,-0.8 -11.06,-1.64 -16.6,-2.49 -5.36,-0.81 -10.72,-1.63 -16.14,-2.49 -5.54,-0.88 -11.14,-1.82 -16.73,-2.75 -5.48,-0.91 -10.96,-1.81 -16.49,-2.77 -5.64,-0.98 -11.33,-2.01 -17.01,-3.04 -5.54,-0.99 -11.06,-1.99 -16.64,-3.04 -5.73,-1.07 -11.51,-2.2 -17.29,-3.33 -5.62,-1.09 -11.25,-2.18 -16.91,-3.33 -5.82,-1.17 -11.68,-2.4 -17.53,-3.62 -5.7,-1.19 -11.4,-2.36 -17.13,-3.61 -5.9,-1.27 -11.84,-2.6 -17.78,-3.93 -5.78,-1.28 -11.56,-2.56 -17.38,-3.89 -6,-1.38 -12.05,-2.82 -18.09,-4.25 -5.85,-1.38 -11.68,-2.75 -17.57,-4.18 -6.1,-1.49 -12.26,-3.04 -18.41,-4.57 -5.9,-1.49 -11.79,-2.94 -17.73,-4.48 -6.21,-1.59 -12.49,-3.26 -18.75,-4.91 -5.97,-1.57 -11.91,-3.12 -17.91,-4.75 -6.31,-1.7 -12.67,-3.48 -19.01,-5.24 -6.06,-1.68 -12.1,-3.34 -18.2,-5.07 -6.36,-1.8 -12.77,-3.69 -19.18,-5.55 -6.16,-1.79 -12.3,-3.56 -18.5,-5.39 -6.45,-1.92 -12.95,-3.92 -19.44,-5.88 -6.26,-1.91 -12.49,-3.79 -18.79,-5.74 -6.53,-2.04 -13.12,-4.15 -19.7,-6.23 -6.32,-2 -12.61,-3.97 -18.98,-6.03 -6.68,-2.17 -13.43,-4.41 -20.15,-6.63 -6.35,-2.1 -12.68,-4.17 -19.07,-6.32 -6.76,-2.27 -13.6,-4.64 -20.42,-6.98 -6.44,-2.22 -12.87,-4.4 -19.36,-6.67 -6.83,-2.38 -13.71,-4.86 -20.59,-7.31 -6.55,-2.33 -13.08,-4.64 -19.68,-7.03 -6.98,-2.53 -14.03,-5.14 -21.05,-7.74 -6.57,-2.42 -13.11,-4.81 -19.72,-7.29 -7.13,-2.67 -14.31,-5.44 -21.48,-8.17 -6.62,-2.53 -13.21,-5.01 -19.87,-7.6 -7.15,-2.77 -14.38,-5.64 -21.58,-8.48 -6.76,-2.67 -13.51,-5.3 -20.33,-8.03 -7.31,-2.93 -14.71,-5.96 -22.07,-8.96 -6.75,-2.74 -13.47,-5.44 -20.25,-8.25 -7.52,-3.09 -15.11,-6.31 -22.68,-9.48 -6.76,-2.83 -13.48,-5.62 -20.29,-8.52 -7.64,-3.24 -15.36,-6.6 -23.05,-9.92 -6.8,-2.94 -13.57,-5.83 -20.42,-8.82 -7.74,-3.39 -15.57,-6.89 -23.38,-10.35 -6.89,-3.07 -13.75,-6.07 -20.68,-9.19 -7.97,-3.58 -16.03,-7.28 -24.05,-10.95 -6.82,-3.1 -13.6,-6.16 -20.46,-9.32 -8.23,-3.8 -16.55,-7.73 -24.84,-11.61 -6.77,-3.17 -13.51,-6.28 -20.33,-9.52 -8.26,-3.9 -16.61,-7.95 -24.93,-11.95 -6.92,-3.32 -13.8,-6.58 -20.76,-9.96 -8.51,-4.13 -17.11,-8.4 -25.68,-12.62 -6.85,-3.37 -13.65,-6.67 -20.54,-10.09 -9.12,-4.54 -18.34,-9.22 -27.53,-13.85 -6.43,-3.24 -12.79,-6.41 -19.25,-9.69 -12.23,-6.23 -24.55,-12.61 -36.89,-19 -3.48,-1.8 -6.92,-3.54 -10.4,-5.35 -15.88,-8.27 -31.85,-16.68 -47.91,-25.24 -5,-2.66 -10.07,-5.43 -15.09,-8.11 -11.1,-5.94 -22.16,-11.87 -33.34,-17.94 -6.69,-3.64 -13.47,-7.41 -20.2,-11.1 -9.62,-5.27 -19.22,-10.51 -28.9,-15.89 -6.96,-3.85 -13.99,-7.84 -20.98,-11.75 -9.53,-5.35 -19.02,-10.63 -28.62,-16.07 -7.38,-4.18 -14.84,-8.48 -22.26,-12.72 -9.3,-5.33 -18.57,-10.59 -27.94,-16 -7.72,-4.46 -15.53,-9.05 -23.29,-13.58 -9.14,-5.34 -18.24,-10.6 -27.44,-16.02 -7.85,-4.63 -15.8,-9.38 -23.7,-14.08 -9.23,-5.49 -18.43,-10.92 -27.73,-16.49 -7.83,-4.7 -15.76,-9.55 -23.63,-14.31 -9.42,-5.69 -18.82,-11.35 -28.3,-17.14 -8.07,-4.93 -16.22,-9.99 -24.34,-14.99 -9.37,-5.78 -18.72,-11.5 -28.15,-17.37 -8.3,-5.17 -16.69,-10.47 -25.05,-15.71 -9.34,-5.86 -18.64,-11.67 -28.04,-17.6 -8.41,-5.34 -16.91,-10.79 -25.37,-16.19 -9.44,-6.02 -18.87,-12.01 -28.37,-18.12 -8.52,-5.49 -17.13,-11.1 -25.69,-16.65 -9.51,-6.17 -18.99,-12.31 -28.56,-18.57 -8.71,-5.69 -17.5,-11.51 -26.24,-17.28 -9.55,-6.3 -19.07,-12.55 -28.67,-18.94 -8.81,-5.85 -17.69,-11.83 -26.54,-17.77 -9.64,-6.44 -19.25,-12.86 -28.94,-19.41 -8.97,-6.06 -18.01,-12.24 -27.03,-18.38 -9.67,-6.58 -19.32,-13.13 -29.06,-19.81 -9.03,-6.19 -18.14,-12.52 -27.23,-18.8 -9.83,-6.78 -19.63,-13.54 -29.52,-20.43 -9.13,-6.35 -18.33,-12.83 -27.5,-19.26 -9.91,-6.96 -19.8,-13.87 -29.76,-20.92 -9.33,-6.58 -18.71,-13.29 -28.09,-19.96 -9.92,-7.06 -19.82,-14.09 -29.8,-21.25 -9.44,-6.76 -18.95,-13.65 -28.43,-20.5 -10.04,-7.26 -20.07,-14.46 -30.17,-21.81 -9.46,-6.89 -19,-13.89 -28.51,-20.86 -10.2,-7.47 -20.38,-14.9 -30.64,-22.47 -9.65,-7.11 -19.36,-14.34 -29.05,-21.53 -10.2,-7.58 -20.38,-15.12 -30.64,-22.78 -9.79,-7.32 -19.65,-14.76 -29.51,-22.17 -10.3,-7.76 -20.59,-15.48 -30.95,-23.33 -9.83,-7.44 -19.71,-15 -29.58,-22.52 -10.47,-7.98 -20.92,-15.94 -31.45,-24 -9.96,-7.66 -19.99,-15.42 -30.01,-23.15 -10.52,-8.12 -21.03,-16.23 -31.61,-24.45 -10.06,-7.83 -20.2,-15.76 -30.3,-23.67 -10.66,-8.33 -21.3,-16.65 -32.01,-25.08 -10.22,-8.04 -20.5,-16.19 -30.77,-24.32 -10.66,-8.45 -21.33,-16.87 -32.05,-25.43 -10.37,-8.26 -20.8,-16.63 -31.23,-24.99 -10.77,-8.63 -21.53,-17.25 -32.35,-25.99 -10.48,-8.44 -21.02,-16.99 -31.54,-25.53 -10.85,-8.81 -21.71,-17.61 -32.62,-26.52 -10.6,-8.64 -21.24,-17.39 -31.89,-26.12 -10.96,-9 -21.93,-18 -32.95,-27.1 -10.72,-8.85 -21.5,-17.81 -32.27,-26.76 -11.05,-9.17 -22.09,-18.34 -33.19,-27.6 -10.84,-9.06 -21.73,-18.21 -32.63,-27.36 -11.14,-9.35 -22.29,-18.71 -33.49,-28.17 -10.94,-9.23 -21.92,-18.57 -32.91,-27.9 -11.29,-9.59 -22.59,-19.18 -33.92,-28.87 -11.02,-9.39 -22.08,-18.91 -33.15,-28.4 -11.4,-9.79 -22.81,-19.59 -34.28,-29.48 -11.13,-9.61 -22.31,-19.31 -33.49,-29.01 -15.64,-13.58 -31.26,-27.11 -47,-40.87 6.51,-265.43 -58.21,-861.38 -700.87,-2086.608 0,0 -173.96,-869.8004 267.62,-869.8004 441.59,0 1087.36,754.5974 2933.98,1771.6184 1846.63,1016.98 2796.71,-481.73 2796.71,-481.73 0,0 759.28,-1309.99 1535.39,-1309.99 0,0 207.41,60.1992 127.13,334.5 -80.3,274.301 250.4,2111.7 250.4,2111.7 0,0 672.86,-1686.899 1452.03,-2252.802 178.2,-129.398 425.9,9.004 409.4,228.602 -38.2,508.699 -41.2,1413.77 266.8,2359.95 l 642.3,956.76 c 0,0 1693.4,-294.49 2810.1,1445.19 481.3,749.77 790.1,1504.12 897.2,1783.71 -206.9,12.42 -258.9,-382.51 -258.9,-382.51"
         style="fill:#c9b3df;fill-opacity:1;fill-rule:nonzero;stroke:none"
         id="path372" />
      <path
         d="m 3841.99,1281.8 c 0,0 -39.67,-1281.8 335.02,-1281.8 662.37,0 1254.61,1904.95 1254.61,1904.95 0,0 -388.06,-29.88 -769.42,-197.18 -366.92,-160.98 -820.21,-425.97 -820.21,-425.97"
         style="fill:#c9b3df;fill-opacity:1;fill-rule:nonzero;stroke:none"
         id="path374" />
      <path
         d="m 3214,4506.99 c 241.32,422.31 -1099.49,627.67 -1558.43,684.91 -37.84,4.71 -56,-44.94 -23.97,-65.62 368.42,-237.78 1428.16,-889.23 1582.4,-619.29"
         style="fill:#4f2264;fill-opacity:1;fill-rule:nonzero;stroke:none"
         id="path376" />
      <path
         d="m 3938.63,6353.81 c 385.37,-324.24 501.36,-756.77 838.35,-624.44 426.64,167.54 -158.96,783.25 -814.94,1162.67 -430.22,248.84 -795.64,397.82 -1167.86,423.91 -96.54,6.77 -170.18,-65.53 -110.73,-142.7 215.07,-279.27 869.82,-495.21 1255.18,-819.44"
         style="fill:#4f2264;fill-opacity:1;fill-rule:nonzero;stroke:none"
         id="path378" />
      <path
         d="m 6407.44,6616.95 c 465.04,-507.35 837.19,-1195.06 1018.81,-1050.66 631.29,501.93 -1460.94,2262.51 -2417.2,2938.69 -116.87,82.65 -292.35,-21.27 -226.32,-134.03 290.75,-496.44 1018.17,-1092.3 1624.71,-1754"
         style="fill:#4f2264;fill-opacity:1;fill-rule:nonzero;stroke:none"
         id="path380" />
      <path
         d="m 8835.96,6662.65 c 468.51,129.3 -339.65,2119.45 -759.51,3077.8 -44.39,101.32 -177.4,47.69 -163.04,-65.73 132.25,-1045.19 457.02,-3140.55 922.55,-3012.07"
         style="fill:#4f2264;fill-opacity:1;fill-rule:nonzero;stroke:none"
         id="path382" />
      <path
         d="m 10320.6,8833 c 116.1,-364.68 36.3,-560.81 159.1,-595.56 122.7,-34.73 157.4,15.78 40.1,591.99 -51.1,250.93 -140.1,391.03 -224.4,469.23 -66.6,61.88 -155.2,-23.39 -116.6,-112.17 54,-124.29 116.1,-272.59 141.8,-353.49"
         style="fill:#4f2264;fill-opacity:1;fill-rule:nonzero;stroke:none"
         id="path384" />
    </g>
  </g>
</svg>
